<svg width="65" height="65" viewBox="0 0 65 65" fill="none" xmlns="http://www.w3.org/2000/svg">
<path d="M56.2234 37.8393C56.2234 43.0093 56.2234 48.1693 56.2234 53.3393C56.2234 55.5193 55.5334 56.1994 53.3234 56.1994C50.8134 56.1994 48.3033 56.2094 45.7933 56.1994C44.0333 56.1894 43.2434 55.4294 43.2334 53.6794C43.2134 43.1294 43.2134 32.5795 43.2134 22.0295C43.2134 20.2495 43.9934 19.4794 45.7234 19.4694C48.3834 19.4594 51.0334 19.4594 53.6934 19.4694C55.4434 19.4794 56.2134 20.2595 56.2134 22.0095C56.2234 27.2895 56.2134 32.5593 56.2134 37.8393H56.2234Z" fill="url(#paint0_linear_6_1161)"/>
<path d="M38.9233 42.1995C38.9233 45.9495 38.9233 49.6895 38.9233 53.4395C38.9233 55.4595 38.1733 56.1895 36.1433 56.1995C33.5933 56.1995 31.0532 56.2095 28.5032 56.1995C26.7532 56.1995 25.9333 55.4195 25.9233 53.6795C25.9033 45.9295 25.9133 38.1895 25.9233 30.4395C25.9233 28.9095 26.7733 28.0696 28.3033 28.0596C31.0333 28.0296 33.7533 28.0296 36.4833 28.0596C38.0533 28.0796 38.8933 28.9296 38.9033 30.5296C38.9233 34.4196 38.9033 38.3095 38.9033 42.1995H38.9233Z" fill="url(#paint1_linear_6_1161)"/>
<path d="M45.2034 8.36938C44.3834 7.65938 43.8234 7.23951 43.3534 6.74951C42.2434 5.58951 42.5333 3.78951 44.0333 3.24951C47.1433 2.12951 50.2734 1.04937 53.4434 0.109369C55.2934 -0.440631 56.6533 1.16953 56.0433 3.01953C55.0833 5.94953 54.1034 8.87956 53.1034 11.8096C52.4734 13.6496 50.7434 14.0695 49.3234 12.7195C48.8834 12.2995 48.5334 11.7794 47.9834 11.1094C45.8634 13.2894 43.9633 15.2895 42.0333 17.2495C40.2033 19.1195 38.3234 20.9393 36.4934 22.8193C35.8334 23.4893 35.0933 23.7895 34.1633 23.7895C31.3633 23.7695 28.5633 23.7496 25.7633 23.8096C25.2733 23.8196 24.6334 24.1095 24.3234 24.4795C21.8934 27.4195 19.5133 30.4094 17.1433 33.3994C16.5333 34.1694 15.8434 34.5994 14.8334 34.5994C10.7234 34.5794 6.61331 34.5993 2.50331 34.5894C1.12331 34.5894 0.293375 33.9794 0.0733747 32.8594C-0.216625 31.3894 0.803399 30.2495 2.4734 30.2395C6.0034 30.2195 9.53337 30.2095 13.0634 30.2495C13.8434 30.2495 14.3233 29.9994 14.7933 29.3994C17.1033 26.4494 19.4733 23.5494 21.7833 20.6094C22.4233 19.7994 23.1734 19.4294 24.2134 19.4394C27.0834 19.4694 29.9634 19.4694 32.8334 19.4094C33.3434 19.3994 33.9534 19.1095 34.3134 18.7495C37.5134 15.6295 40.6534 12.4496 43.8334 9.30956C44.1634 8.97956 44.6034 8.76937 45.1934 8.35937L45.2034 8.36938Z" fill="url(#paint2_linear_6_1161)"/>
<path d="M32.4334 64.8194C22.5034 64.8194 12.5633 64.8194 2.63332 64.8194C1.53332 64.8194 0.603359 64.5795 0.173359 63.4395C-0.186641 62.4695 0.00340313 61.5596 0.843403 61.0196C1.3734 60.6696 2.12334 60.5196 2.78334 60.5196C16.9033 60.4896 31.0133 60.4996 45.1333 60.4996C50.7733 60.4996 56.4134 60.4896 62.0534 60.5096C62.6534 60.5096 63.3334 60.5794 63.8334 60.8594C64.6534 61.3194 64.9933 62.1494 64.7733 63.1094C64.5633 64.0594 63.9634 64.6396 62.9934 64.7696C62.6334 64.8196 62.2633 64.8096 61.9033 64.8096C52.0833 64.8096 42.2534 64.8096 32.4334 64.8096V64.8194Z" fill="url(#paint3_linear_6_1161)"/>
<path d="M21.6433 47.5397C21.6433 49.4997 21.6633 51.4695 21.6433 53.4295C21.6233 55.4895 20.9133 56.1896 18.8833 56.1996C16.3733 56.2096 13.8634 56.2096 11.3534 56.1996C9.39339 56.1996 8.6333 55.4296 8.6333 53.4896C8.6333 49.5296 8.6333 45.5595 8.6333 41.5995C8.6333 39.6295 9.35338 38.9195 11.3434 38.9195C13.9634 38.9195 16.5834 38.8995 19.1934 38.9195C20.8134 38.9195 21.6133 39.6994 21.6333 41.3194C21.6633 43.3894 21.6333 45.4597 21.6333 47.5397H21.6433Z" fill="url(#paint4_linear_6_1161)"/>
<defs>
<linearGradient id="paint0_linear_6_1161" x1="4.98335" y1="83.7394" x2="69.3133" y2="17.6993" gradientUnits="userSpaceOnUse">
<stop stop-color="#076653"/>
<stop offset="1" stop-color="#06231D"/>
</linearGradient>
<linearGradient id="paint1_linear_6_1161" x1="-1.74671" y1="77.1894" x2="62.593" y2="11.1494" gradientUnits="userSpaceOnUse">
<stop stop-color="#076653"/>
<stop offset="1" stop-color="#06231D"/>
</linearGradient>
<linearGradient id="paint2_linear_6_1161" x1="-14.8666" y1="64.4093" x2="49.4634" y2="-1.64062" gradientUnits="userSpaceOnUse">
<stop stop-color="#076653"/>
<stop offset="1" stop-color="#06231D"/>
</linearGradient>
<linearGradient id="paint3_linear_6_1161" x1="8.53337" y1="87.1985" x2="72.8606" y2="21.1586" gradientUnits="userSpaceOnUse">
<stop stop-color="#076653"/>
<stop offset="1" stop-color="#06231D"/>
</linearGradient>
<linearGradient id="paint4_linear_6_1161" x1="-7.90671" y1="71.1896" x2="56.4234" y2="5.14954" gradientUnits="userSpaceOnUse">
<stop stop-color="#076653"/>
<stop offset="1" stop-color="#06231D"/>
</linearGradient>
</defs>
</svg>
