<svg width="51" height="51" viewBox="0 0 51 51" fill="none" xmlns="http://www.w3.org/2000/svg">
<path d="M29.2187 39.0765C27.4587 39.2365 26.5787 40.2067 26.5787 41.9867C26.5787 44.1067 26.5787 46.2265 26.5787 48.7965C28.3187 47.8765 29.7487 47.1267 31.3387 46.2867C31.6487 47.3667 31.9987 48.5767 32.3487 49.7767C23.8387 52.6767 11.2287 50.0366 4.25866 39.4566C-2.63134 29.0066 -0.931338 15.5965 7.69866 7.36654C17.2987 -1.78346 30.9287 -2.4435 41.1987 5.5765C50.9787 13.2165 53.2687 26.2866 48.3387 36.4166C47.7087 36.0966 47.0787 35.7666 46.4387 35.4366C46.9087 34.0066 47.4286 32.6765 47.7886 31.3065C48.1386 29.9765 48.3187 28.6066 48.5987 27.1366H40.3787C40.2287 28.6766 40.0786 30.1766 39.9286 31.6966C37.8886 31.2866 37.7187 31.0466 37.9087 29.1766C37.9687 28.5366 37.9186 27.8866 37.9186 27.1466H26.5787C26.5787 30.1966 26.5586 33.1966 26.6086 36.1966C26.6086 36.4366 27.0886 36.8965 27.2986 36.8665C29.0286 36.6565 28.9887 37.9065 29.2187 39.0765ZM38.0287 24.6466C37.9987 20.9766 37.4786 17.5466 36.4186 14.2166C36.3286 13.9366 35.7387 13.6266 35.3987 13.6366C32.9187 13.7266 30.4487 13.9567 27.9687 14.0067C26.9187 14.0267 26.5287 14.2866 26.5687 15.4066C26.6487 18.0666 26.5887 20.7265 26.5987 23.3765C26.5987 23.7965 26.6387 24.2066 26.6587 24.6466H38.0386H38.0287ZM12.9186 24.6265H24.2486V14.1866C21.1987 13.9766 18.2586 13.7665 15.3086 13.6165C15.0486 13.6065 14.6087 13.9767 14.5287 14.2567C13.5087 17.5967 12.8987 20.9966 12.9087 24.6366L12.9186 24.6265ZM12.9087 27.1366C13.0187 30.5366 13.5887 33.7666 14.5987 36.9166C14.6687 37.1366 15.1086 37.3765 15.3686 37.3665C18.0686 37.2465 20.7587 37.0466 23.4587 36.9266C24.1387 36.8966 24.3686 36.6366 24.3586 35.9766C24.3286 34.3666 24.3586 32.7466 24.3586 31.1366C24.3586 29.8066 24.3586 28.4766 24.3586 27.1366H12.9087ZM48.5087 24.6366C48.3887 20.1766 47.0287 16.2265 44.5987 12.6165C44.4687 12.4265 44.0886 12.2665 43.8586 12.3065C42.1186 12.6065 40.3787 12.9567 38.8387 13.2467C39.4387 17.0967 40.0087 20.8166 40.5987 24.6366H48.4986H48.5087ZM12.0887 13.2166C11.3787 13.0966 10.5587 12.9665 9.75866 12.8065C6.32866 12.1165 6.29864 12.1065 4.73864 15.3065C3.31864 18.2165 2.42866 21.2765 2.44866 24.6265H10.3187C10.9087 20.7965 11.4887 17.0766 12.0887 13.2166ZM2.40868 27.1265C2.76868 31.3165 4.02867 35.0065 6.32867 38.3365C6.46867 38.5365 6.82864 38.7166 7.04864 38.6866C8.79864 38.3866 10.5286 38.0266 12.1186 37.7166C11.5286 34.1466 10.9486 30.6566 10.3686 27.1366H2.40868V27.1265ZM35.4587 11.3665C33.4587 7.21654 31.3186 3.69662 26.6686 2.44662V11.8665C29.5786 11.7065 32.3787 11.5465 35.4587 11.3765V11.3665ZM24.2687 48.4366V39.0965C21.3987 39.2665 18.6086 39.4265 15.7886 39.5865C16.6386 43.4665 20.6387 47.6466 24.2687 48.4366ZM24.2486 11.7266V2.62655C20.8787 2.69655 16.4987 8.05656 15.8487 11.3866C18.3387 11.5266 20.8186 11.6667 23.2986 11.7867C23.5886 11.8067 23.8886 11.7466 24.2486 11.7166V11.7266ZM8.31866 40.7567C10.4487 43.5067 14.8987 46.5065 16.9687 46.8265C15.8687 44.8765 14.6987 42.7666 13.4687 40.6766C13.2887 40.3766 12.8487 39.9967 12.5687 40.0267C11.1987 40.1867 9.84866 40.4767 8.31866 40.7567ZM42.7087 10.2166C40.0987 7.26663 37.2087 5.24656 33.5887 3.88656C34.5087 5.24656 35.3086 6.3767 36.0586 7.5367C36.7786 8.6667 37.2187 10.4365 38.2087 10.8165C39.3587 11.2665 40.9687 10.5066 42.7087 10.2066V10.2166ZM8.20867 10.1866C9.82867 10.4766 11.1786 10.7566 12.5386 10.9366C12.8086 10.9666 13.2487 10.6866 13.3987 10.4266C14.6387 8.2966 15.8286 6.14666 17.0386 3.99666C13.7586 5.25666 10.8587 7.26661 8.20867 10.1966V10.1866Z" fill="url(#paint0_linear_6_1080)"/>
<path d="M34.9987 50.0166C32.9687 42.9266 31.0187 36.0965 28.9688 28.9465C35.5087 32.4365 41.7387 35.7566 48.2487 39.2266C45.8687 39.9466 43.8187 40.5666 41.4887 41.2766C42.6887 42.7866 43.7487 44.1265 44.8187 45.4565C45.4987 46.3065 46.2287 47.1166 46.8387 48.0166C46.9987 48.2566 46.9787 48.8564 46.7887 49.0564C46.2287 49.6564 45.5887 50.2165 44.8887 50.6265C44.6487 50.7665 43.9887 50.5664 43.7687 50.3064C42.2887 48.5964 40.8787 46.8164 39.4387 45.0664C39.1487 44.7064 38.8287 44.3664 38.3687 43.8364C37.2187 45.9364 36.1587 47.8566 34.9787 50.0066L34.9987 50.0166Z" fill="url(#paint1_linear_6_1080)"/>
<defs>
<linearGradient id="paint0_linear_6_1080" x1="0.00866015" y1="25.4466" x2="50.8687" y2="25.4466" gradientUnits="userSpaceOnUse">
<stop stop-color="#076653"/>
<stop offset="1" stop-color="#06231D"/>
</linearGradient>
<linearGradient id="paint1_linear_6_1080" x1="28.9787" y1="39.8065" x2="48.2587" y2="39.8065" gradientUnits="userSpaceOnUse">
<stop stop-color="#076653"/>
<stop offset="1" stop-color="#06231D"/>
</linearGradient>
</defs>
</svg>
