<svg width="36" height="60" viewBox="0 0 36 60" fill="none" xmlns="http://www.w3.org/2000/svg">
<path d="M21.65 4.53003C19.01 4.53003 16.38 4.53003 13.74 4.53003C13.03 4.53003 12.57 4.95004 12.58 5.54004C12.59 6.11004 13.03 6.48999 13.73 6.48999C15.04 6.48999 16.35 6.48999 17.66 6.48999C18.97 6.48999 20.32 6.48999 21.64 6.48999C22.38 6.48999 22.82 6.12002 22.83 5.52002C22.83 4.94002 22.37 4.53003 21.65 4.53003ZM21.65 4.53003C19.01 4.53003 16.38 4.53003 13.74 4.53003C13.03 4.53003 12.57 4.95004 12.58 5.54004C12.59 6.11004 13.03 6.48999 13.73 6.48999C15.04 6.48999 16.35 6.48999 17.66 6.48999C18.97 6.48999 20.32 6.48999 21.64 6.48999C22.38 6.48999 22.82 6.12002 22.83 5.52002C22.83 4.94002 22.37 4.53003 21.65 4.53003ZM35.23 4.87012C35.23 2.49012 33.73 0.650117 31.41 0.120117C31.32 0.100117 31.21 0.13 31.18 0H4.22998C3.76998 0.12 3.28 0.0800684 2.84 0.320068C0.929996 1.32007 0 2.90005 0 5.05005C0 21.43 0 37.8099 0 54.1799C0 54.3499 0 54.53 0 54.7C0.1 56.6199 1.58 58.6201 3.25 59.0901C3.32 59.0901 3.39 59.0901 3.47 59.1001C3.5 59.1001 3.51999 59.1001 3.54999 59.1001C3.73999 59.1101 3.92999 59.13 4.10999 59.21H31.17C32.04 58.93 32.9 58.65 33.6 58.01C34.66 57.03 35.22 55.8301 35.22 54.3801C35.22 37.8701 35.22 21.3701 35.22 4.86011L35.23 4.87012ZM2.12997 9.02002C2.15997 7.65002 2.12999 6.27991 2.14999 4.90991C2.15999 3.18991 3.37999 1.96997 5.10999 1.96997C13.51 1.96997 21.92 1.96997 30.32 1.96997C32.04 1.96997 33.26 3.19992 33.27 4.91992C33.27 6.28992 33.25 7.66002 33.28 9.02002C33.29 9.48002 33.16 9.59009 32.71 9.59009C27.7 9.57009 22.69 9.59008 17.68 9.58008C12.69 9.58008 7.69998 9.58008 2.69998 9.58008C2.23998 9.58008 2.11997 9.46001 2.12997 9.01001V9.02002ZM33.24 54.8101C33.2 56.2001 31.91 57.3601 30.51 57.3601C21.98 57.3701 13.44 57.3701 4.91 57.3601C3.46 57.3601 2.19 56.15 2.16 54.7C2.12 52.52 2.15998 50.3499 2.13998 48.1699C2.13998 47.8399 2.25999 47.8 2.54999 47.8C7.43999 47.8 12.34 47.8 17.23 47.8C17.51 47.8 17.69 47.8699 17.81 48.1499C17.93 48.4299 18.1 48.68 18.29 49C15.37 49.31 13.81 50.9399 14.23 53.1699C14.62 55.2399 16.61 56.51 18.64 55.98C20.78 55.42 21.7 53.3499 20.87 50.9099C23.07 51.2999 25.28 51.0901 27.49 51.1001C29.62 51.1101 31.21 50.1 32.17 48.2C32.42 47.7099 32.74 47.8 33.11 47.8C33.32 47.8 33.29 47.9601 33.28 48.0901C33.28 50.3301 33.32 52.56 33.25 54.79L33.24 54.8101ZM18.34 32.1799C18.32 32.8899 18.32 33.6101 18.34 34.3201C18.34 34.6301 18.26 34.71 17.95 34.71C16.99 34.69 16.02 34.71 15.06 34.71C14.15 34.71 13.25 34.72 12.34 34.71C11.14 34.69 10.42 33.8799 10.56 32.6899C10.95 29.2999 11.35 25.92 11.71 22.53C11.78 21.88 12.17 22.1401 12.47 22.1001C12.93 22.0301 12.78 22.3801 12.78 22.5901C12.79 23.2401 12.78 23.9001 12.78 24.5601C12.8 25.2001 13.19 25.6101 13.77 25.6101C14.35 25.6101 14.73 25.21 14.74 24.55C14.75 23.88 14.76 23.2 14.74 22.53C14.74 22.23 14.78 22.0901 15.13 22.1001C16.92 22.1201 18.71 22.1201 20.51 22.1001C20.84 22.1001 20.89 22.22 20.88 22.5C20.86 23.17 20.87 23.85 20.88 24.52C20.89 25.21 21.28 25.6201 21.88 25.6101C22.46 25.6001 22.83 25.21 22.84 24.55C22.85 23.88 22.84 23.2 22.84 22.53C22.84 22.3 22.79 22.0701 23.18 22.1001C23.49 22.1301 23.71 22.1 23.75 22.52C23.88 23.92 24.06 25.31 24.22 26.71C24.44 28.62 24.65 30.5299 24.89 32.4399C25.02 33.5299 24.68 34.23 23.83 34.55C23.46 34.69 23.36 34.61 23.37 34.22C23.39 33.1 23.4 31.9801 23.38 30.8701C23.35 29.6201 22.53 28.7301 21.34 28.6101C19.78 28.4501 18.74 29.0401 18.4 30.3101C18.23 30.9301 18.35 31.58 18.33 32.21L18.34 32.1799ZM16.63 16.55C17.93 16.01 19.45 16.43 20.32 17.52C20.89 18.24 20.92 19.0699 20.89 19.9299C20.88 20.2199 20.65 20.1201 20.5 20.1201C19.59 20.1201 18.69 20.1201 17.78 20.1201C16.87 20.1201 16.01 20.1201 15.12 20.1201C14.92 20.1201 14.78 20.1201 14.75 19.8401C14.59 18.3201 15.28 17.1 16.63 16.54V16.55ZM18.49 41.8C18.81 42.18 19.2 42.3399 19.67 42.1599C20.13 41.9799 20.31 41.5901 20.31 41.1001C20.31 39.4201 20.31 37.7501 20.31 36.0701C20.31 34.4301 20.31 32.7899 20.31 31.1599C20.31 30.7499 20.36 30.52 20.87 30.52C21.39 30.52 21.47 30.7599 21.46 31.1899C21.43 33.8299 21.41 36.4701 21.39 39.1101C21.39 39.2601 21.38 39.4201 21.39 39.5701C21.43 40.1901 21.86 40.6101 22.42 40.5901C22.97 40.5601 23.33 40.16 23.34 39.54C23.35 38.89 23.37 38.2301 23.34 37.5801C23.31 37.0701 23.64 37.1299 23.94 37.1499C24.22 37.1699 24.62 36.9701 24.6 37.5601C24.57 38.4601 24.58 39.37 24.6 40.28C24.6 40.93 24.99 41.3401 25.56 41.3501C26.13 41.3501 26.54 40.9501 26.56 40.3101C26.58 39.6401 26.59 38.96 26.56 38.29C26.54 37.79 26.87 37.8899 27.13 37.9099C27.39 37.9299 27.79 37.72 27.77 38.28C27.75 38.92 27.76 39.5499 27.77 40.1899C27.78 40.9199 28.16 41.3601 28.76 41.3601C29.36 41.3601 29.69 40.97 29.73 40.24C29.75 39.9 29.82 39.7 30.22 39.72C30.59 39.74 30.79 39.83 30.79 40.25C30.77 42.19 30.81 44.1401 30.76 46.0901C30.72 47.8101 29.31 49.1599 27.58 49.1799C25.89 49.1999 24.19 49.1999 22.49 49.1799C21.33 49.1699 20.37 48.6699 19.8 47.6699C18.44 45.3099 17.14 42.91 15.8 40.53C15.61 40.2 15.78 40.1201 16.03 40.0701C16.56 39.9601 17.02 40.1 17.38 40.52C17.76 40.95 18.15 41.3901 18.52 41.8301L18.49 41.8ZM19.26 52.6101C19.25 53.4701 18.57 54.1399 17.71 54.1399C16.82 54.1399 16.13 53.4601 16.14 52.5701C16.14 51.7301 16.86 51.02 17.69 51.02C18.56 51.02 19.27 51.7401 19.26 52.6001V52.6101ZM33.16 45.8301C32.81 45.9601 32.7 45.7699 32.71 45.4099C32.73 43.7099 32.71 42.0201 32.71 40.3201C32.71 38.6601 31.86 37.79 30.2 37.77C29.82 37.77 29.68 37.6401 29.56 37.3101C29.24 36.4201 28.57 35.9599 27.62 35.9399C27.2 35.9399 26.77 35.96 26.35 35.96C25.99 35.96 25.72 35.67 25.91 35.48C27.07 34.28 26.93 32.8401 26.75 31.3601C26.35 28.1101 25.99 24.8601 25.62 21.6101C25.59 21.3201 25.58 21.02 25.48 20.76C25.32 20.32 24.97 20.1201 24.49 20.1201C23.97 20.1201 23.32 20.3 22.97 20.05C22.63 19.81 22.9 19.1201 22.83 18.6301C22.46 16.0201 20.16 14.1901 17.46 14.3601C14.83 14.5301 12.83 16.63 12.79 19.25C12.7833 19.83 12.4733 20.1201 11.86 20.1201C10.04 20.1201 10.01 20.1201 9.81 21.8801C9.39 25.4401 8.98998 28.99 8.59998 32.55C8.34998 34.83 10.01 36.6399 12.31 36.6599C14.14 36.6699 15.97 36.6799 17.8 36.6599C18.24 36.6599 18.36 36.78 18.33 37.2C18.29 37.68 18.33 38.16 18.33 38.73C16.69 37.72 15.24 37.9101 13.86 39.0801C13.3 39.5501 13.2 39.9201 13.57 40.5801C14.44 42.1601 15.33 43.73 16.21 45.3C16.3 45.46 16.39 45.6301 16.51 45.8601H15.48C11.2 45.8601 6.91999 45.8601 2.64999 45.8601C2.24999 45.8601 2.13998 45.7701 2.13998 45.3601C2.14998 34.2601 2.14998 23.1601 2.13998 12.0601C2.13998 11.6101 2.26999 11.53 2.67999 11.53C12.7 11.54 22.72 11.54 32.74 11.53C33.16 11.53 33.28 11.6201 33.28 12.0601C33.27 23.1401 33.27 34.22 33.26 45.3C33.26 45.47 33.38 45.7401 33.16 45.8201V45.8301ZM13.73 6.48999C15.04 6.48999 16.35 6.48999 17.66 6.48999C18.97 6.48999 20.32 6.48999 21.64 6.48999C22.38 6.48999 22.82 6.12002 22.83 5.52002C22.83 4.94002 22.37 4.53003 21.65 4.53003C19.01 4.53003 16.38 4.53003 13.74 4.53003C13.03 4.53003 12.57 4.95004 12.58 5.54004C12.59 6.11004 13.03 6.48999 13.73 6.48999ZM21.65 4.53003C19.01 4.53003 16.38 4.53003 13.74 4.53003C13.03 4.53003 12.57 4.95004 12.58 5.54004C12.59 6.11004 13.03 6.48999 13.73 6.48999C15.04 6.48999 16.35 6.48999 17.66 6.48999C18.97 6.48999 20.32 6.48999 21.64 6.48999C22.38 6.48999 22.82 6.12002 22.83 5.52002C22.83 4.94002 22.37 4.53003 21.65 4.53003ZM21.65 4.53003C19.01 4.53003 16.38 4.53003 13.74 4.53003C13.03 4.53003 12.57 4.95004 12.58 5.54004C12.59 6.11004 13.03 6.48999 13.73 6.48999C15.04 6.48999 16.35 6.48999 17.66 6.48999C18.97 6.48999 20.32 6.48999 21.64 6.48999C22.38 6.48999 22.82 6.12002 22.83 5.52002C22.83 4.94002 22.37 4.53003 21.65 4.53003Z" fill="url(#paint0_linear_6_1084)"/>
<path d="M3.53998 59.22C3.49998 59.15 3.45999 59.08 3.42999 59C3.50999 59.05 3.61998 59.09 3.53998 59.22Z" fill="url(#paint1_linear_6_1084)"/>
<path d="M4.12 59.22H3.53998C3.49998 59.15 3.45999 59.08 3.42999 59C3.67999 59.02 3.93 59.03 4.12 59.22Z" fill="url(#paint2_linear_6_1084)"/>
<path d="M22.82 5.53003C22.82 6.12003 22.37 6.5 21.63 6.5C20.3 6.5 18.97 6.5 17.65 6.5C16.33 6.5 15.03 6.5 13.72 6.5C13.03 6.5 12.59 6.12005 12.57 5.55005C12.56 4.96005 13.02 4.54004 13.73 4.54004C16.37 4.54004 19.01 4.54004 21.64 4.54004C22.35 4.54004 22.82 4.95003 22.82 5.53003Z" fill="url(#paint3_linear_6_1084)"/>
<path d="M22.82 5.53003C22.82 6.12003 22.37 6.5 21.63 6.5C20.3 6.5 18.97 6.5 17.65 6.5C16.33 6.5 15.03 6.5 13.72 6.5C13.03 6.5 12.59 6.12005 12.57 5.55005C12.56 4.96005 13.02 4.54004 13.73 4.54004C16.37 4.54004 19.01 4.54004 21.64 4.54004C22.35 4.54004 22.82 4.95003 22.82 5.53003Z" fill="url(#paint4_linear_6_1084)"/>
<defs>
<linearGradient id="paint0_linear_6_1084" x1="0" y1="29.61" x2="35.23" y2="29.61" gradientUnits="userSpaceOnUse">
<stop stop-color="#076653"/>
<stop offset="1" stop-color="#06231D"/>
</linearGradient>
<linearGradient id="paint1_linear_6_1084" x1="3.41999" y1="59.11" x2="3.55998" y2="59.11" gradientUnits="userSpaceOnUse">
<stop stop-color="#076653"/>
<stop offset="1" stop-color="#06231D"/>
</linearGradient>
<linearGradient id="paint2_linear_6_1084" x1="3.41999" y1="59.11" x2="4.12" y2="59.11" gradientUnits="userSpaceOnUse">
<stop stop-color="#076653"/>
<stop offset="1" stop-color="#06231D"/>
</linearGradient>
<linearGradient id="paint3_linear_6_1084" x1="12.58" y1="5.51002" x2="22.82" y2="5.51002" gradientUnits="userSpaceOnUse">
<stop stop-color="#076653"/>
<stop offset="1" stop-color="#06231D"/>
</linearGradient>
<linearGradient id="paint4_linear_6_1084" x1="12.58" y1="5.51002" x2="22.82" y2="5.51002" gradientUnits="userSpaceOnUse">
<stop stop-color="#076653"/>
<stop offset="1" stop-color="#06231D"/>
</linearGradient>
</defs>
</svg>
