<svg width="61" height="61" viewBox="0 0 61 61" fill="none" xmlns="http://www.w3.org/2000/svg">
<path d="M45.51 37.96C46.96 37.01 48.28 36.15 49.61 35.28C51.06 34.33 52.47 33.34 53.95 32.45C55.72 31.39 57.94 31.8299 59.23 33.4099C60.49 34.9599 60.48 37.22 59.16 38.73C58.83 39.11 58.42 39.43 57.99 39.71C54.01 42.33 50.03 44.94 46.04 47.54C45.64 47.8 45.49 48.07 45.49 48.55C45.52 50.99 45.51 53.4299 45.5 55.8699C45.5 58.7999 43.41 60.8899 40.47 60.8899C28.61 60.8899 16.74 60.8899 4.88 60.8899C2.12 60.8899 0 58.78 0 56C0 40.01 0 24.03 0 8.04004C0 5.39004 2.06997 3.32003 4.71997 3.28003C6.13997 3.26003 7.54999 3.28003 9.04999 3.28003C9.04999 2.49003 9.04999 1.74 9.04999 1C9.04999 0.38 9.38 -0.0399902 9.87 0.0100098C10.42 0.0700098 10.66 0.419971 10.65 0.969971C10.64 1.71997 10.65 2.47 10.65 3.25C10.82 3.26 10.92 3.28003 11.03 3.28003C13.13 3.28003 15.24 3.28003 17.44 3.28003C17.44 2.50003 17.44 1.76001 17.44 1.01001C17.44 0.38001 17.76 0 18.25 0C18.74 0 19.03 0.37002 19.04 1.02002C19.04 1.75002 19.04 2.46999 19.04 3.23999H25.69C25.69 2.52999 25.69 1.80984 25.69 1.08984C25.69 0.379844 25.96 0.0300195 26.49 0.0200195C27 0.0200195 27.28 0.389844 27.29 1.08984C27.29 1.78984 27.29 2.49999 27.29 3.23999H34.08C34.08 2.53999 34.08 1.81985 34.08 1.09985C34.08 0.389854 34.35 0.0300195 34.87 0.0200195C35.39 0.0200195 35.67 0.379834 35.68 1.07983C35.68 1.78983 35.68 2.49003 35.68 3.28003C36.38 3.28003 37.04 3.28003 37.7 3.28003C38.7 3.28003 39.7 3.28003 40.69 3.28003C43.45 3.31003 45.52 5.36989 45.52 8.13989C45.52 17.6699 45.52 27.21 45.52 36.74C45.52 37.09 45.52 37.45 45.52 37.97L45.51 37.96ZM9.04999 4.86987C7.64999 4.86987 6.32 4.86987 5 4.86987C2.89 4.86987 1.59998 6.16002 1.59998 8.27002C1.59998 24.1 1.59998 39.93 1.59998 55.76C1.59998 57.97 2.90999 59.29 5.10999 59.29C10.61 59.29 16.11 59.29 21.61 59.29C27.89 59.29 34.16 59.29 40.44 59.29C42.57 59.29 43.92 57.92 43.92 55.79C43.92 54.84 43.92 53.8799 43.92 52.9299C43.92 51.6499 43.92 50.38 43.92 49C43.66 49.15 43.49 49.2399 43.34 49.3499C41.19 50.7599 39.05 52.1698 36.89 53.5698C36.61 53.7498 36.25 53.9099 35.91 53.9199C33.81 53.9999 31.7 54.0599 29.59 54.0999C28.72 54.1199 28.38 53.56 28.76 52.78C29.01 52.27 29.28 51.7699 29.59 51.1799C29.26 51.1799 29.02 51.1799 28.78 51.1799C25.92 51.1799 23.06 51.1799 20.2 51.1799C20 51.1799 19.74 51.2499 19.61 51.1499C19.34 50.9399 18.97 50.6299 18.97 50.3699C18.97 50.1099 19.36 49.8199 19.63 49.6099C19.76 49.5099 20.02 49.5798 20.22 49.5798C23.35 49.5798 26.47 49.5798 29.6 49.5798C30.2533 49.5798 30.6867 49.2267 30.9 48.52C29.03 48.52 27.17 48.52 25.31 48.52C23.49 48.52 21.67 48.52 19.85 48.52C19.12 48.52 18.66 47.9199 19.02 47.4199C19.21 47.1599 19.66 46.95 20 46.95C23.35 46.92 26.7 46.88 30.05 46.95C31.33 46.9799 32.41 46.7199 33.43 45.9299C34.37 45.1999 35.42 44.6 36.43 43.96C36.84 43.7 37.25 43.7399 37.53 44.1699C37.8 44.5899 37.68 44.97 37.3 45.28C37.16 45.39 37 45.4798 36.86 45.5698C35.77 46.2898 34.69 47 33.56 47.75C33.89 48.26 34.19 48.72 34.52 49.22C41.24 44.81 47.92 40.41 54.64 36C54.27 35.46 53.96 35.0198 53.65 34.5598C53 34.9898 52.4 35.37 51.81 35.76C48.53 37.91 45.26 40.06 41.98 42.21C41.44 42.57 40.93 42.5098 40.7 42.0898C40.41 41.5498 40.62 41.1699 41.11 40.8699C41.9 40.3799 42.66 39.8399 43.45 39.3499C43.79 39.1399 43.92 38.92 43.92 38.51C43.91 28.4 43.92 18.2899 43.91 8.17993C43.91 6.26993 42.57 4.9199 40.65 4.8999C39.63 4.8899 38.61 4.8999 37.59 4.8999C36.96 4.8999 36.32 4.8999 35.66 4.8999C35.66 5.1499 35.67 5.29996 35.66 5.45996C35.57 6.25996 35.68 6.82981 36.54 7.30981C37.9 8.06981 38.21 9.87998 37.44 11.23C36.71 12.52 35.1 13.06 33.69 12.49C32.29 11.93 31.52 10.3599 31.94 8.88989C32.25 7.80989 33.01 7.13981 34.01 6.80981V4.93994H27.28C27.28 5.25994 27.31 5.54983 27.28 5.82983C27.21 6.44983 27.35 6.8299 28 7.1499C29.32 7.7899 29.83 9.40005 29.29 10.8C28.76 12.18 27.29 12.9699 25.86 12.6499C24.58 12.3599 23.7 11.3798 23.53 10.0698C23.37 8.83982 24.01 7.66005 25.15 7.05005C25.36 6.94005 25.64 6.74982 25.67 6.56982C25.74 6.02982 25.69 5.48994 25.69 4.93994H19.04C19.04 5.27994 19.07 5.57988 19.04 5.87988C18.97 6.47988 19.14 6.83991 19.73 7.15991C21.37 8.03991 21.71 10.2999 20.49 11.6799C19.65 12.6299 18.39 12.97 17.23 12.55C16.06 12.14 15.28 11.0898 15.21 9.83984C15.14 8.63984 15.85 7.50996 16.99 6.95996C17.17 6.86996 17.41 6.67 17.43 6.5C17.49 5.98 17.45 5.44994 17.45 4.93994H10.67C10.67 5.27994 10.69 5.56985 10.67 5.84985C10.62 6.42985 10.72 6.81987 11.36 7.11987C12.61 7.70987 13.13 9.14002 12.78 10.52C12.47 11.72 11.29 12.65 9.98999 12.72C8.69999 12.78 7.45997 11.9299 7.02997 10.6699C6.59997 9.41992 7.03999 7.88 8.23999 7.25C9.02999 6.83 9.15001 6.31984 9.07001 5.58984C9.05001 5.38984 9.07001 5.18989 9.07001 4.88989L9.04999 4.86987ZM55.5 37.3298C48.77 41.7498 42.09 46.13 35.39 50.53C35.74 51.06 36.05 51.51 36.37 51.99C43.09 47.58 49.76 43.2 56.48 38.79C56.14 38.28 55.84 37.8198 55.5 37.3298ZM57.77 37.8599C58.71 36.8699 58.82 35.55 58.09 34.54C57.38 33.56 56.15 33.23 55.08 33.76C55.97 35.11 56.85 36.4599 57.77 37.8599ZM32.51 49.0798C31.9 50.2298 31.34 51.2899 30.79 52.3499H34.63C34.5 52.0999 34.43 51.94 34.34 51.79C33.75 50.91 33.16 50.0398 32.51 49.0798ZM19.57 9.65991C19.57 8.87991 18.95 8.28004 18.17 8.29004C17.4 8.29004 16.78 8.89992 16.77 9.66992C16.76 10.4399 17.45 11.1199 18.21 11.0999C18.97 11.0799 19.57 10.4399 19.57 9.65991ZM34.84 8.29004C34.03 8.29004 33.39 8.92996 33.41 9.70996C33.43 10.46 34.09 11.0998 34.84 11.0898C35.6 11.0898 36.21 10.4499 36.22 9.67993C36.22 8.88993 35.64 8.29004 34.84 8.29004ZM9.87 8.29004C9.08 8.29004 8.47001 8.8799 8.45001 9.6499C8.43001 10.4499 9.08 11.1098 9.87 11.0898C10.63 11.0698 11.26 10.4399 11.27 9.67993C11.27 8.92993 10.63 8.29004 9.87 8.29004ZM25.11 9.68994C25.11 10.4699 25.73 11.0798 26.5 11.0898C27.27 11.0898 27.95 10.4099 27.92 9.63989C27.9 8.88989 27.24 8.27004 26.48 8.29004C25.68 8.31004 25.1 8.89994 25.11 9.68994Z" fill="url(#paint0_linear_6_1091)"/>
<path d="M10.38 28.04C7.40004 28.04 5.00002 25.6299 4.99002 22.6099C4.98002 19.6899 7.43003 17.24 10.37 17.23C13.37 17.23 15.82 19.6399 15.83 22.5999C15.83 25.6299 13.42 28.04 10.38 28.04ZM10.36 26.45C12.5 26.45 14.21 24.7799 14.23 22.6499C14.24 20.5699 12.54 18.8498 10.45 18.8298C8.31004 18.8198 6.59 20.5099 6.59 22.6299C6.59 24.7299 8.28003 26.44 10.37 26.45H10.36Z" fill="url(#paint1_linear_6_1091)"/>
<path d="M10.36 54.6498C7.37999 54.6398 4.97998 52.2198 4.97998 49.1998C4.97998 46.2398 7.45 43.8197 10.44 43.8397C13.39 43.8597 15.82 46.2899 15.82 49.2299C15.82 52.2599 13.4 54.6598 10.35 54.6498H10.36ZM10.38 53.0597C12.52 53.0597 14.23 51.3699 14.23 49.2399C14.23 47.1599 12.52 45.4498 10.43 45.4398C8.29999 45.4398 6.58002 47.1399 6.58002 49.2599C6.58002 51.3599 8.28 53.0597 10.37 53.0597H10.38Z" fill="url(#paint2_linear_6_1091)"/>
<path d="M10.42 41.3499C7.45998 41.3699 5.02998 39 4.97998 36.05C4.93998 33.03 7.35998 30.55 10.35 30.54C13.38 30.54 15.8 32.93 15.82 35.95C15.84 38.91 13.41 41.3299 10.41 41.3499H10.42ZM10.39 39.75C12.53 39.75 14.23 38.0599 14.23 35.9299C14.23 33.8599 12.51 32.1499 10.42 32.1399C8.29998 32.1299 6.57997 33.85 6.58997 35.97C6.59997 38.08 8.29002 39.76 10.39 39.76V39.75Z" fill="url(#paint3_linear_6_1091)"/>
<path d="M29.74 20.3001C32.91 20.3001 36.08 20.3001 39.25 20.3001C39.45 20.3001 39.71 20.2299 39.83 20.3399C40.08 20.5399 40.4 20.84 40.41 21.1C40.41 21.36 40.09 21.67 39.85 21.86C39.71 21.97 39.42 21.9 39.2 21.9C32.88 21.9 26.56 21.9 20.24 21.9C20.04 21.9 19.84 21.91 19.64 21.89C19.17 21.83 18.86 21.4999 18.95 21.0899C19.01 20.7999 19.37 20.5399 19.64 20.3399C19.77 20.2399 20.03 20.3099 20.23 20.3099C23.4 20.3099 26.57 20.3099 29.74 20.3099V20.3001Z" fill="url(#paint4_linear_6_1091)"/>
<path d="M29.68 35.1998C26.44 35.1998 23.21 35.2098 19.97 35.1798C19.65 35.1798 19.27 34.9599 19.05 34.7199C18.93 34.5899 18.99 34.1398 19.12 33.9598C19.26 33.7698 19.59 33.6498 19.85 33.6298C20.38 33.5798 20.91 33.6097 21.44 33.6097C27.32 33.6097 33.19 33.6097 39.07 33.6097C39.29 33.6097 39.52 33.5898 39.73 33.6198C40.19 33.6798 40.45 33.9398 40.45 34.4098C40.45 34.8898 40.16 35.1298 39.71 35.1898C39.54 35.2098 39.36 35.1898 39.18 35.1898C36.01 35.1898 32.84 35.1898 29.67 35.1898L29.68 35.1998Z" fill="url(#paint5_linear_6_1091)"/>
<path d="M25.08 22.96C26.74 22.96 28.4 22.96 30.07 22.96C30.7999 22.96 31.14 23.2201 31.14 23.7501C31.14 24.2801 30.79 24.5501 30.08 24.5501C26.69 24.5501 23.2999 24.5601 19.9099 24.5301C19.5999 24.5301 19.21 24.2801 19.02 24.0201C18.9 23.8601 19.0199 23.41 19.1899 23.21C19.3399 23.03 19.7 22.96 19.96 22.96C21.67 22.94 23.37 22.95 25.08 22.95V22.96Z" fill="url(#paint6_linear_6_1091)"/>
<path d="M25.02 37.8599C23.36 37.8599 21.7 37.8599 20.03 37.8599C19.33 37.8599 18.93 37.5798 18.91 37.0898C18.89 36.5798 19.31 36.26 20.04 36.26C23.39 36.26 26.73 36.26 30.08 36.26C30.79 36.26 31.14 36.5298 31.14 37.0598C31.14 37.5998 30.8 37.8499 30.07 37.8499C28.39 37.8499 26.7 37.8499 25.02 37.8499V37.8599Z" fill="url(#paint7_linear_6_1091)"/>
<path d="M3.06006 16.8398C3.06006 15.6398 3.06006 14.45 3.06006 13.25C3.06006 12.6 3.36005 12.24 3.86005 12.24C4.36005 12.24 4.65003 12.6 4.66003 13.25C4.66003 15.66 4.66003 18.08 4.66003 20.49C4.66003 21.19 4.37008 21.56 3.83008 21.52C3.20008 21.47 3.06006 21.04 3.06006 20.49C3.06006 19.27 3.06006 18.0498 3.06006 16.8398Z" fill="url(#paint8_linear_6_1091)"/>
<path d="M4.65999 10.2201C4.65999 10.2201 4.68003 10.47 4.63003 10.66C4.52003 11.18 3.93 11.4601 3.48 11.2101C2.95 10.9101 3.00004 10.38 3.08004 9.91002C3.13004 9.58002 3.29 9.1501 3.54 8.9901C4.13 8.6001 4.64999 9.13009 4.65999 10.2301V10.2201Z" fill="url(#paint9_linear_6_1091)"/>
<path d="M9.79006 22.7099C10.4401 22.0899 10.9701 21.5898 11.5001 21.0998C11.9901 20.6398 12.4301 20.5999 12.7701 20.9899C13.1901 21.4699 13.0001 21.8799 12.6001 22.2599C11.9001 22.9099 11.2101 23.5699 10.5301 24.2299C10.0801 24.6599 9.6501 24.6799 9.2001 24.2299C8.8301 23.8499 8.44009 23.4798 8.07009 23.0998C7.70009 22.7198 7.68006 22.2799 8.04006 21.9199C8.39006 21.5699 8.82007 21.6299 9.17007 21.9599C9.39007 22.1699 9.56005 22.4399 9.78005 22.7099H9.79006Z" fill="url(#paint10_linear_6_1091)"/>
<path d="M9.81992 49.3C10.4699 48.68 10.9999 48.1799 11.5299 47.6799C11.9099 47.3199 12.3199 47.1798 12.7599 47.5698C13.1499 47.9198 13.0999 48.3698 12.6199 48.8298C11.9399 49.4998 11.2499 50.15 10.5499 50.8C10.0099 51.3 9.6999 51.29 9.1799 50.8C8.7999 50.43 8.4099 50.0599 8.0499 49.6699C7.7099 49.3099 7.68988 48.89 8.02988 48.54C8.36988 48.18 8.79988 48.21 9.15988 48.54C9.38988 48.75 9.56992 49 9.81992 49.3Z" fill="url(#paint11_linear_6_1091)"/>
<path d="M9.73998 36.0698C10.45 35.3998 11 34.8898 11.54 34.3698C11.93 33.9898 12.34 33.88 12.76 34.27C13.19 34.68 13.06 35.1099 12.68 35.4799C11.95 36.1899 11.22 36.8898 10.48 37.5798C10.07 37.9698 9.64999 37.94 9.24999 37.55C8.86999 37.18 8.48999 36.8099 8.11999 36.4299C7.73999 36.0399 7.66 35.5999 8.07 35.2099C8.45 34.8499 8.88998 34.91 9.23998 35.3C9.42998 35.51 9.57 35.77 9.76 36.05L9.73998 36.0698Z" fill="url(#paint12_linear_6_1091)"/>
<defs>
<linearGradient id="paint0_linear_6_1091" x1="0" y1="30.4399" x2="60.17" y2="30.4399" gradientUnits="userSpaceOnUse">
<stop stop-color="#076653"/>
<stop offset="1" stop-color="#06231D"/>
</linearGradient>
<linearGradient id="paint1_linear_6_1091" x1="4.98002" y1="22.64" x2="15.83" y2="22.64" gradientUnits="userSpaceOnUse">
<stop stop-color="#076653"/>
<stop offset="1" stop-color="#06231D"/>
</linearGradient>
<linearGradient id="paint2_linear_6_1091" x1="4.97998" y1="49.2498" x2="15.83" y2="49.2498" gradientUnits="userSpaceOnUse">
<stop stop-color="#076653"/>
<stop offset="1" stop-color="#06231D"/>
</linearGradient>
<linearGradient id="paint3_linear_6_1091" x1="4.97998" y1="35.9399" x2="15.83" y2="35.9399" gradientUnits="userSpaceOnUse">
<stop stop-color="#076653"/>
<stop offset="1" stop-color="#06231D"/>
</linearGradient>
<linearGradient id="paint4_linear_6_1091" x1="18.94" y1="21.09" x2="40.42" y2="21.09" gradientUnits="userSpaceOnUse">
<stop stop-color="#076653"/>
<stop offset="1" stop-color="#06231D"/>
</linearGradient>
<linearGradient id="paint5_linear_6_1091" x1="18.97" y1="34.3998" x2="40.46" y2="34.3998" gradientUnits="userSpaceOnUse">
<stop stop-color="#076653"/>
<stop offset="1" stop-color="#06231D"/>
</linearGradient>
<linearGradient id="paint6_linear_6_1091" x1="18.98" y1="23.7601" x2="31.14" y2="23.7601" gradientUnits="userSpaceOnUse">
<stop stop-color="#076653"/>
<stop offset="1" stop-color="#06231D"/>
</linearGradient>
<linearGradient id="paint7_linear_6_1091" x1="18.91" y1="37.0599" x2="31.14" y2="37.0599" gradientUnits="userSpaceOnUse">
<stop stop-color="#076653"/>
<stop offset="1" stop-color="#06231D"/>
</linearGradient>
<linearGradient id="paint8_linear_6_1091" x1="3.06006" y1="16.88" x2="4.66003" y2="16.88" gradientUnits="userSpaceOnUse">
<stop stop-color="#076653"/>
<stop offset="1" stop-color="#06231D"/>
</linearGradient>
<linearGradient id="paint9_linear_6_1091" x1="3.03003" y1="10.0801" x2="4.66001" y2="10.0801" gradientUnits="userSpaceOnUse">
<stop stop-color="#076653"/>
<stop offset="1" stop-color="#06231D"/>
</linearGradient>
<linearGradient id="paint10_linear_6_1091" x1="7.79008" y1="22.6399" x2="13.0101" y2="22.6399" gradientUnits="userSpaceOnUse">
<stop stop-color="#076653"/>
<stop offset="1" stop-color="#06231D"/>
</linearGradient>
<linearGradient id="paint11_linear_6_1091" x1="7.78989" y1="49.2599" x2="13.0199" y2="49.2599" gradientUnits="userSpaceOnUse">
<stop stop-color="#076653"/>
<stop offset="1" stop-color="#06231D"/>
</linearGradient>
<linearGradient id="paint12_linear_6_1091" x1="7.79" y1="35.9399" x2="13.03" y2="35.9399" gradientUnits="userSpaceOnUse">
<stop stop-color="#076653"/>
<stop offset="1" stop-color="#06231D"/>
</linearGradient>
</defs>
</svg>
