<svg width="66" height="70" viewBox="0 0 66 70" fill="none" xmlns="http://www.w3.org/2000/svg">
<path d="M13.5145 6.83129C13.9045 4.05129 14.0644 3.96141 18.8044 3.70141C18.9544 3.30141 19.0944 2.85138 19.2744 2.42138C19.9044 0.911381 21.3544 -0.0387845 22.9144 0.00121549C24.5344 0.0512155 26.0244 0.981274 26.4344 2.56127C26.7244 3.69127 27.3044 3.79125 28.2544 3.79125C31.2844 3.78125 31.5044 3.97124 32.3644 7.02123C35.0344 7.02123 37.7544 7.02123 40.4644 7.02123C44.0744 7.02123 45.6845 8.59138 45.7045 12.1714C45.7245 17.0414 45.7844 21.9012 45.6644 26.7612C45.6244 28.2712 46.1645 29.0514 47.4245 29.7214C49.6845 30.9114 51.8344 32.3312 54.1045 33.5212C55.1744 34.0812 55.4845 34.8014 55.4545 35.9414C55.3845 38.7214 55.4744 41.5012 55.4144 44.2812C55.3944 45.2712 55.7344 45.8112 56.5944 46.2812C59.1244 47.6712 61.6344 49.0913 64.0644 50.6313C64.6244 50.9813 65.1545 51.8412 65.1745 52.4912C65.2845 55.8012 65.2944 59.1214 65.1844 62.4314C65.1644 63.0914 64.6744 63.9913 64.1244 64.3413C61.2744 66.1213 58.3444 67.7913 55.3844 69.3813C54.8545 69.6613 53.9044 69.6313 53.3644 69.3513C50.7244 67.9413 48.1844 66.3614 45.5544 64.9414C45.0744 64.6814 44.2044 64.6814 43.7244 64.9414C41.1344 66.3314 38.5944 67.8013 36.0844 69.3113C35.1944 69.8513 34.4844 69.8512 33.5944 69.2913C31.5044 68.0013 29.3045 66.8913 27.2345 65.5713C25.5945 64.5213 23.9144 64.1114 21.9644 64.1413C16.3544 64.2413 10.7344 64.1814 5.12444 64.1714C1.55444 64.1714 0.00444444 62.6413 0.00444444 59.1213C0.00444444 43.5113 -0.00555556 27.9013 0.00444444 12.2913C0.00444444 8.57125 1.55445 7.03124 5.26445 7.02123C7.88445 7.02123 10.5044 7.00121 13.1244 6.99121C13.2244 6.99121 13.3144 6.9213 13.5244 6.8413L13.5145 6.83129ZM23.9845 62.1213C23.9845 58.8513 24.0144 55.8112 23.9644 52.7712C23.9444 51.6712 24.3245 51.0014 25.2945 50.4714C27.8245 49.0814 30.3245 47.6613 32.7645 46.1313C33.2745 45.8113 33.7344 45.0114 33.7544 44.4114C33.8544 41.5314 33.8344 38.6412 33.7844 35.7512C33.7644 34.7212 34.1044 34.0813 35.0244 33.5813C37.5044 32.2313 39.9144 30.7313 42.4044 29.3813C43.2744 28.9113 43.5644 28.3413 43.5544 27.3713C43.5044 22.8813 43.5344 18.3914 43.5344 13.9014C43.5344 10.7547 41.9711 9.18473 38.8444 9.1914C36.6244 9.1914 34.4044 9.1914 32.2544 9.1914C31.7244 11.9914 31.1444 12.4614 28.5544 12.4714C24.8144 12.4714 21.0745 12.4714 17.3245 12.4714C14.5145 12.4714 14.0144 12.0813 13.4144 9.36132C13.2844 9.32132 13.1345 9.22143 12.9845 9.22143C10.2545 9.20143 7.53443 9.18141 4.80443 9.20141C2.80443 9.22141 2.12444 9.90137 2.12444 11.9114C2.12444 27.6814 2.12444 43.4514 2.12444 59.2214C2.12444 61.3914 2.83443 62.1213 4.99443 62.1313C10.0744 62.1513 15.1544 62.1313 20.2244 62.1313C21.3944 62.1313 22.5544 62.1313 23.9744 62.1313L23.9845 62.1213ZM35.8844 36.7812C35.8844 39.6512 35.8345 42.1514 35.9245 44.6614C35.9445 45.1614 36.3944 45.8313 36.8444 46.1013C39.1144 47.5013 41.4244 48.8413 43.7744 50.1013C44.2244 50.3413 45.0145 50.3613 45.4545 50.1213C47.8045 48.8613 50.0944 47.4914 52.3944 46.1414C52.7444 45.9414 53.2545 45.5913 53.2645 45.3113C53.3345 42.5713 53.3044 39.8213 53.3044 36.8113C50.6544 38.3413 48.2844 39.6613 45.9644 41.0613C45.0344 41.6313 44.2944 41.6613 43.3344 41.0713C40.9844 39.6313 38.5644 38.3012 35.8844 36.7712V36.7812ZM63.1045 53.7114C60.4645 55.2314 58.0844 56.5414 55.7744 57.9614C54.7744 58.5714 53.9844 58.5514 52.9944 57.9314C50.6944 56.5114 48.3244 55.2114 45.7144 53.7214C45.7144 56.6914 45.6844 59.3913 45.7544 62.0813C45.7544 62.4213 46.2645 62.8413 46.6344 63.0613C48.8745 64.4013 51.1244 65.7314 53.4344 66.9514C53.9344 67.2214 54.8045 67.2512 55.2945 66.9912C57.6945 65.7112 60.0345 64.3314 62.3545 62.9114C62.7244 62.6914 63.0645 62.1014 63.0745 61.6814C63.1445 59.1314 63.1045 56.5714 63.1045 53.7014V53.7114ZM26.1644 53.7312C26.1644 56.6712 26.1345 59.3214 26.2045 61.9714C26.2045 62.3314 26.6344 62.7912 26.9944 63.0012C29.2844 64.3612 31.5844 65.7214 33.9344 66.9614C34.4344 67.2214 35.2944 67.2314 35.7844 66.9714C38.1344 65.7214 40.4344 64.3612 42.7144 62.9912C43.0644 62.7812 43.4844 62.3114 43.4944 61.9514C43.5644 59.3014 43.5344 56.6514 43.5344 53.7214C40.9744 55.2014 38.6044 56.5014 36.3144 57.9114C35.2744 58.5514 34.4344 58.5414 33.3844 57.9014C31.0944 56.4814 28.7244 55.2012 26.1644 53.7312ZM29.8644 5.82128C28.8344 5.82128 27.8944 5.79128 26.9444 5.82128C25.4844 5.88128 24.2644 5.88123 24.5344 3.76123C24.6644 2.75123 23.7745 1.96143 22.7645 2.22143C22.1145 2.39143 21.1044 3.31123 21.1644 3.77123C21.4744 5.97124 20.1344 5.81127 18.7244 5.81127C15.2544 5.83127 15.7144 5.24123 15.6244 9.01123C15.6044 10.1312 16.1245 10.3513 17.0745 10.3413C20.1145 10.3113 23.1645 10.3413 26.2045 10.3413C28.9845 10.3413 30.1978 8.83462 29.8444 5.82128H29.8644ZM27.2244 51.8513C29.7344 53.3113 32.0145 54.6514 34.3245 55.9514C34.5945 56.1014 35.0945 56.1014 35.3545 55.9514C37.6645 54.6614 39.9544 53.3213 42.4944 51.8513C39.9544 50.3913 37.6645 49.0612 35.3545 47.7712C35.0945 47.6212 34.6144 47.6112 34.3545 47.7512C32.0444 49.0412 29.7544 50.3713 27.2144 51.8413L27.2244 51.8513ZM62.0344 51.8713C59.5244 50.4113 57.2744 49.0913 55.0044 47.8113C54.7244 47.6513 54.2444 47.5814 53.9944 47.7114C51.6444 49.0114 49.3245 50.3713 46.7645 51.8513C49.2745 53.3013 51.5145 54.6313 53.7945 55.8813C54.1245 56.0613 54.7444 56.0213 55.0944 55.8313C57.3344 54.6013 59.5244 53.3013 62.0244 51.8613L62.0344 51.8713ZM36.9744 34.9414C39.4944 36.3914 41.6944 37.6814 43.9144 38.9314C44.2044 39.0914 44.6945 39.2613 44.9245 39.1313C47.3045 37.8113 49.6644 36.4314 52.2444 34.9414C49.7244 33.4814 47.5344 32.1914 45.3044 30.9614C44.9544 30.7714 44.3344 30.7414 44.0044 30.9214C41.7344 32.1614 39.4944 33.4914 36.9744 34.9414Z" fill="url(#paint0_linear_6_1106)"/>
<path d="M25.7245 25.2614C23.3745 25.2614 21.0245 25.3315 18.6845 25.2115C18.0945 25.1815 17.0845 24.6313 17.0345 24.2313C16.9045 23.1613 17.8745 23.0914 18.7145 23.0914C23.4645 23.0914 28.2145 23.0615 32.9545 23.1415C33.5045 23.1415 34.0345 23.8215 34.5745 24.1915C34.0245 24.5515 33.4845 25.1916 32.9245 25.2216C30.5245 25.3416 28.1245 25.2714 25.7245 25.2714V25.2614Z" fill="url(#paint1_linear_6_1106)"/>
<path d="M9.61445 24.3113C10.9844 22.7213 12.0945 21.4314 13.2145 20.1514C13.7345 19.5514 14.3445 18.6913 15.1245 19.5813C15.3945 19.8913 15.1844 20.9814 14.8344 21.4414C13.6044 23.0514 12.2145 24.5413 10.9045 26.0913C10.2245 26.8913 9.53446 27.0612 8.75446 26.2412C7.98446 25.4312 7.12446 24.6813 6.44446 23.8013C6.20446 23.4913 6.36445 22.8613 6.33445 22.3813C6.86445 22.3813 7.53447 22.1614 7.88447 22.4014C8.52447 22.8514 8.96445 23.5713 9.61445 24.3213V24.3113Z" fill="url(#paint2_linear_6_1106)"/>
<path d="M9.63444 35.7312C11.0044 34.1512 12.0944 32.7613 13.3444 31.5312C13.7544 31.1312 14.5644 31.1314 15.1944 30.9514C15.1244 31.5614 15.2644 32.3312 14.9444 32.7412C13.6744 34.3912 12.2544 35.9212 10.9044 37.5112C10.2044 38.3412 9.51442 38.4213 8.74442 37.6313C7.96442 36.8213 7.11443 36.0714 6.43443 35.1914C6.19443 34.8814 6.35442 34.2613 6.33442 33.7812C6.85442 33.7812 7.51442 33.5813 7.86442 33.8213C8.50442 34.2613 8.96443 34.9714 9.62443 35.7214L9.63444 35.7312Z" fill="url(#paint3_linear_6_1106)"/>
<path d="M9.57443 47.2612C10.9544 45.6712 12.0944 44.3512 13.2244 43.0212C13.7744 42.3712 14.4344 41.7012 15.1644 42.5112C15.4244 42.8112 15.1644 43.9013 14.8044 44.3713C13.5844 45.9813 12.1944 47.4612 10.8944 49.0012C10.2144 49.8112 9.54443 49.9713 8.76443 49.1313C8.07443 48.3913 7.24442 47.7614 6.68442 46.9414C6.38442 46.5014 6.49443 45.7714 6.41443 45.1714C7.01443 45.2914 7.70444 45.2713 8.17444 45.5813C8.71444 45.9413 9.05442 46.6112 9.56442 47.2612H9.57443Z" fill="url(#paint4_linear_6_1106)"/>
<path d="M23.3745 36.6614C21.7745 36.6614 20.1745 36.6614 18.5745 36.6614C17.8145 36.6614 16.8745 36.6113 17.0245 35.5913C17.0845 35.1913 17.9845 34.6514 18.5145 34.6314C21.7645 34.5414 25.0245 34.5314 28.2745 34.6314C28.8245 34.6514 29.3645 35.3114 29.9045 35.6814C29.3845 36.0114 28.8745 36.5813 28.3245 36.6213C26.6845 36.7513 25.0245 36.6714 23.3645 36.6614H23.3745Z" fill="url(#paint5_linear_6_1106)"/>
<path d="M21.1844 48.1013C20.1744 48.1013 19.1444 48.2013 18.1544 48.0513C17.7144 47.9813 17.3545 47.4113 16.9545 47.0713C17.3545 46.7313 17.7344 46.1113 18.1444 46.1013C20.2144 46.0013 22.2944 46.0113 24.3644 46.1013C24.7744 46.1213 25.1545 46.7313 25.5445 47.0713C25.1545 47.4113 24.7944 47.9913 24.3644 48.0513C23.3144 48.1913 22.2445 48.1013 21.1745 48.1013H21.1844Z" fill="url(#paint6_linear_6_1106)"/>
<defs>
<linearGradient id="paint0_linear_6_1106" x1="0.00444444" y1="34.8612" x2="65.2644" y2="34.8612" gradientUnits="userSpaceOnUse">
<stop stop-color="#076653"/>
<stop offset="1" stop-color="#06231D"/>
</linearGradient>
<linearGradient id="paint1_linear_6_1106" x1="17.0245" y1="24.1815" x2="34.5745" y2="24.1815" gradientUnits="userSpaceOnUse">
<stop stop-color="#076653"/>
<stop offset="1" stop-color="#06231D"/>
</linearGradient>
<linearGradient id="paint2_linear_6_1106" x1="6.31446" y1="22.9813" x2="15.2545" y2="22.9813" gradientUnits="userSpaceOnUse">
<stop stop-color="#076653"/>
<stop offset="1" stop-color="#06231D"/>
</linearGradient>
<linearGradient id="paint3_linear_6_1106" x1="6.30442" y1="34.5814" x2="15.1944" y2="34.5814" gradientUnits="userSpaceOnUse">
<stop stop-color="#076653"/>
<stop offset="1" stop-color="#06231D"/>
</linearGradient>
<linearGradient id="paint4_linear_6_1106" x1="6.42443" y1="45.9112" x2="15.2744" y2="45.9112" gradientUnits="userSpaceOnUse">
<stop stop-color="#076653"/>
<stop offset="1" stop-color="#06231D"/>
</linearGradient>
<linearGradient id="paint5_linear_6_1106" x1="17.0145" y1="35.6214" x2="29.9145" y2="35.6214" gradientUnits="userSpaceOnUse">
<stop stop-color="#076653"/>
<stop offset="1" stop-color="#06231D"/>
</linearGradient>
<linearGradient id="paint6_linear_6_1106" x1="16.9445" y1="47.0913" x2="25.5445" y2="47.0913" gradientUnits="userSpaceOnUse">
<stop stop-color="#076653"/>
<stop offset="1" stop-color="#06231D"/>
</linearGradient>
</defs>
</svg>
