<svg width="91" height="96" viewBox="0 0 91 96" fill="none" xmlns="http://www.w3.org/2000/svg">
<path d="M11.4895 92.4604C11.3295 92.7004 11.1495 92.9106 10.9495 93.0706C10.7295 93.2506 10.5095 93.4005 10.2695 93.5105C10.0395 93.6305 9.7895 93.7105 9.5495 93.7705C8.6395 93.9705 7.84947 93.8305 7.17947 93.5405C6.69947 93.3305 6.27949 93.0404 5.94949 92.6804C5.60949 92.3104 5.34948 91.8804 5.15948 91.3804C4.96948 90.8704 4.87949 90.3105 4.87949 89.7205C4.87949 89.1305 4.96948 88.5705 5.15948 88.0605C5.33948 87.5605 5.60949 87.1205 5.94949 86.7605C6.28949 86.4005 6.69947 86.1104 7.17947 85.9004C8.02947 85.5404 9.14948 85.4204 10.1895 85.8804C10.6095 86.0704 10.9395 86.3605 11.2095 86.7705L11.5895 87.3506L13.3995 85.8406L13.0295 85.3706C12.4895 84.6806 11.8395 84.1804 11.1095 83.8804C10.4095 83.5904 9.6395 83.4504 8.8295 83.4504C7.9295 83.4504 7.0895 83.6104 6.3295 83.9204C5.5695 84.2404 4.90948 84.6805 4.36948 85.2405C3.82948 85.8005 3.39949 86.4705 3.09949 87.2305C2.79949 87.9905 2.64948 88.8305 2.64948 89.7305C2.64948 90.6305 2.79949 91.4705 3.09949 92.2305C3.39949 93.0005 3.82948 93.6705 4.36948 94.2305C4.91948 94.7905 5.57948 95.2305 6.33948 95.5405C7.08948 95.8505 7.9295 96.0005 8.8295 96.0005C9.7295 96.0005 10.5295 95.8305 11.2895 95.4905C12.0695 95.1405 12.7495 94.5705 13.3295 93.7905L13.6895 93.3005L11.8595 91.9104L11.4995 92.4705L11.4895 92.4604Z" fill="#424242"/>
<path d="M22.1395 83.7104L16.8995 95.7205H19.2995L20.5195 92.8606H25.4095L26.5795 95.7205H29.0495L23.9895 83.7104H22.1395ZM21.4395 90.7205L23.0095 87.0305L24.5295 90.7205H21.4395Z" fill="#424242"/>
<path d="M41.4995 91.8406L35.8495 83.7104H33.6195V95.7305H35.8595V87.6006L41.5095 95.7305H43.7395V83.7104H41.4995V91.8406Z" fill="#424242"/>
<path d="M48.7395 85.8606H52.4195V95.7305H54.6595V85.8606H58.3395V83.7104H48.7395V85.8606Z" fill="#424242"/>
<path d="M73.2895 85.2306C72.7495 84.6706 72.0895 84.2205 71.3195 83.9105C69.7995 83.2805 67.8495 83.2805 66.3295 83.9105C65.5695 84.2305 64.9095 84.6706 64.3695 85.2306C63.8295 85.7906 63.3995 86.4605 63.0995 87.2205C62.7995 87.9805 62.6495 88.8205 62.6495 89.7205C62.6495 90.6205 62.7995 91.4605 63.0995 92.2205C63.3995 92.9905 63.8295 93.6605 64.3695 94.2205C64.9195 94.7805 65.5795 95.2206 66.3395 95.5306C67.0895 95.8406 67.9295 95.9906 68.8295 95.9906C69.7295 95.9906 70.5695 95.8306 71.3195 95.5306C72.0795 95.2206 72.7395 94.7805 73.2895 94.2205C73.8295 93.6605 74.2595 92.9905 74.5595 92.2205C74.8595 91.4605 75.0095 90.6105 75.0095 89.7205C75.0095 88.8305 74.8595 87.9805 74.5595 87.2205C74.2595 86.4605 73.8295 85.7906 73.2895 85.2306ZM67.1695 93.5406C66.6895 93.3306 66.2695 93.0405 65.9395 92.6805C65.5995 92.3105 65.3395 91.8805 65.1495 91.3805C64.9595 90.8705 64.8695 90.3105 64.8695 89.7205C64.8695 89.1305 64.9595 88.5706 65.1495 88.0606C65.3295 87.5606 65.5995 87.1206 65.9395 86.7606C66.2795 86.4006 66.6895 86.1105 67.1695 85.9005C67.6495 85.6905 68.2095 85.5907 68.8195 85.5907C69.4295 85.5907 69.9895 85.7005 70.4695 85.9005C70.9495 86.1105 71.3695 86.4006 71.6995 86.7606C72.0395 87.1206 72.2995 87.5606 72.4895 88.0606C72.6795 88.5706 72.7695 89.1305 72.7695 89.7205C72.7695 90.3105 72.6795 90.8705 72.4895 91.3805C72.3095 91.8805 72.0395 92.3205 71.6995 92.6805C71.3595 93.0405 70.9495 93.3306 70.4695 93.5406C69.5095 93.9606 68.1395 93.9606 67.1695 93.5406Z" fill="#424242"/>
<path d="M88.4795 83.7104V91.8406L82.8295 83.7104H80.5995V95.7305H82.8395V87.6006L88.4895 95.7305H90.7195V83.7104H88.4795Z" fill="#424242"/>
<path d="M0 67.0601L59.9282 27.9337L71.4962 45.6519L29.286 73.2104C19.5059 79.5957 6.3853 76.8402 0 67.0601Z" fill="#424242"/>
<path d="M32.9595 43.2705L89.2995 6.39042L88.6695 5.26053C85.3595 0.000532627 78.4195 -1.5795 73.1595 1.7305L26.3395 32.6206L32.9595 43.2705Z" fill="#424242"/>
</svg>
