<svg width="87" height="65" viewBox="0 0 87 65" fill="none" xmlns="http://www.w3.org/2000/svg">
<path d="M21.98 61.1599C23.2502 61.1599 24.2799 60.1301 24.2799 58.8599C24.2799 57.5896 23.2502 56.5601 21.98 56.5601C20.7097 56.5601 19.6799 57.5896 19.6799 58.8599C19.6799 60.1301 20.7097 61.1599 21.98 61.1599Z" fill="url(#paint0_linear_6_1171)"/>
<path d="M59.37 11.6799C60.8667 11.6799 62.08 10.4667 62.08 8.96997C62.08 7.47328 60.8667 6.26001 59.37 6.26001C57.8733 6.26001 56.6599 7.47328 56.6599 8.96997C56.6599 10.4667 57.8733 11.6799 59.37 11.6799Z" fill="url(#paint1_linear_6_1171)"/>
<path d="M68.5917 61.8123L59.4166 61.2913C58.7273 61.2522 58.1369 61.7792 58.0977 62.4684C58.0586 63.1577 58.5856 63.7482 59.2748 63.7873L68.45 64.3083C69.1392 64.3474 69.7297 63.8204 69.7689 63.1312C69.808 62.4419 69.281 61.8515 68.5917 61.8123Z" fill="url(#paint2_linear_6_1171)"/>
<path d="M70.8417 59.0043L65.0012 58.6727C64.3119 58.6335 63.7214 59.1606 63.6823 59.8498C63.6432 60.539 64.1702 61.1295 64.8594 61.1687L70.7 61.5003C71.3892 61.5394 71.9797 61.0124 72.0189 60.3232C72.058 59.6339 71.531 59.0435 70.8417 59.0043Z" fill="url(#paint3_linear_6_1171)"/>
<path d="M55.5299 16.1499L55.1499 22.9099L78.2699 36.1899L53.7999 46.77L53.4199 53.53L86.0499 39L86.3199 34.28L55.5499 16.1599L55.5299 16.1499ZM85.0299 38.3L54.5499 51.8699L54.7999 47.47L80.46 36.3799V36.25L56.22 22.3301L56.47 17.9299L85.22 34.8599L85.0199 38.3101L85.0299 38.3Z" fill="url(#paint4_linear_6_1171)"/>
<path d="M32.88 17.8101L32.5 24.5701L8.02991 35.1499L31.1499 48.4299L30.7699 55.1899L0 37.0601L0.269897 32.3401L32.8999 17.8101H32.88ZM1.06995 36.48L29.8199 53.4099L30.0699 49.01L5.82996 35.0901V34.96L31.5 23.8699L31.75 19.47L1.2699 33.04L1.06995 36.49V36.48Z" fill="url(#paint5_linear_6_1171)"/>
<path d="M35.76 3.48999L35.71 4.3999L29.4299 7.18994L29.5 5.88989L34.21 3.84985L29.76 1.30005L29.84 0L35.76 3.48999Z" fill="url(#paint6_linear_6_1171)"/>
<path d="M48.93 12.46C46.02 11.77 43.09 13.57 42.4 16.49L34.29 50.6099C33.6 53.5199 35.4 56.4499 38.32 57.1399C41.23 57.8299 44.16 56.0299 44.85 53.1099L52.96 18.99C53.65 16.08 51.85 13.15 48.93 12.46ZM42.82 52.6199C42.39 54.4199 40.59 55.5199 38.8 55.0999C37 54.6699 35.9 52.8701 36.32 51.0801L44.43 16.96C44.86 15.16 46.66 14.06 48.45 14.48C49.35 14.69 50.07 15.25 50.52 15.98C50.96 16.71 51.14 17.6101 50.92 18.5001L42.81 52.6199H42.82Z" fill="url(#paint7_linear_6_1171)"/>
<defs>
<linearGradient id="paint0_linear_6_1171" x1="130.336" y1="56.221" x2="11.3727" y2="59.2716" gradientUnits="userSpaceOnUse">
<stop stop-color="#076653"/>
<stop offset="1" stop-color="#06231D"/>
</linearGradient>
<linearGradient id="paint1_linear_6_1171" x1="96.5976" y1="8.16082" x2="-22.3676" y2="11.2114" gradientUnits="userSpaceOnUse">
<stop stop-color="#076653"/>
<stop offset="1" stop-color="#06231D"/>
</linearGradient>
<linearGradient id="paint2_linear_6_1171" x1="130.432" y1="61.0871" x2="11.4783" y2="64.1381" gradientUnits="userSpaceOnUse">
<stop stop-color="#076653"/>
<stop offset="1" stop-color="#06231D"/>
</linearGradient>
<linearGradient id="paint3_linear_6_1171" x1="130.367" y1="58.4881" x2="11.4126" y2="61.5391" gradientUnits="userSpaceOnUse">
<stop stop-color="#076653"/>
<stop offset="1" stop-color="#06231D"/>
</linearGradient>
<linearGradient id="paint4_linear_6_1171" x1="129.74" y1="33.0398" x2="10.7858" y2="36.0908" gradientUnits="userSpaceOnUse">
<stop stop-color="#076653"/>
<stop offset="1" stop-color="#06231D"/>
</linearGradient>
<linearGradient id="paint5_linear_6_1171" x1="129.528" y1="34.1295" x2="10.5638" y2="37.18" gradientUnits="userSpaceOnUse">
<stop stop-color="#076653"/>
<stop offset="1" stop-color="#06231D"/>
</linearGradient>
<linearGradient id="paint6_linear_6_1171" x1="94.3396" y1="2.073" x2="-24.6162" y2="5.12415" gradientUnits="userSpaceOnUse">
<stop stop-color="#076653"/>
<stop offset="1" stop-color="#06231D"/>
</linearGradient>
<linearGradient id="paint7_linear_6_1171" x1="129.729" y1="32.7186" x2="10.774" y2="35.7697" gradientUnits="userSpaceOnUse">
<stop stop-color="#076653"/>
<stop offset="1" stop-color="#06231D"/>
</linearGradient>
</defs>
</svg>
