<svg width="429" height="361" viewBox="0 0 429 361" fill="none" xmlns="http://www.w3.org/2000/svg">
<path d="M157.777 254.151C169.257 243.065 192.7 264.055 206.329 278.382C212.587 284.955 216.784 290.132 216.784 290.132C218.878 292.135 220.667 293.958 222.187 295.601C223.019 296.502 223.751 297.334 224.393 298.122L205.181 305.73C199.182 302.151 192.711 298.201 188.491 295.399C170.517 283.446 146.928 264.629 157.777 254.151Z" fill="#BED0D8"/>
<path d="M176.099 268.478C176.426 268.073 176.988 268.005 177.394 268.32C178.643 269.3 203.515 288.759 217.021 301.049L215.108 301.803C201.343 289.4 176.561 270.009 176.257 269.772C175.852 269.457 175.784 268.883 176.099 268.478Z" fill="#8EAAB3"/>
<path d="M210.549 267.037C211.63 269.727 212.508 272.124 213.205 274.263C213.746 275.906 214.162 277.358 214.477 278.652L199.284 284.673C194.444 277.808 186.701 266.688 182.616 260.138C171.204 241.816 157.507 214.929 171.721 209.887C186.769 204.541 199.419 233.353 205.89 252.035C208.873 260.611 210.538 267.06 210.538 267.06L210.549 267.037Z" fill="#D4DEE2"/>
<path d="M206.273 281.893C200.004 266.115 182.289 232.103 182.098 231.732C181.862 231.282 182.042 230.719 182.492 230.483C182.953 230.246 183.505 230.426 183.741 230.877C184.54 232.407 201.737 265.439 208.006 281.207L206.284 281.882L206.273 281.893Z" fill="#BED0D8"/>
<path d="M361.799 95.8563C361.799 95.8563 429.652 74.2138 421.29 48.7111C412.073 20.5973 374.1 63.0831 361.799 95.8563Z" fill="#BED0D8"/>
<path d="M355.046 102.474C370.341 84.9056 395.326 64.141 395.63 63.8822C395.866 63.6796 396.226 63.7134 396.429 63.961C396.632 64.1973 396.598 64.5574 396.35 64.76C396.035 65.0189 370.892 85.9298 355.71 103.431L355.046 102.485V102.474Z" fill="#8EAAB3"/>
<path d="M368.169 75.8344C368.169 75.8344 366.199 -7.30264 399.648 0.519244C425.207 6.49539 402.169 53.3817 368.169 75.8344Z" fill="#D4DEE2"/>
<path d="M354.472 105.771C367.426 76.7911 388.866 29.7923 389.125 29.2295C389.249 28.9482 389.586 28.8131 389.868 28.9482C390.149 29.072 390.273 29.4096 390.149 29.691C389.89 30.2537 368.146 77.9278 355.226 106.841L354.472 105.76V105.771Z" fill="#BED0D8"/>
<path d="M366.098 301.656C380.155 282.04 393.356 259.238 400.649 244.056C410.182 224.225 413.705 208.491 411.105 197.293C410.936 196.55 410.193 196.089 409.45 196.258C408.708 196.427 408.246 197.169 408.415 197.912C412.951 217.495 397.183 254.466 362.677 301.611L366.098 301.656Z" fill="#BED0D8"/>
<path d="M407.672 225.677C407.672 225.677 417.486 231.743 427.469 214.062C427.469 214.062 409.811 209.043 407.672 225.677Z" fill="#D4DEE2"/>
<path d="M403.002 235.052C403.002 235.052 409.597 225.587 392.512 214.636C392.512 214.636 386.525 231.991 403.002 235.052Z" fill="#D4DEE2"/>
<path d="M410.486 206.229C410.486 206.229 419.861 199.51 407.402 183.484C407.402 183.484 395.968 197.845 410.486 206.229Z" fill="#D4DEE2"/>
<path d="M394.178 254.219C394.178 254.219 401.37 263.245 416.743 249.987C416.743 249.987 401.82 239.295 394.178 254.219Z" fill="#D4DEE2"/>
<path d="M387.966 263.053C387.966 263.053 396.103 254.871 381.157 241.13C381.157 241.13 372.254 257.178 387.966 263.053Z" fill="#D4DEE2"/>
<path d="M380.673 275.985C380.673 275.985 387.684 285.146 403.305 272.181C403.305 272.181 388.596 261.208 380.673 275.985Z" fill="#D4DEE2"/>
<path d="M375.023 285.979C375.023 285.979 363.633 284.156 367.629 264.246C367.629 264.246 384.274 271.989 375.023 285.979Z" fill="#D4DEE2"/>
<g opacity="0.31">
<path d="M204.911 360.259C318.08 360.259 409.822 354.424 409.822 347.226C409.822 340.028 318.08 334.193 204.911 334.193C91.7418 334.193 0 340.028 0 347.226C0 354.424 91.7418 360.259 204.911 360.259Z" fill="#BED0D8"/>
</g>
<path d="M379.648 33.1348V327.789C379.648 337.029 372.164 344.513 362.924 344.513H216.188C211.551 344.513 207.353 342.623 204.326 339.573C201.321 336.545 199.475 332.381 199.475 327.789V33.1348C199.475 23.8949 206.959 16.4106 216.199 16.4106H362.936C365.67 16.4106 368.248 17.0634 370.521 18.2226C375.946 20.9912 379.66 26.6185 379.66 33.1236L379.648 33.1348Z" fill="#1C1A12"/>
<path d="M197.641 96.0026H199.047C199.284 96.0026 199.475 96.1939 199.475 96.4302V134.493C199.475 134.729 199.284 134.921 199.047 134.921H197.641C195.277 134.921 193.364 133.007 193.364 130.644V100.268C193.364 97.9045 195.277 95.9913 197.641 95.9913V96.0026Z" fill="#595959"/>
<path d="M381.359 134.932H379.952C379.716 134.932 379.525 134.741 379.525 134.504V96.4415C379.525 96.2051 379.716 96.0138 379.952 96.0138H381.359C383.723 96.0138 385.636 97.927 385.636 100.29V130.666C385.636 133.03 383.723 134.943 381.359 134.943V134.932Z" fill="#595959"/>
<path d="M197.641 140.21H199.047C199.284 140.21 199.475 140.402 199.475 140.638V178.701C199.475 178.937 199.284 179.128 199.047 179.128H197.641C195.277 179.128 193.364 177.215 193.364 174.852V144.476C193.364 142.112 195.277 140.199 197.641 140.199V140.21Z" fill="#595959"/>
<path d="M371.32 33.8551V327.058C371.32 332.088 367.235 336.163 362.215 336.163H216.931C213.352 336.163 210.246 334.092 208.76 331.076V331.053C208.163 329.849 207.837 328.498 207.837 327.058V33.8551C207.837 28.8244 211.922 24.7502 216.942 24.7502H362.227C363.802 24.7502 365.288 25.1554 366.582 25.8532C366.582 25.8532 366.582 25.8532 366.604 25.8532C369.418 27.4063 371.331 30.4112 371.331 33.8439L371.32 33.8551Z" fill="#D4DEE2"/>
<path d="M272.303 280.115H267.463C267.115 280.115 266.811 280.351 266.721 280.689L266.012 283.278H221.511C221.286 283.278 221.084 283.379 220.937 283.537C220.791 283.705 220.724 283.93 220.757 284.144L221.466 289.265C221.455 289.321 221.444 289.389 221.444 289.456C221.444 289.603 221.478 289.726 221.545 289.85L222.445 296.322L222.659 297.852L223.503 303.952L223.717 305.483L224.471 310.874C224.528 311.256 224.843 311.538 225.225 311.538H258.156L257.087 315.387C256.58 317.187 254.926 318.448 253.058 318.448H229.615C229.209 318.448 228.861 318.741 228.816 319.146C228.77 319.607 229.131 319.99 229.581 319.99H232.496C231.663 320.53 231.111 321.464 231.111 322.533C231.111 324.199 232.462 325.55 234.128 325.55C235.793 325.55 237.144 324.199 237.144 322.533C237.144 321.464 236.592 320.53 235.76 319.99H248.972C248.14 320.53 247.588 321.464 247.588 322.533C247.588 324.199 248.939 325.55 250.604 325.55C252.27 325.55 253.62 324.199 253.62 322.533C253.62 321.464 253.069 320.53 252.236 319.99H253.058C255.613 319.99 257.886 318.268 258.572 315.803L259.889 311.076C259.9 311.043 259.912 311.009 259.923 310.975L261.454 305.483L261.881 303.952L263.581 297.852L264.008 296.322L265.764 290.019L265.978 289.243L267.373 284.246C267.373 284.223 267.385 284.201 267.385 284.178L268.071 281.668H272.325C272.753 281.668 273.102 281.319 273.102 280.892C273.102 280.464 272.753 280.115 272.325 280.115H272.303ZM259.675 306.136C259.675 306.136 259.653 306.203 259.642 306.237L258.595 310.007H225.912L225.282 305.483H259.867L259.687 306.124L259.675 306.136ZM260.283 303.952H225.056L224.212 297.852H261.983L260.283 303.952ZM262.399 296.322H223.987L223.143 290.233H264.098L262.399 296.322ZM264.526 288.691H222.929L222.389 284.808H265.607L264.526 288.691Z" fill="#8EAAB3"/>
<path d="M336.656 138.061H239.361C231.28 138.061 224.696 131.488 224.696 123.396C224.696 115.304 231.269 108.731 239.361 108.731H336.656C344.737 108.731 351.321 115.304 351.321 123.396C351.321 131.488 344.737 138.061 336.656 138.061ZM239.361 110.296C232.136 110.296 226.249 116.171 226.249 123.407C226.249 130.644 232.124 136.519 239.361 136.519H336.656C343.882 136.519 349.768 130.644 349.768 123.407C349.768 116.171 343.893 110.296 336.656 110.296H239.361Z" fill="#8EAAB3"/>
<path d="M245.72 129.226L240.048 132.208L241.128 125.895L236.536 121.415L242.884 120.492L245.72 114.741L248.556 120.492L254.903 121.415L250.312 125.895L251.403 132.208L245.72 129.226Z" fill="white"/>
<path d="M274.689 129.226L269.005 132.208L270.097 125.895L265.505 121.415L271.853 120.492L274.689 114.741L277.525 120.492L283.873 121.415L279.281 125.895L280.361 132.208L274.689 129.226Z" fill="white"/>
<path d="M303.658 129.226L297.975 132.208L299.055 125.895L294.463 121.415L300.811 120.492L303.658 114.741L306.494 120.492L312.842 121.415L308.25 125.895L309.33 132.208L303.658 129.226Z" fill="white"/>
<path d="M332.616 129.226L326.944 132.208L328.024 125.895L323.432 121.415L329.78 120.492L332.616 114.741L335.463 120.492L341.811 121.415L337.208 125.895L338.299 132.208L332.616 129.226Z" fill="#8EAAB3"/>
<path d="M358.749 154.65H223.56C221.123 154.65 219.148 156.625 219.148 159.062V202.076C219.148 204.513 221.123 206.488 223.56 206.488H358.749C361.185 206.488 363.161 204.513 363.161 202.076V159.062C363.161 156.625 361.185 154.65 358.749 154.65Z" fill="white"/>
<path d="M268.611 175.02V191.103C268.611 191.103 266.541 191.058 262.151 191.058C261.577 191.058 260.576 190.248 260.126 190.27C257.593 190.36 254.498 191.058 254.498 191.058H226.621C226.733 190.147 227.037 189.28 227.487 188.481C231.303 181.638 245.799 178.554 248.151 175.459C248.961 174.402 249.828 173.4 250.649 172.522C251.46 171.655 252.124 170.811 252.81 170.35C254.082 169.483 256.006 172.905 256.006 172.905C258.955 174.323 263.513 173.704 266.271 173.118C267.486 172.86 268.623 173.783 268.623 175.032L268.611 175.02Z" fill="#4879F0"/>
<path d="M268.611 188.481V191.114C268.611 191.114 266.541 191.069 262.151 191.069C261.577 191.069 260.576 190.259 260.126 190.282C257.593 190.372 254.498 191.069 254.498 191.069H226.621C226.733 190.158 227.037 189.291 227.487 188.492H268.611V188.481Z" fill="#3339C9"/>
<path d="M235.895 181.751C235.895 181.751 237.009 181.21 237.695 180.884C237.763 180.85 238.551 179.894 239.654 180.153C241.162 180.513 242.118 181.649 242.546 182.291C242.715 182.538 243.041 182.606 243.289 182.448C243.548 182.291 243.638 181.942 243.48 181.683C243.03 180.952 242.028 179.612 240.543 179.252C238.99 178.881 237.02 179.297 235.895 181.739V181.751Z" fill="#3339C9"/>
<path d="M238.179 180.67C238.179 180.67 239.293 180.164 239.969 179.826C240.036 179.792 240.835 178.802 241.927 179.061C243.435 179.421 244.392 180.558 244.819 181.199C244.988 181.447 245.315 181.514 245.562 181.357C245.821 181.199 245.911 180.85 245.754 180.591C245.303 179.86 244.302 178.521 242.816 178.161C241.263 177.789 239.293 178.205 238.168 180.648L238.179 180.67Z" fill="#3339C9"/>
<path d="M240.329 179.804C240.329 179.804 241.443 179.263 242.13 178.937C242.197 178.903 242.985 177.947 244.088 178.205C245.596 178.566 246.553 179.702 246.98 180.344C247.149 180.591 247.475 180.659 247.723 180.501C247.982 180.344 248.072 179.995 247.914 179.736C247.464 179.005 246.463 177.665 244.977 177.305C243.424 176.934 241.454 177.361 240.329 179.792V179.804Z" fill="#3339C9"/>
<path d="M242.535 178.734C242.535 178.734 243.649 178.228 244.324 177.89C244.392 177.857 245.191 176.866 246.283 177.125C247.791 177.485 248.747 178.622 249.175 179.263C249.344 179.511 249.67 179.579 249.918 179.421C250.177 179.263 250.267 178.926 250.109 178.656C249.659 177.924 248.657 176.585 247.172 176.225C245.618 175.853 243.649 176.281 242.523 178.712L242.535 178.734Z" fill="#3339C9"/>
<path d="M356.746 164.633H276.467C276.084 164.633 275.769 164.317 275.769 163.935C275.769 163.552 276.084 163.237 276.467 163.237H356.746C357.128 163.237 357.443 163.552 357.443 163.935C357.443 164.317 357.128 164.633 356.746 164.633Z" fill="#D4DEE2"/>
<path d="M356.746 173.028H276.467C276.084 173.028 275.769 172.713 275.769 172.331C275.769 171.948 276.084 171.633 276.467 171.633H356.746C357.128 171.633 357.443 171.948 357.443 172.331C357.443 172.713 357.128 173.028 356.746 173.028Z" fill="#D4DEE2"/>
<path d="M356.746 181.413H276.467C276.084 181.413 275.769 181.098 275.769 180.715C275.769 180.333 276.084 180.017 276.467 180.017H356.746C357.128 180.017 357.443 180.333 357.443 180.715C357.443 181.098 357.128 181.413 356.746 181.413Z" fill="#D4DEE2"/>
<path d="M356.746 189.798H276.467C276.084 189.798 275.769 189.483 275.769 189.1C275.769 188.717 276.084 188.402 276.467 188.402H356.746C357.128 188.402 357.443 188.717 357.443 189.1C357.443 189.483 357.128 189.798 356.746 189.798Z" fill="#D4DEE2"/>
<path d="M356.746 198.182H276.467C276.084 198.182 275.769 197.867 275.769 197.484C275.769 197.102 276.084 196.787 276.467 196.787H356.746C357.128 196.787 357.443 197.102 357.443 197.484C357.443 197.867 357.128 198.182 356.746 198.182Z" fill="#D4DEE2"/>
<path d="M358.749 217.821H223.56C221.123 217.821 219.148 219.797 219.148 222.233V265.248C219.148 267.684 221.123 269.66 223.56 269.66H358.749C361.185 269.66 363.161 267.684 363.161 265.248V222.233C363.161 219.797 361.185 217.821 358.749 217.821Z" fill="white"/>
<path d="M258.021 242.199C257.908 242.232 257.807 242.255 257.717 242.289C257.717 242.503 257.728 242.716 257.74 242.941C257.942 249.48 258.021 256.875 258.055 261.894C250.289 263.436 242.557 263.458 234.848 261.894C234.837 256.852 234.87 249.402 235.017 242.874C235.017 242.593 235.028 242.322 235.039 242.052C235.039 241.962 235.039 241.861 235.039 241.771C235.005 241.771 234.972 241.771 234.938 241.771C234.161 241.737 233.441 241.546 232.811 241.287C232.304 241.073 231.843 240.814 231.46 240.556C231.337 240.465 231.224 240.387 231.111 240.308C230.346 239.734 229.907 239.216 229.907 239.216C230.324 238.125 230.886 236.988 231.483 235.896C231.697 235.502 231.922 235.12 232.147 234.737C233.745 232.025 235.478 229.717 235.996 229.076C236.424 228.468 237.797 227.545 239.372 226.6C239.687 226.409 240.003 226.217 240.329 226.037C240.554 225.902 240.79 225.79 241.038 225.7C241.173 225.643 241.308 225.598 241.443 225.564C241.837 225.463 242.231 225.407 242.636 225.407C242.861 225.407 243.041 225.587 243.041 225.812C243.041 227.883 244.741 229.537 246.811 229.47C248.781 229.402 250.323 227.714 250.323 225.745C250.323 225.564 250.469 225.407 250.649 225.407C250.807 225.407 250.953 225.407 251.099 225.441C251.572 225.497 252.034 225.655 252.45 225.902C252.551 225.958 252.653 226.015 252.743 226.082C254.487 227.118 256.119 228.198 256.614 228.896C257.357 229.807 261.071 235.041 262.815 239.205C261.96 240.409 259.529 241.782 257.998 242.244L258.021 242.199Z" fill="#A0CC3A"/>
<path d="M237.662 238.147L235.005 242.863C235.005 242.593 235.017 242.311 235.028 242.041C235.028 241.951 235.028 241.85 235.028 241.76C235.028 241.76 234.96 241.76 234.927 241.76L237.121 237.854C237.2 237.708 237.391 237.652 237.538 237.742C237.684 237.821 237.74 238.012 237.65 238.158L237.662 238.147Z" fill="#A0CC3A"/>
<path d="M257.717 242.289C257.717 242.503 257.728 242.716 257.74 242.941L255.039 238.147C254.96 238.001 255.005 237.809 255.151 237.731C255.297 237.652 255.489 237.697 255.567 237.843L258.021 242.199C257.908 242.232 257.807 242.255 257.717 242.277V242.289Z" fill="#A0CC3A"/>
<path d="M241.105 226.026C241.105 226.555 240.678 226.971 240.16 226.971C239.834 226.971 239.541 226.803 239.372 226.555C239.687 226.364 240.003 226.172 240.329 225.992C240.554 225.857 240.79 225.745 241.038 225.655C241.083 225.767 241.117 225.891 241.117 226.026H241.105Z" fill="#A0CC3A"/>
<path d="M252.754 226.037C252.754 226.555 252.326 226.971 251.808 226.971C251.291 226.971 250.863 226.544 250.863 226.026C250.863 225.778 250.953 225.564 251.099 225.396C251.572 225.452 252.034 225.61 252.45 225.857C252.551 225.913 252.653 225.97 252.743 226.037H252.754Z" fill="#A0CC3A"/>
<path d="M236.277 231.766C236.799 231.766 237.223 231.342 237.223 230.82C237.223 230.298 236.799 229.875 236.277 229.875C235.755 229.875 235.332 230.298 235.332 230.82C235.332 231.342 235.755 231.766 236.277 231.766Z" fill="#A0CC3A"/>
<path d="M240.16 231.766C240.682 231.766 241.105 231.342 241.105 230.82C241.105 230.298 240.682 229.875 240.16 229.875C239.638 229.875 239.215 230.298 239.215 230.82C239.215 231.342 239.638 231.766 240.16 231.766Z" fill="#A0CC3A"/>
<path d="M244.043 231.766C244.565 231.766 244.988 231.342 244.988 230.82C244.988 230.298 244.565 229.875 244.043 229.875C243.521 229.875 243.097 230.298 243.097 230.82C243.097 231.342 243.521 231.766 244.043 231.766Z" fill="#A0CC3A"/>
<path d="M247.926 231.766C248.448 231.766 248.871 231.342 248.871 230.82C248.871 230.298 248.448 229.875 247.926 229.875C247.404 229.875 246.98 230.298 246.98 230.82C246.98 231.342 247.404 231.766 247.926 231.766Z" fill="#A0CC3A"/>
<path d="M251.808 231.766C252.331 231.766 252.754 231.342 252.754 230.82C252.754 230.298 252.331 229.875 251.808 229.875C251.286 229.875 250.863 230.298 250.863 230.82C250.863 231.342 251.286 231.766 251.808 231.766Z" fill="#A0CC3A"/>
<path d="M255.691 231.766C256.213 231.766 256.637 231.342 256.637 230.82C256.637 230.298 256.213 229.875 255.691 229.875C255.169 229.875 254.746 230.298 254.746 230.82C254.746 231.342 255.169 231.766 255.691 231.766Z" fill="#A0CC3A"/>
<path d="M233.34 235.615C233.34 236.132 232.912 236.56 232.394 236.56C231.956 236.56 231.584 236.268 231.483 235.862C231.697 235.468 231.922 235.086 232.147 234.703C232.226 234.681 232.316 234.669 232.406 234.669C232.923 234.669 233.351 235.097 233.351 235.615H233.34Z" fill="#A0CC3A"/>
<path d="M236.277 236.56C236.799 236.56 237.223 236.137 237.223 235.615C237.223 235.093 236.799 234.669 236.277 234.669C235.755 234.669 235.332 235.093 235.332 235.615C235.332 236.137 235.755 236.56 236.277 236.56Z" fill="#A0CC3A"/>
<path d="M240.16 236.56C240.682 236.56 241.105 236.137 241.105 235.615C241.105 235.093 240.682 234.669 240.16 234.669C239.638 234.669 239.215 235.093 239.215 235.615C239.215 236.137 239.638 236.56 240.16 236.56Z" fill="#A0CC3A"/>
<path d="M244.043 236.56C244.565 236.56 244.988 236.137 244.988 235.615C244.988 235.093 244.565 234.669 244.043 234.669C243.521 234.669 243.097 235.093 243.097 235.615C243.097 236.137 243.521 236.56 244.043 236.56Z" fill="#A0CC3A"/>
<path d="M247.926 236.56C248.448 236.56 248.871 236.137 248.871 235.615C248.871 235.093 248.448 234.669 247.926 234.669C247.404 234.669 246.98 235.093 246.98 235.615C246.98 236.137 247.404 236.56 247.926 236.56Z" fill="#A0CC3A"/>
<path d="M251.808 236.56C252.331 236.56 252.754 236.137 252.754 235.615C252.754 235.093 252.331 234.669 251.808 234.669C251.286 234.669 250.863 235.093 250.863 235.615C250.863 236.137 251.286 236.56 251.808 236.56Z" fill="#A0CC3A"/>
<path d="M255.691 236.56C256.213 236.56 256.637 236.137 256.637 235.615C256.637 235.093 256.213 234.669 255.691 234.669C255.169 234.669 254.746 235.093 254.746 235.615C254.746 236.137 255.169 236.56 255.691 236.56Z" fill="#A0CC3A"/>
<path d="M259.574 236.56C260.096 236.56 260.519 236.137 260.519 235.615C260.519 235.093 260.096 234.669 259.574 234.669C259.052 234.669 258.629 235.093 258.629 235.615C258.629 236.137 259.052 236.56 259.574 236.56Z" fill="#A0CC3A"/>
<path d="M232.811 241.265C233.126 241.107 233.34 240.792 233.34 240.409C233.34 239.892 232.912 239.464 232.394 239.464C231.877 239.464 231.449 239.892 231.449 240.409C231.449 240.443 231.449 240.488 231.449 240.522L232.8 241.253L232.811 241.265Z" fill="#A0CC3A"/>
<path d="M237.223 240.409C237.223 240.927 236.795 241.355 236.277 241.355C235.76 241.355 235.332 240.927 235.332 240.409C235.332 239.892 235.76 239.464 236.277 239.464C236.795 239.464 237.223 239.892 237.223 240.409Z" fill="#A0CC3A"/>
<path d="M241.105 240.409C241.105 240.927 240.678 241.355 240.16 241.355C239.642 241.355 239.215 240.927 239.215 240.409C239.215 239.892 239.642 239.464 240.16 239.464C240.678 239.464 241.105 239.892 241.105 240.409Z" fill="#A0CC3A"/>
<path d="M244.988 240.409C244.988 240.927 244.561 241.355 244.043 241.355C243.525 241.355 243.097 240.927 243.097 240.409C243.097 239.892 243.525 239.464 244.043 239.464C244.561 239.464 244.988 239.892 244.988 240.409Z" fill="#A0CC3A"/>
<path d="M248.871 240.409C248.871 240.927 248.443 241.355 247.926 241.355C247.408 241.355 246.98 240.927 246.98 240.409C246.98 239.892 247.408 239.464 247.926 239.464C248.443 239.464 248.871 239.892 248.871 240.409Z" fill="#A0CC3A"/>
<path d="M252.754 240.409C252.754 240.927 252.326 241.355 251.808 241.355C251.291 241.355 250.863 240.927 250.863 240.409C250.863 239.892 251.291 239.464 251.808 239.464C252.326 239.464 252.754 239.892 252.754 240.409Z" fill="#A0CC3A"/>
<path d="M256.637 240.409C256.637 240.927 256.209 241.355 255.691 241.355C255.174 241.355 254.746 240.927 254.746 240.409C254.746 239.892 255.174 239.464 255.691 239.464C256.209 239.464 256.637 239.892 256.637 240.409Z" fill="#A0CC3A"/>
<path d="M260.519 240.409C260.519 240.927 260.092 241.355 259.574 241.355C259.056 241.355 258.629 240.927 258.629 240.409C258.629 239.892 259.056 239.464 259.574 239.464C260.092 239.464 260.519 239.892 260.519 240.409Z" fill="#A0CC3A"/>
<path d="M236.277 246.149C236.799 246.149 237.223 245.726 237.223 245.204C237.223 244.682 236.799 244.258 236.277 244.258C235.755 244.258 235.332 244.682 235.332 245.204C235.332 245.726 235.755 246.149 236.277 246.149Z" fill="#A0CC3A"/>
<path d="M240.16 246.149C240.682 246.149 241.105 245.726 241.105 245.204C241.105 244.682 240.682 244.258 240.16 244.258C239.638 244.258 239.215 244.682 239.215 245.204C239.215 245.726 239.638 246.149 240.16 246.149Z" fill="#A0CC3A"/>
<path d="M244.043 246.149C244.565 246.149 244.988 245.726 244.988 245.204C244.988 244.682 244.565 244.258 244.043 244.258C243.521 244.258 243.097 244.682 243.097 245.204C243.097 245.726 243.521 246.149 244.043 246.149Z" fill="#A0CC3A"/>
<path d="M247.926 246.149C248.448 246.149 248.871 245.726 248.871 245.204C248.871 244.682 248.448 244.258 247.926 244.258C247.404 244.258 246.98 244.682 246.98 245.204C246.98 245.726 247.404 246.149 247.926 246.149Z" fill="#A0CC3A"/>
<path d="M251.808 246.149C252.331 246.149 252.754 245.726 252.754 245.204C252.754 244.682 252.331 244.258 251.808 244.258C251.286 244.258 250.863 244.682 250.863 245.204C250.863 245.726 251.286 246.149 251.808 246.149Z" fill="#A0CC3A"/>
<path d="M255.691 246.149C256.213 246.149 256.637 245.726 256.637 245.204C256.637 244.682 256.213 244.258 255.691 244.258C255.169 244.258 254.746 244.682 254.746 245.204C254.746 245.726 255.169 246.149 255.691 246.149Z" fill="#A0CC3A"/>
<path d="M236.277 250.943C236.799 250.943 237.223 250.52 237.223 249.998C237.223 249.476 236.799 249.053 236.277 249.053C235.755 249.053 235.332 249.476 235.332 249.998C235.332 250.52 235.755 250.943 236.277 250.943Z" fill="#A0CC3A"/>
<path d="M240.16 250.943C240.682 250.943 241.105 250.52 241.105 249.998C241.105 249.476 240.682 249.053 240.16 249.053C239.638 249.053 239.215 249.476 239.215 249.998C239.215 250.52 239.638 250.943 240.16 250.943Z" fill="#A0CC3A"/>
<path d="M244.043 250.943C244.565 250.943 244.988 250.52 244.988 249.998C244.988 249.476 244.565 249.053 244.043 249.053C243.521 249.053 243.097 249.476 243.097 249.998C243.097 250.52 243.521 250.943 244.043 250.943Z" fill="#A0CC3A"/>
<path d="M247.926 250.943C248.448 250.943 248.871 250.52 248.871 249.998C248.871 249.476 248.448 249.053 247.926 249.053C247.404 249.053 246.98 249.476 246.98 249.998C246.98 250.52 247.404 250.943 247.926 250.943Z" fill="#A0CC3A"/>
<path d="M251.808 250.943C252.331 250.943 252.754 250.52 252.754 249.998C252.754 249.476 252.331 249.053 251.808 249.053C251.286 249.053 250.863 249.476 250.863 249.998C250.863 250.52 251.286 250.943 251.808 250.943Z" fill="#A0CC3A"/>
<path d="M255.691 250.943C256.213 250.943 256.637 250.52 256.637 249.998C256.637 249.476 256.213 249.053 255.691 249.053C255.169 249.053 254.746 249.476 254.746 249.998C254.746 250.52 255.169 250.943 255.691 250.943Z" fill="#A0CC3A"/>
<path d="M236.277 255.738C236.799 255.738 237.223 255.315 237.223 254.792C237.223 254.27 236.799 253.847 236.277 253.847C235.755 253.847 235.332 254.27 235.332 254.792C235.332 255.315 235.755 255.738 236.277 255.738Z" fill="#A0CC3A"/>
<path d="M240.16 255.738C240.682 255.738 241.105 255.315 241.105 254.792C241.105 254.27 240.682 253.847 240.16 253.847C239.638 253.847 239.215 254.27 239.215 254.792C239.215 255.315 239.638 255.738 240.16 255.738Z" fill="#A0CC3A"/>
<path d="M244.043 255.738C244.565 255.738 244.988 255.315 244.988 254.792C244.988 254.27 244.565 253.847 244.043 253.847C243.521 253.847 243.097 254.27 243.097 254.792C243.097 255.315 243.521 255.738 244.043 255.738Z" fill="#A0CC3A"/>
<path d="M247.926 255.738C248.448 255.738 248.871 255.315 248.871 254.792C248.871 254.27 248.448 253.847 247.926 253.847C247.404 253.847 246.98 254.27 246.98 254.792C246.98 255.315 247.404 255.738 247.926 255.738Z" fill="#A0CC3A"/>
<path d="M251.808 255.738C252.331 255.738 252.754 255.315 252.754 254.792C252.754 254.27 252.331 253.847 251.808 253.847C251.286 253.847 250.863 254.27 250.863 254.792C250.863 255.315 251.286 255.738 251.808 255.738Z" fill="#A0CC3A"/>
<path d="M255.691 255.738C256.213 255.738 256.637 255.315 256.637 254.792C256.637 254.27 256.213 253.847 255.691 253.847C255.169 253.847 254.746 254.27 254.746 254.792C254.746 255.315 255.169 255.738 255.691 255.738Z" fill="#A0CC3A"/>
<path d="M236.277 260.532C236.799 260.532 237.223 260.109 237.223 259.587C237.223 259.065 236.799 258.642 236.277 258.642C235.755 258.642 235.332 259.065 235.332 259.587C235.332 260.109 235.755 260.532 236.277 260.532Z" fill="#A0CC3A"/>
<path d="M240.16 260.532C240.682 260.532 241.105 260.109 241.105 259.587C241.105 259.065 240.682 258.642 240.16 258.642C239.638 258.642 239.215 259.065 239.215 259.587C239.215 260.109 239.638 260.532 240.16 260.532Z" fill="#A0CC3A"/>
<path d="M244.043 260.532C244.565 260.532 244.988 260.109 244.988 259.587C244.988 259.065 244.565 258.642 244.043 258.642C243.521 258.642 243.097 259.065 243.097 259.587C243.097 260.109 243.521 260.532 244.043 260.532Z" fill="#A0CC3A"/>
<path d="M247.926 260.532C248.448 260.532 248.871 260.109 248.871 259.587C248.871 259.065 248.448 258.642 247.926 258.642C247.404 258.642 246.98 259.065 246.98 259.587C246.98 260.109 247.404 260.532 247.926 260.532Z" fill="#A0CC3A"/>
<path d="M251.808 260.532C252.331 260.532 252.754 260.109 252.754 259.587C252.754 259.065 252.331 258.642 251.808 258.642C251.286 258.642 250.863 259.065 250.863 259.587C250.863 260.109 251.286 260.532 251.808 260.532Z" fill="#A0CC3A"/>
<path d="M255.691 260.532C256.213 260.532 256.637 260.109 256.637 259.587C256.637 259.065 256.213 258.642 255.691 258.642C255.169 258.642 254.746 259.065 254.746 259.587C254.746 260.109 255.169 260.532 255.691 260.532Z" fill="#A0CC3A"/>
<path d="M356.746 227.433H276.467C276.084 227.433 275.769 227.118 275.769 226.735C275.769 226.352 276.084 226.037 276.467 226.037H356.746C357.128 226.037 357.443 226.352 357.443 226.735C357.443 227.118 357.128 227.433 356.746 227.433Z" fill="#D4DEE2"/>
<path d="M356.746 235.817H276.467C276.084 235.817 275.769 235.502 275.769 235.12C275.769 234.737 276.084 234.422 276.467 234.422H356.746C357.128 234.422 357.443 234.737 357.443 235.12C357.443 235.502 357.128 235.817 356.746 235.817Z" fill="#D4DEE2"/>
<path d="M356.746 244.213H276.467C276.084 244.213 275.769 243.898 275.769 243.515C275.769 243.133 276.084 242.818 276.467 242.818H356.746C357.128 242.818 357.443 243.133 357.443 243.515C357.443 243.898 357.128 244.213 356.746 244.213Z" fill="#D4DEE2"/>
<path d="M356.746 252.598H276.467C276.084 252.598 275.769 252.283 275.769 251.9C275.769 251.517 276.084 251.202 276.467 251.202H356.746C357.128 251.202 357.443 251.517 357.443 251.9C357.443 252.283 357.128 252.598 356.746 252.598Z" fill="#D4DEE2"/>
<path d="M356.746 260.982H276.467C276.084 260.982 275.769 260.667 275.769 260.285C275.769 259.902 276.084 259.587 276.467 259.587H356.746C357.128 259.587 357.443 259.902 357.443 260.285C357.443 260.667 357.128 260.982 356.746 260.982Z" fill="#D4DEE2"/>
<path d="M375.923 130.959L389.744 162.472C390.644 164.52 393.019 165.443 395.067 164.554L426.58 150.733C428.628 149.833 429.551 147.458 428.662 145.41L414.841 113.897C413.941 111.849 411.566 110.926 409.518 111.815L378.005 125.636C375.957 126.536 375.034 128.911 375.923 130.959ZM396.947 124.882C395.686 125.771 393.942 125.073 393.672 123.531C393.537 122.766 393.874 121.955 394.504 121.505C395.765 120.616 397.509 121.314 397.779 122.856C397.915 123.621 397.577 124.431 396.947 124.882Z" fill="#FFB64C"/>
<path d="M387.966 138.927C386.446 135.461 387.808 132.501 390.768 131.207C393.728 129.912 396.834 130.914 398.354 134.369C399.884 137.858 398.511 140.796 395.551 142.09C392.591 143.384 389.496 142.416 387.966 138.927ZM402.371 126.446L407.087 124.375L402.315 149.777L397.599 151.847L402.371 126.446ZM394.381 136.114C393.559 134.245 392.704 133.953 392.085 134.223C391.466 134.493 391.094 135.326 391.916 137.194C392.738 139.062 393.593 139.355 394.212 139.085C394.831 138.815 395.191 137.993 394.369 136.114H394.381ZM406.333 141.865C404.814 138.398 406.175 135.438 409.135 134.144C412.095 132.85 415.202 133.851 416.721 137.307C418.252 140.795 416.878 143.733 413.919 145.027C410.959 146.321 407.864 145.354 406.333 141.865ZM412.748 139.04C411.926 137.172 411.071 136.879 410.452 137.149C409.833 137.419 409.473 138.241 410.295 140.12C411.116 141.989 411.971 142.281 412.59 142.011C413.209 141.741 413.57 140.919 412.748 139.04Z" fill="white"/>
<path d="M398.185 107.505C396.069 97.5107 390.655 86.1323 383.711 77.0612C383.565 76.8699 383.419 76.6898 383.272 76.4985V78.2654C390.487 87.8655 395.349 99.0413 397.194 107.707C397.948 111.286 398.207 114.404 397.971 116.868C397.791 118.759 397.318 120.256 396.575 121.28C396.294 121.674 395.968 122 395.596 122.248C395.045 122.619 394.403 122.822 393.672 122.856C393.615 123.193 393.649 123.542 393.773 123.88C394.662 123.824 395.461 123.554 396.159 123.081C396.62 122.777 397.014 122.372 397.363 121.899C398.308 120.616 398.86 118.748 399.018 116.396C399.186 113.92 398.905 110.915 398.185 107.482V107.505ZM383.272 116.767C372.693 103.667 357.792 65.1427 355.249 58.4462C355.226 58.3899 355.215 58.345 355.192 58.2999C355.418 58.345 355.643 58.3899 355.856 58.4462H359.615C357.961 57.8947 356.25 57.4446 354.483 57.1295C354.303 57.0957 354.123 57.1632 353.999 57.3095C353.887 57.4446 353.853 57.6359 353.909 57.816C353.943 57.9173 354.033 58.1424 354.146 58.4575C356.374 64.3774 372.153 105.67 383.261 118.343C384.297 119.524 385.287 120.459 386.232 121.089C386.525 121.291 386.806 121.471 387.088 121.652L388.236 121.156C387.774 120.886 387.29 120.594 386.806 120.256C385.703 119.513 384.522 118.32 383.272 116.778V116.767Z" fill="#4879F0"/>
<path d="M392.591 71.3551V92.7275H186.735V71.3551C211.551 66.8421 219.463 24.7502 219.463 24.7502H359.852C359.852 24.7502 367.764 66.8533 392.58 71.3551H392.591Z" fill="white"/>
<path d="M392.591 71.3551H186.735V92.7275H392.591V71.3551Z" fill="#BED0D8"/>
<path d="M245.607 24.7502C245.607 24.7502 237.684 66.8533 212.879 71.3551V92.7275H186.735V71.3551C211.551 66.8533 219.463 24.7502 219.463 24.7502H245.607Z" fill="#A0CC3A"/>
<path d="M392.591 71.3551V92.7275H366.447V71.3551C341.631 66.8533 333.719 24.7502 333.719 24.7502H359.863C359.863 24.7502 367.775 66.8533 392.591 71.3551Z" fill="#A0CC3A"/>
<path d="M271.301 71.5127V92.7387H246.811L246.192 71.3664C261.78 59.4141 262.995 24.7615 262.995 24.7615H279.134C279.888 49.814 271.301 71.5127 271.301 71.5127Z" fill="#A0CC3A"/>
<path d="M330.196 71.3551L329.577 92.7275H305.087V71.5015C305.087 71.5015 296.489 49.8028 297.254 24.7502H313.393C313.393 24.7502 314.62 59.4029 330.196 71.3551Z" fill="#A0CC3A"/>
<path d="M212.879 71.3551H186.735V92.7275H212.879V71.3551Z" fill="#A0CC3A"/>
<path d="M392.591 71.3551V92.7275H366.447V71.3551H392.591Z" fill="#A0CC3A"/>
<path d="M271.358 71.3551C271.324 71.4564 271.301 71.5015 271.301 71.5015V92.7275H246.811L246.192 71.3551H271.369H271.358Z" fill="#A0CC3A"/>
<path d="M330.207 71.3551L329.588 92.7275H305.099V71.5015C305.099 71.5015 305.076 71.4564 305.042 71.3551H330.219H330.207Z" fill="#A0CC3A"/>
<path d="M333.606 22.5331H245.528C241.923 22.5331 239.001 25.4556 239.001 29.0607V32.966C239.001 36.5711 241.923 39.4936 245.528 39.4936H333.606C337.211 39.4936 340.134 36.5711 340.134 32.966V29.0607C340.134 25.4556 337.211 22.5331 333.606 22.5331Z" fill="#1C1A12"/>
<path d="M314.068 27.8114H256.67C255.782 27.8114 255.061 28.532 255.061 29.4209V30.3775C255.061 31.2663 255.782 31.9869 256.67 31.9869H314.068C314.957 31.9869 315.678 31.2663 315.678 30.3775V29.4209C315.678 28.532 314.957 27.8114 314.068 27.8114Z" fill="#595959"/>
<path d="M330.444 29.7585C330.444 31.1428 329.318 32.257 327.945 32.257C326.572 32.257 325.447 31.1315 325.447 29.7585C325.447 28.3854 326.572 27.26 327.945 27.26C329.318 27.26 330.444 28.3854 330.444 29.7585Z" fill="#595959"/>
<path d="M357.939 282.625H275.758C275.353 282.625 275.038 282.299 275.038 281.905C275.038 281.511 275.364 281.184 275.758 281.184H357.939C358.344 281.184 358.659 281.511 358.659 281.905C358.659 282.299 358.332 282.625 357.939 282.625Z" fill="#8EAAB3"/>
<path d="M357.939 291.887H275.758C275.353 291.887 275.038 291.561 275.038 291.167C275.038 290.773 275.364 290.447 275.758 290.447H357.939C358.344 290.447 358.659 290.773 358.659 291.167C358.659 291.561 358.332 291.887 357.939 291.887Z" fill="#8EAAB3"/>
<path d="M357.939 301.161H275.758C275.353 301.161 275.038 300.835 275.038 300.441C275.038 300.047 275.364 299.721 275.758 299.721H357.939C358.344 299.721 358.659 300.047 358.659 300.441C358.659 300.835 358.332 301.161 357.939 301.161Z" fill="#8EAAB3"/>
<path d="M357.939 310.423H275.758C275.353 310.423 275.038 310.097 275.038 309.703C275.038 309.309 275.364 308.983 275.758 308.983H357.939C358.344 308.983 358.659 309.309 358.659 309.703C358.659 310.097 358.332 310.423 357.939 310.423Z" fill="#8EAAB3"/>
<path d="M357.939 319.697H275.758C275.353 319.697 275.038 319.371 275.038 318.977C275.038 318.583 275.364 318.257 275.758 318.257H357.939C358.344 318.257 358.659 318.583 358.659 318.977C358.659 319.371 358.332 319.697 357.939 319.697Z" fill="#8EAAB3"/>
<path d="M146.252 176.078C141.503 179.241 130.676 181.818 119.726 183.034C105.612 184.598 91.2629 183.923 89.4171 179.376C89.2145 178.858 89.0232 178.329 88.8431 177.767C88.8431 177.755 88.8431 177.733 88.8319 177.722C88.7081 177.305 88.5843 176.889 88.483 176.461C88.2917 175.685 88.1341 174.885 87.9878 174.064C87.909 173.591 87.8302 173.096 87.774 172.612C86.7836 165.094 87.6614 156.833 87.6614 156.833L141.233 145.635C141.233 145.635 146.511 160.93 147.333 169.933C147.378 170.429 147.412 170.901 147.423 171.352C147.513 173.704 147.198 175.448 146.241 176.09L146.252 176.078Z" fill="#1C1A12"/>
<path d="M145.363 318.459L147.952 330.592L159.386 328.577L157.214 317.12L145.363 318.459Z" fill="#FFAE82"/>
<path d="M189.785 338.886L149.572 348.835C149.134 348.362 148.785 347.631 148.492 346.731C147.4 343.388 147.142 337.693 146.826 334.137C146.793 333.72 146.759 333.338 146.714 332.989C146.646 332.404 146.579 331.908 146.489 331.56C145.802 328.768 148.391 328.633 148.391 328.633C153.444 331.616 156.573 324.492 159.747 325.786C159.747 325.786 161.108 326.326 165.014 328.408C168.919 330.49 174.816 331.042 179.915 331.841C186.499 332.865 188.806 334.936 189.56 336.568C190.156 337.862 189.785 338.886 189.785 338.886Z" fill="#A0CC3A"/>
<path d="M189.785 338.886L149.572 348.835C149.134 348.362 148.785 347.631 148.492 346.731L189.571 336.579C190.167 337.873 189.796 338.897 189.796 338.897L189.785 338.886Z" fill="#A0CC3A"/>
<path d="M160.759 327.35C160.759 327.35 161.041 325.415 162.774 325.583C164.507 325.752 165.002 328.42 165.002 328.42C165.002 328.42 164.642 331.053 160.759 327.35Z" fill="white"/>
<path d="M162.223 335.375C161.851 335.465 161.491 335.24 161.401 334.88C160.411 330.884 162.38 328.104 162.459 327.992C162.684 327.688 163.112 327.62 163.416 327.834C163.719 328.059 163.787 328.476 163.573 328.791C163.506 328.892 161.896 331.199 162.729 334.553C162.819 334.925 162.594 335.285 162.234 335.375H162.223Z" fill="white"/>
<path d="M169.302 328.104C169.144 328.138 168.975 328.127 168.818 328.048C167.794 327.508 165.284 327.981 163.945 328.408C163.584 328.521 163.202 328.318 163.089 327.958C162.977 327.598 163.179 327.215 163.539 327.103C163.944 326.968 167.591 325.865 169.459 326.844C169.797 327.024 169.921 327.429 169.752 327.767C169.662 327.947 169.493 328.071 169.313 328.116L169.302 328.104Z" fill="white"/>
<path d="M163.179 326.889C163.112 326.844 162.943 326.754 162.718 326.63C162.459 326.484 162.11 326.304 161.705 326.112C161.626 326.067 161.547 326.034 161.457 326C160.568 325.595 159.443 325.156 158.317 324.919C157.428 324.739 156.539 324.683 155.762 324.886C155.751 324.886 155.729 324.886 155.706 324.897C154.873 325.111 154.254 325.583 153.849 326.292C153.444 327.001 153.444 327.778 153.827 328.442C153.849 328.476 153.872 328.521 153.894 328.555C154.187 328.993 154.626 329.354 155.188 329.613C156.1 330.04 157.316 330.198 158.655 330.063C159.949 329.928 160.928 329.748 161.66 329.579C161.75 329.556 161.84 329.534 161.93 329.511C162.583 329.354 162.988 329.207 163.19 329.129C163.28 329.095 163.325 329.072 163.337 329.061L162.729 327.767L162.707 327.733C162.707 327.733 162.695 327.733 162.673 327.744L162.932 327.317L163.19 326.878L163.179 326.889ZM159.364 328.487C159.094 328.521 158.812 328.555 158.509 328.588C156.697 328.78 155.504 328.307 155.143 327.744C155.121 327.71 155.098 327.665 155.076 327.632C154.997 327.44 155.02 327.249 155.143 327.024C155.346 326.664 155.65 326.439 156.089 326.326H156.123C156.415 326.247 156.742 326.225 157.102 326.247C157.631 326.281 158.216 326.394 158.801 326.574C159.488 326.776 160.163 327.046 160.771 327.317C161.266 327.542 161.716 327.767 162.054 327.958C161.919 327.992 161.761 328.037 161.581 328.082C161.052 328.217 160.321 328.363 159.364 328.487Z" fill="white"/>
<path d="M164.271 328.161L163.337 327.013C164.507 326.056 165.363 324.098 165.036 323.13C164.957 322.894 164.777 322.623 164.113 322.59C163.652 322.578 163.461 322.736 163.348 322.871C162.785 323.58 163.022 325.448 163.292 326.461L161.862 326.855C161.772 326.517 160.973 323.479 162.178 321.959C162.504 321.554 163.1 321.07 164.158 321.115C165.7 321.172 166.24 322.106 166.432 322.657C167.017 324.39 165.756 326.945 164.271 328.161Z" fill="white"/>
<path d="M153.669 347.822L152.476 348.115C153.331 346.461 153.928 344.097 153.05 341.137C151.868 337.209 148.83 335.127 146.826 334.137C146.793 333.72 146.759 333.338 146.714 332.989C148.841 333.912 152.589 336.151 153.995 340.856C154.84 343.669 154.434 346.033 153.68 347.822H153.669Z" fill="#A0CC3A"/>
<path d="M164.912 330.963C164.62 331.042 164.293 330.907 164.147 330.614C163.967 330.276 164.102 329.871 164.428 329.691L166.792 328.442C167.13 328.262 167.535 328.397 167.715 328.723C167.895 329.061 167.76 329.466 167.433 329.646L165.07 330.895C165.07 330.895 164.969 330.941 164.912 330.952V330.963Z" fill="white"/>
<path d="M167.782 331.796C167.49 331.875 167.163 331.74 167.017 331.447C166.837 331.109 166.972 330.704 167.298 330.524L169.662 329.275C169.999 329.095 170.405 329.23 170.585 329.556C170.765 329.894 170.63 330.299 170.303 330.479L167.94 331.728C167.94 331.728 167.839 331.773 167.782 331.785V331.796Z" fill="white"/>
<path d="M170.641 332.584C170.348 332.662 170.022 332.527 169.876 332.235C169.696 331.897 169.831 331.492 170.157 331.312L172.52 330.063C172.858 329.883 173.263 330.018 173.443 330.344C173.623 330.682 173.488 331.087 173.162 331.267L170.799 332.516C170.799 332.516 170.697 332.561 170.641 332.572V332.584Z" fill="white"/>
<path d="M173.702 333.203C173.41 333.281 173.083 333.146 172.937 332.854C172.757 332.516 172.892 332.111 173.218 331.931L175.582 330.682C175.919 330.502 176.324 330.637 176.505 330.963C176.685 331.301 176.55 331.706 176.223 331.886L173.86 333.135C173.86 333.135 173.758 333.18 173.702 333.191V333.203Z" fill="white"/>
<path d="M176.955 333.574C176.662 333.653 176.336 333.518 176.189 333.225C176.009 332.887 176.144 332.482 176.471 332.302L178.834 331.053C179.172 330.873 179.577 331.008 179.757 331.334C179.937 331.672 179.802 332.077 179.476 332.257L177.112 333.506C177.112 333.506 177.011 333.552 176.955 333.563V333.574Z" fill="white"/>
<path d="M159.51 320.406L143.821 322.117C143.821 322.117 133.951 268.534 134.964 255.67L120.3 180.839L118.195 170.069L139.421 168.2L140.636 167.525L141.357 167.131L142.55 166.467L145.6 164.756C145.678 165.173 145.746 165.578 145.825 165.983C146.005 166.951 146.185 167.919 146.365 168.876C146.455 169.371 146.545 169.877 146.635 170.372C146.646 170.44 146.658 170.507 146.669 170.575C146.759 171.036 146.838 171.487 146.928 171.948C152.386 201.795 156.64 229.211 158.306 249.165V249.402L158.328 250.808L159.51 320.418V320.406Z" fill="#1C1A12"/>
<path d="M158.34 250.797C155.301 251.754 151.598 251.776 151.238 251.776H151.216C150.844 251.776 150.54 251.472 150.54 251.101C150.54 250.73 150.844 250.426 151.216 250.426C151.339 250.426 155.391 250.426 158.306 249.402L158.328 250.808L158.34 250.797Z" fill="#595959"/>
<path d="M146.635 316.546C137.485 271.539 139.646 252.564 139.669 252.384C139.669 252.316 139.669 252.238 139.669 252.17L125.645 185.836C125.578 185.498 125.263 185.285 124.925 185.33C124.925 185.33 124.925 185.33 124.914 185.33C124.542 185.386 124.284 185.735 124.362 186.106L138.374 252.339C138.205 253.993 136.529 273.351 145.363 316.816C145.431 317.142 145.735 317.368 146.061 317.345C146.084 317.345 146.117 317.345 146.14 317.334C146.5 317.266 146.725 316.917 146.658 316.557L146.635 316.546Z" fill="#595959"/>
<path d="M147.423 171.352C147.367 171.34 147.31 171.318 147.277 171.306C146.297 170.969 145.375 170.519 144.485 169.945C144.249 169.787 144.024 169.63 143.799 169.472C142.944 168.842 142.167 168.133 141.48 167.367C137.148 162.607 135.853 155.888 135.797 155.55C135.729 155.19 135.966 154.852 136.326 154.785C136.686 154.717 137.024 154.954 137.091 155.314C137.102 155.393 138.419 162.258 142.752 166.782C143.394 167.457 144.092 168.065 144.868 168.605C144.981 168.684 145.093 168.763 145.206 168.83C145.892 169.269 146.601 169.63 147.344 169.911C147.513 170.406 147.603 170.879 147.434 171.329L147.423 171.352Z" fill="#595959"/>
<path d="M125.049 180.918C125.06 181.21 124.835 181.458 124.531 181.469C124.227 181.481 123.968 181.255 123.957 180.963C123.867 178.982 123.743 176.956 123.62 174.93C123.597 174.57 123.575 174.221 123.552 173.861C123.124 167.244 122.584 160.739 122.179 156.147C122.145 155.775 122.111 155.415 122.078 155.066C121.988 154.065 121.909 153.164 121.83 152.41C122.19 152.354 122.562 152.298 122.911 152.23C122.978 152.984 123.068 153.884 123.158 154.909C123.192 155.258 123.226 155.618 123.259 155.989C123.665 160.536 124.205 166.985 124.632 173.557C124.655 173.918 124.677 174.289 124.7 174.649C124.835 176.754 124.948 178.858 125.049 180.907V180.918Z" fill="#595959"/>
<path d="M126.613 173.94C126.444 174.019 125.679 174.379 124.7 174.672C124.362 174.773 123.991 174.874 123.62 174.942C123.282 175.009 122.933 175.054 122.584 175.077C121.92 175.111 121.279 175.043 120.75 174.784C120.086 174.469 119.658 173.884 119.5 173.107C119.107 171.07 118.274 162.629 117.711 156.664C117.677 156.293 117.643 155.944 117.61 155.595C117.52 154.639 117.441 153.772 117.373 153.04C117.733 152.995 118.094 152.95 118.465 152.905C118.533 153.648 118.611 154.526 118.701 155.494C118.735 155.843 118.769 156.203 118.803 156.563C119.365 162.517 120.187 170.935 120.57 172.916C120.66 173.377 120.862 173.67 121.234 173.839C121.808 174.12 122.685 174.064 123.552 173.873C123.923 173.794 124.284 173.692 124.632 173.58C125.263 173.377 125.803 173.152 126.141 172.995C126.411 172.86 126.737 172.972 126.872 173.231C127.007 173.49 126.895 173.805 126.625 173.94H126.613Z" fill="#595959"/>
<path d="M35.1816 313.012L29.4643 322.218L39.7847 331.109L46.7175 321.172L35.1816 313.012Z" fill="#FFAE82"/>
<path d="M41.7205 341.7C41.6305 341.587 41.5742 341.441 41.5742 341.272C41.6079 340.203 40.2236 338.312 39.3345 337.378C39.0982 337.119 39.1094 336.725 39.357 336.489C39.6046 336.253 40.0098 336.264 40.2461 336.512C40.5162 336.804 42.891 339.381 42.8234 341.317C42.8122 341.666 42.5196 341.936 42.1707 341.925C41.9793 341.925 41.8218 341.835 41.7092 341.7H41.7205Z" fill="white"/>
<path d="M56.2163 349.938L27.1684 349.916C27.1684 349.916 22.4978 342.623 19.943 337.108C19.8192 336.838 19.6954 336.568 19.5828 336.298C18.6825 334.249 18.1535 332.539 18.3674 331.661C18.4574 331.301 18.6262 330.929 18.8738 330.547C20.1456 328.532 23.2968 326.281 25.3564 324.931C25.6603 324.739 25.9416 324.559 26.1892 324.402C26.8645 323.985 29.5768 321.385 29.5768 321.385C32.9532 320.811 36.9823 329.511 36.9823 329.511C36.9823 329.511 42.0356 329.038 41.9681 332.797C41.9456 334.114 38.7943 338.053 38.7943 338.053C38.7943 338.053 47.0889 339.91 49.8913 341.531C53.8528 343.816 55.3609 346.145 55.9349 347.777C56.3851 349.083 56.2275 349.938 56.2275 349.938H56.2163Z" fill="#A0CC3A"/>
<path d="M24.9062 333.09C23.4882 335.386 21.6312 336.545 19.943 337.119C19.8192 336.849 19.6954 336.579 19.5828 336.309C21.1135 335.802 22.8129 334.745 24.1297 332.617C25.8404 329.849 25.7616 326.968 25.3564 324.953C25.6603 324.762 25.9417 324.582 26.1893 324.424C26.6957 326.596 26.8983 329.883 24.9062 333.09Z" fill="#A0CC3A"/>
<path d="M38.9519 334.317C38.9519 334.317 40.6626 333.788 41.2253 335.285C41.7768 336.793 39.7622 338.256 39.7622 338.256C39.7622 338.256 37.4325 338.999 38.9631 334.317H38.9519Z" fill="white"/>
<path d="M32.8744 338.729C32.6493 338.459 32.6943 338.065 32.9644 337.84C35.8794 335.431 38.9744 335.949 39.0982 335.971C39.4358 336.028 39.6609 336.354 39.6046 336.703C39.5483 337.04 39.222 337.266 38.8731 337.209C38.7605 337.187 36.2058 336.782 33.7523 338.807C33.4822 339.033 33.0883 338.987 32.8632 338.717L32.8744 338.729Z" fill="white"/>
<path d="M37.6126 336.151C37.1624 335.611 36.5659 334.801 35.8569 333.664C34.799 331.953 34.5513 330.209 35.2154 329.117C35.6093 328.465 36.2845 328.116 37.0724 328.172C37.8264 328.228 38.4679 328.555 38.9744 329.151C38.9744 329.162 38.9969 329.174 39.0081 329.185C40.6851 331.211 40.3362 335.634 40.2912 336.14L39.3795 336.061L39.402 336.084L38.5467 337.142C38.5467 337.142 38.1866 336.849 37.6126 336.151ZM37.9615 330.051C37.9615 330.051 37.9502 330.04 37.939 330.029C37.6689 329.714 37.365 329.545 36.9823 329.522C36.701 329.5 36.5096 329.59 36.3858 329.815C36.0707 330.344 36.1382 331.514 37.0273 332.944C37.8939 334.339 38.5692 335.183 38.9744 335.634C39.0532 334.204 38.9856 331.289 37.9727 330.063L37.9615 330.051Z" fill="white"/>
<path d="M39.6722 337.558L40.2461 336.331C41.4954 336.917 43.4649 336.849 44.1402 336.196C44.309 336.039 44.4666 335.78 44.219 335.217C44.0502 334.823 43.8363 334.733 43.6788 334.699C42.8684 334.519 41.4166 335.454 40.6851 336.084L39.796 335.06C40.0436 334.846 42.2382 332.978 43.9826 333.371C44.4441 333.473 45.0856 333.788 45.4682 334.677C46.0422 335.983 45.4682 336.804 45.0968 337.175C43.8926 338.346 41.2703 338.323 39.6722 337.569V337.558Z" fill="white"/>
<path d="M38.8731 339.055C38.5917 339.021 38.3666 338.785 38.3329 338.492C38.2991 338.143 38.5467 337.839 38.8956 337.806L41.3378 337.558C41.6867 337.524 41.9906 337.772 42.0243 338.121C42.0581 338.47 41.8105 338.774 41.4616 338.807L39.0194 339.055C39.0194 339.055 38.9181 339.055 38.8618 339.055H38.8731Z" fill="white"/>
<path d="M41.7205 340.023C41.4391 339.989 41.214 339.753 41.1803 339.46C41.1465 339.111 41.3941 338.807 41.743 338.774L44.1852 338.526C44.5341 338.492 44.838 338.74 44.8717 339.089C44.9055 339.438 44.6579 339.742 44.309 339.775L41.8668 340.023C41.8668 340.023 41.7655 340.023 41.7092 340.023H41.7205Z" fill="white"/>
<path d="M44.6354 340.935C44.354 340.89 44.1289 340.664 44.0952 340.372C44.0614 340.023 44.309 339.719 44.6579 339.685L47.1002 339.438C47.449 339.404 47.7529 339.651 47.7867 340C47.8204 340.349 47.5728 340.653 47.224 340.687L44.7817 340.935C44.7817 340.935 44.6804 340.935 44.6241 340.935H44.6354Z" fill="white"/>
<path d="M56.2163 349.938L27.1684 349.916C27.1684 349.916 17.5683 334.936 18.3561 331.672C18.4461 331.312 18.615 330.94 18.8625 330.558C21.4286 335.42 27.0671 345.92 28.9578 347.856L55.9237 347.788C56.3738 349.094 56.2163 349.949 56.2163 349.949V349.938Z" fill="#A0CC3A"/>
<path d="M117.992 180.479L96.3386 247.871L96.2936 248.006L95.5846 249.109L45.7271 326.675L30.7136 317.052C30.7136 317.052 46.65 282.265 53.3126 268.681C59.9753 255.096 70.1044 244.585 70.1044 244.585C76.767 226.048 88.6518 169.303 88.6518 169.303L117.992 180.479Z" fill="#1C1A12"/>
<path d="M96.3274 247.871L96.2824 248.006L95.5733 249.109C91.2966 248.287 87.7402 246.262 87.5264 246.138C87.2 245.946 87.0874 245.541 87.2788 245.215C87.4588 244.889 87.8752 244.776 88.2016 244.967C88.2466 245.001 92.0282 247.139 96.3274 247.86V247.871Z" fill="#595959"/>
<path d="M34.8552 318.504C34.7539 318.504 34.6526 318.482 34.5513 318.425C34.2137 318.257 34.0899 317.852 34.2587 317.514C34.3938 317.244 48.2818 289.828 55.6873 272.068C63.0365 254.455 72.4228 247.421 73.8183 246.442C79.5356 233.882 90.1486 180.85 90.2499 180.321C90.3175 179.961 90.6776 179.725 91.049 179.792C91.4091 179.86 91.6567 180.22 91.578 180.591C91.139 182.797 80.7286 234.793 74.9663 247.184C74.91 247.297 74.8312 247.398 74.7299 247.466C74.6287 247.533 64.5559 254.342 56.9366 272.597C49.5086 290.402 35.6093 317.863 35.463 318.133C35.3392 318.369 35.1028 318.504 34.8552 318.504Z" fill="#595959"/>
<path d="M90.9477 189.089C92.1745 189.381 93.5362 189.347 94.9543 188.987C105.151 186.388 108.392 162.843 108.527 161.841C108.584 161.425 108.291 161.042 107.875 160.986C107.458 160.93 107.075 161.222 107.019 161.639C106.985 161.875 103.778 185.161 94.5717 187.513C92.1745 188.121 90.0474 187.58 88.5618 185.994C86.626 183.923 86.0858 180.4 87.1887 177.024C87.3238 176.63 87.0987 176.191 86.7048 176.067C86.3109 175.943 85.8719 176.157 85.7481 176.551C84.4764 180.445 85.1404 184.564 87.4476 187.029C88.4267 188.076 89.6084 188.762 90.9365 189.077L90.9477 189.089Z" fill="#FFB64C"/>
<path d="M90.385 172.128C89.676 172.916 88.5167 173.636 87.6276 174.143C87.4476 173.873 87.3688 173.107 87.774 172.612C88.3592 172.229 88.8994 171.768 89.3833 171.228C93.6713 166.456 92.6359 157.193 92.6246 157.092C92.5796 156.721 92.8497 156.383 93.2211 156.349C93.5925 156.304 93.9302 156.574 93.9752 156.935C94.0202 157.34 95.0894 166.906 90.3963 172.128H90.385Z" fill="#595959"/>
<path d="M154.637 74.2251C154.468 74.0788 154.311 73.9325 154.153 73.7749C152.724 72.3906 151.531 70.7024 150.889 68.4515L136.303 63.5445C136.303 63.5445 134.784 64.1073 132.308 64.4787C132.072 64.5124 131.835 64.5462 131.588 64.5687C129.528 64.8163 126.838 64.8613 123.631 64.3211C116.743 63.1619 110.632 68.8454 106.13 79.8861C105.702 80.9328 105.275 81.9794 104.847 83.0036C104.757 83.2287 104.656 83.4538 104.566 83.6901C102.844 87.8655 101.201 91.8722 99.6587 95.7887C99.5237 96.1264 99.3999 96.464 99.2648 96.8016C96.8563 102.992 94.7517 108.979 93.1311 115.079C92.7935 116.351 92.4783 117.622 92.1857 118.905C90.8577 124.713 85.9395 155.134 85.3205 163.428C93.2324 170.654 125.229 171.025 147.434 164.768C146.365 151.802 147.569 137.048 148.312 133.03C148.56 131.702 148.807 130.419 149.066 129.158C149.314 127.932 149.573 126.75 149.843 125.591C150.146 124.274 150.45 122.991 150.765 121.764C151.103 120.436 151.452 119.164 151.801 117.938C152.172 116.621 152.555 115.372 152.938 114.156C158.126 97.702 163.843 90.6454 164.383 86.4587C165.239 79.7961 159.049 78.2092 154.626 74.2251H154.637Z" fill="#4879F0"/>
<path d="M140.828 85.1645C140.828 85.1645 140.794 85.1532 140.771 85.1419C132.466 82.2833 133.49 64.8613 133.535 64.1298C133.557 63.8484 133.805 63.6233 134.086 63.6458C134.368 63.6684 134.593 63.9047 134.57 64.1973C134.57 64.3661 133.546 81.563 141.109 84.1628C142.831 84.748 144.35 84.6242 145.723 83.7689C150.27 80.9215 151.508 71.1526 151.52 71.0513C151.553 70.7699 151.812 70.5674 152.094 70.6011C152.375 70.6349 152.577 70.8938 152.544 71.1751C152.487 71.5915 151.238 81.5293 146.275 84.6355C144.654 85.6484 142.82 85.8285 140.828 85.1532V85.1645Z" fill="white"/>
<path d="M143.146 88.6871C140.681 87.8543 138.25 86.2899 135.943 84.039C131.97 80.1675 129.663 75.5193 129.641 75.4743C129.551 75.3055 129.618 75.0804 129.787 74.9791C129.956 74.8778 130.158 74.9341 130.237 75.1142C130.26 75.1592 132.522 79.7173 136.416 83.5101C141.593 88.5521 147.051 89.9139 152.622 87.5729C152.802 87.4941 152.994 87.5842 153.05 87.7755C153.106 87.9556 153.016 88.1694 152.836 88.2482C149.617 89.5987 146.387 89.7563 143.236 88.7209C143.202 88.7096 143.157 88.6984 143.124 88.6871H143.146Z" fill="#3339C9"/>
<path d="M143.968 75.1254C140.535 73.9662 137.53 69.667 137.361 69.4306C137.249 69.2731 137.294 69.048 137.44 68.9242C137.586 68.8004 137.8 68.8229 137.913 68.9805C137.958 69.048 142.977 76.2396 147.074 74.3826C147.243 74.3038 147.445 74.3826 147.513 74.574C147.58 74.754 147.49 74.9679 147.322 75.0466C146.219 75.5531 145.071 75.4968 143.979 75.1367L143.968 75.1254Z" fill="#3339C9"/>
<path d="M128.932 149.124C127.514 148.64 126.096 148.032 124.711 147.278C121.279 145.421 117.947 142.72 114.807 139.276C109.473 133.413 106.479 127.279 106.456 127.223C106.366 127.031 106.434 126.795 106.625 126.682C106.805 126.57 107.03 126.637 107.12 126.829C107.154 126.885 110.092 132.929 115.37 138.713C120.209 144.026 128.065 150.216 137.992 149.506C138.194 149.495 138.363 149.653 138.374 149.878C138.374 150.092 138.217 150.283 138.014 150.306C134.964 150.519 131.925 150.126 128.954 149.124H128.932Z" fill="#3339C9"/>
<path d="M120.828 96.7228C120.671 96.7228 120.513 96.6666 120.401 96.5428C120.176 96.3064 120.187 95.935 120.423 95.7099L123.597 92.6825C123.833 92.4574 124.205 92.4686 124.43 92.705C124.655 92.9413 124.644 93.3127 124.407 93.5378L121.234 96.5653C121.121 96.6778 120.975 96.7228 120.828 96.7228Z" fill="#3339C9"/>
<path d="M134.323 99.2438C134.098 99.2438 133.872 99.1088 133.782 98.8837L132.072 94.8434C131.948 94.5395 132.083 94.2018 132.387 94.0668C132.691 93.943 133.028 94.078 133.163 94.3819L134.874 98.4223C134.998 98.7262 134.863 99.0638 134.559 99.1988C134.48 99.2326 134.401 99.2438 134.334 99.2438H134.323Z" fill="#3339C9"/>
<path d="M146.691 99.3901C146.691 99.3901 146.613 99.3901 146.579 99.3901L142.268 98.5686C141.953 98.5123 141.739 98.1972 141.796 97.882C141.852 97.5669 142.167 97.3531 142.482 97.4094L146.793 98.2309C147.108 98.2872 147.322 98.6023 147.265 98.9175C147.209 99.1988 146.961 99.4014 146.691 99.4014V99.3901Z" fill="#3339C9"/>
<path d="M129.067 119.615C128.887 119.615 128.695 119.524 128.583 119.367C128.392 119.097 128.459 118.737 128.718 118.545L132.297 116.013C132.567 115.822 132.927 115.889 133.118 116.148C133.31 116.418 133.242 116.778 132.983 116.97L129.404 119.502C129.303 119.569 129.179 119.615 129.067 119.615Z" fill="#3339C9"/>
<path d="M158.261 83.1949C158.261 83.1949 158.182 83.1949 158.137 83.1837L153.838 82.3058C153.523 82.2383 153.309 81.9344 153.376 81.608C153.444 81.2929 153.759 81.0903 154.074 81.1466L158.374 82.0244C158.689 82.092 158.902 82.3958 158.835 82.7222C158.779 83.0036 158.531 83.1949 158.261 83.1949Z" fill="#3339C9"/>
<path d="M147.535 111.883C147.209 111.883 146.95 111.624 146.95 111.297V106.908C146.939 106.582 147.198 106.323 147.524 106.312C147.851 106.312 148.109 106.571 148.109 106.897V111.286C148.121 111.613 147.862 111.871 147.535 111.883Z" fill="#3339C9"/>
<path d="M143.394 127.043C143.225 127.043 143.067 126.975 142.944 126.84L140.085 123.52C139.871 123.272 139.905 122.901 140.152 122.687C140.4 122.473 140.771 122.507 140.985 122.743L143.844 126.063C144.058 126.311 144.024 126.682 143.776 126.896C143.664 126.986 143.529 127.043 143.394 127.043Z" fill="#3339C9"/>
<path d="M94.9656 146.063C94.7743 146.063 94.5829 145.961 94.4704 145.781C94.3016 145.5 94.3803 145.14 94.6617 144.971L98.3757 142.653C98.6458 142.484 99.0172 142.562 99.186 142.844C99.3548 143.125 99.2761 143.485 98.9947 143.654L95.2807 145.973C95.1794 146.029 95.0781 146.063 94.9656 146.063Z" fill="#3339C9"/>
<path d="M140.771 143.238C140.603 143.238 140.445 143.17 140.321 143.035L137.463 139.715C137.249 139.467 137.283 139.096 137.53 138.882C137.778 138.668 138.149 138.702 138.363 138.938L141.222 142.259C141.435 142.506 141.402 142.878 141.154 143.091C141.042 143.181 140.906 143.238 140.771 143.238Z" fill="#3339C9"/>
<path d="M102.765 161.357C102.596 161.357 102.439 161.29 102.315 161.155L99.4561 157.835C99.2423 157.587 99.2761 157.216 99.5237 157.002C99.7713 156.788 100.143 156.822 100.356 157.058L103.215 160.378C103.429 160.626 103.395 160.997 103.148 161.211C103.035 161.301 102.9 161.357 102.765 161.357Z" fill="#3339C9"/>
<path d="M123.271 130.498C123.113 130.498 122.944 130.43 122.832 130.295C122.618 130.047 122.64 129.676 122.877 129.462L126.152 126.547C126.388 126.333 126.771 126.356 126.985 126.592C127.198 126.84 127.176 127.211 126.94 127.425L123.665 130.34C123.552 130.441 123.417 130.486 123.271 130.486V130.498Z" fill="#3339C9"/>
<path d="M125.522 141.932C125.398 141.932 125.274 141.898 125.161 141.808L121.661 139.175C121.402 138.984 121.346 138.612 121.549 138.353C121.74 138.094 122.111 138.038 122.37 138.241L125.87 140.874C126.129 141.066 126.186 141.437 125.983 141.696C125.87 141.853 125.69 141.932 125.51 141.932H125.522Z" fill="#3339C9"/>
<path d="M117.317 158.037C117.159 158.037 116.991 157.97 116.878 157.835C116.664 157.587 116.687 157.216 116.923 157.002L120.198 154.087C120.435 153.873 120.817 153.896 121.031 154.132C121.245 154.38 121.222 154.751 120.986 154.965L117.711 157.88C117.598 157.981 117.463 158.026 117.317 158.026V158.037Z" fill="#3339C9"/>
<path d="M140.321 161.718C140.164 161.718 139.995 161.65 139.882 161.515C139.669 161.267 139.691 160.896 139.927 160.682L143.202 157.767C143.439 157.553 143.821 157.576 144.035 157.812C144.249 158.06 144.227 158.431 143.99 158.645L140.715 161.56C140.603 161.661 140.468 161.706 140.321 161.706V161.718Z" fill="#3339C9"/>
<path d="M131.093 160.086C130.901 160.086 130.71 159.985 130.597 159.816L128.245 156.124C128.065 155.854 128.155 155.483 128.425 155.314C128.695 155.145 129.067 155.224 129.236 155.494L131.588 159.185C131.768 159.456 131.678 159.827 131.408 159.996C131.306 160.063 131.205 160.086 131.093 160.086Z" fill="#3339C9"/>
<path d="M112.185 105.468C111.904 105.468 111.656 105.265 111.611 104.984L110.868 100.831C110.812 100.516 111.026 100.2 111.341 100.144C111.667 100.088 111.971 100.302 112.027 100.617L112.77 104.77C112.826 105.085 112.613 105.4 112.298 105.456C112.264 105.456 112.23 105.456 112.196 105.456L112.185 105.468Z" fill="#3339C9"/>
<path d="M113.457 121.066C113.299 121.066 113.13 120.999 113.018 120.864C112.804 120.616 112.826 120.245 113.074 120.031L116.36 117.127C116.597 116.913 116.979 116.936 117.193 117.184C117.407 117.431 117.385 117.803 117.137 118.016L113.851 120.92C113.738 121.021 113.603 121.066 113.457 121.066Z" fill="#3339C9"/>
<path d="M110.159 145.286C109.923 145.286 109.698 145.14 109.608 144.903L108.055 140.807C107.942 140.503 108.088 140.165 108.392 140.042C108.696 139.929 109.034 140.075 109.158 140.379L110.711 144.476C110.823 144.78 110.677 145.117 110.373 145.241C110.305 145.264 110.238 145.275 110.159 145.275V145.286Z" fill="#3339C9"/>
<path d="M124.587 110.949C124.351 110.949 124.137 110.813 124.036 110.577L122.404 106.514C122.28 106.21 122.427 105.873 122.73 105.749C123.034 105.625 123.372 105.771 123.496 106.075L125.128 110.138C125.251 110.442 125.105 110.78 124.801 110.904C124.734 110.937 124.655 110.949 124.576 110.949H124.587Z" fill="#3339C9"/>
<path d="M105.781 108C105.781 108 105.77 108 105.759 108L101.381 107.842C101.054 107.842 100.795 107.561 100.807 107.235C100.818 106.908 101.111 106.649 101.414 106.672L105.792 106.829C106.119 106.829 106.378 107.111 106.366 107.437C106.355 107.752 106.096 108.011 105.781 108.011V108Z" fill="#3339C9"/>
<path d="M152.217 65.6604L150.946 69.4306C150.383 69.6332 149.831 69.802 149.302 69.9146C141.435 71.6365 136.022 64.3999 136.022 64.3999L140.423 51.3446L150.822 63.961L152.229 65.6716L152.217 65.6604Z" fill="#FFAE82"/>
<path d="M152.217 65.6604L150.946 69.4306C150.383 69.6332 149.831 69.802 149.302 69.9146C144.474 65.8404 142.392 58.6263 142.392 58.6263L150.81 63.9497L152.217 65.6604Z" fill="#1C1A12"/>
<path d="M140.895 37.4678C140.895 37.4678 136.483 37.4678 136.112 40.0114C135.752 42.4086 137.823 42.9037 137.823 42.9037C137.823 42.9037 132.499 44.9071 133.67 47.2705C134.84 49.6339 136.934 49.24 136.934 49.24C136.934 49.24 133.062 53.618 135.606 55.7789C138.149 57.951 143.788 54.1695 143.788 54.1695C143.788 54.1695 148.346 39.3248 140.895 37.4678Z" fill="#1C1A12"/>
<path d="M164.631 35.0593C164.631 35.0593 171.316 39.3586 166.612 44.4118C166.612 44.4118 163.584 37.4791 164.631 35.0593Z" fill="#1C1A12"/>
<path d="M162.549 50.5456C162.549 50.5456 165.543 48.7336 165.903 51.671C166.263 54.6085 163.607 59.4141 160.636 57.4784L162.56 50.5456H162.549Z" fill="#A0CC3A"/>
<path d="M161.84 60.1794C161.84 60.1794 159.229 67.9676 151.137 65.2215C143.09 62.4979 139.736 54.3271 139.545 53.9332L140.006 52.2675L142.403 43.6128L143.686 38.9872C143.686 38.9872 145.408 30.4675 153.68 31.593C159.724 32.4146 164.732 35.1494 166.42 39.021C167.039 40.4503 167.208 42.0259 166.814 43.7254L164.316 51.9637L163.708 53.9782L161.829 60.1794H161.84Z" fill="#FFAE82"/>
<path d="M153.782 59.1665C152.814 58.8852 152.184 58.3 152.15 58.2662C152.015 58.1424 152.015 57.9398 152.15 57.8048C152.274 57.6697 152.476 57.6697 152.611 57.8048C152.611 57.8048 153.827 58.9415 155.414 58.6151C155.594 58.5813 155.762 58.6938 155.796 58.8739C155.83 59.054 155.717 59.2228 155.537 59.2566C154.885 59.3916 154.288 59.3241 153.793 59.1778L153.782 59.1665Z" fill="#A0CC3A"/>
<path d="M158.734 51.2096C158.34 51.2096 157.833 51.1758 157.214 51.0633C157.057 51.0407 156.955 50.8832 156.978 50.7256C157 50.5681 157.158 50.4668 157.316 50.4893C158.205 50.6469 158.812 50.6356 159.173 50.6131L157.698 48.2609C157.653 48.1934 157.642 48.1033 157.664 48.0246L158.182 46.3026C158.227 46.1451 158.385 46.0663 158.542 46.1113C158.7 46.1563 158.779 46.3139 158.734 46.4714L158.25 48.0583L159.893 50.6694C159.938 50.7482 159.949 50.8382 159.915 50.917C159.882 50.9958 159.814 51.0633 159.735 51.097C159.713 51.097 159.386 51.2096 158.734 51.2096Z" fill="black"/>
<path d="M151.981 51.6373C151.981 51.6373 156.573 54.3946 159.105 55.34C159.105 55.34 157.248 58.6038 153.872 57.2195C150.968 56.0378 151.981 51.626 151.981 51.626V51.6373Z" fill="white"/>
<path d="M156.415 42.3298C157.045 42.161 157.349 41.4294 157.012 40.8667C156.697 40.3602 156.134 39.865 155.11 39.7637C152.904 39.5612 149.674 41.4969 150.844 42.6449C151.7 43.4777 154.817 42.7687 156.415 42.3298Z" fill="#1C1A12"/>
<path d="M161.446 43.6578C161.018 43.1626 161.165 42.3861 161.761 42.116C162.301 41.8684 163.055 41.7671 163.956 42.251C165.903 43.2977 167.186 46.6515 165.576 46.9554C164.395 47.1805 162.538 44.9183 161.446 43.6578Z" fill="#1C1A12"/>
<path d="M140.771 38.8071C140.366 40.5628 140.659 41.677 140.85 42.4423C142.977 43.7141 143.608 45.3235 143.641 46.6402L145.577 47.5856C145.577 47.5856 146.95 44.3781 147.108 41.6432C147.22 39.5386 149.235 39.5499 150.214 37.9968C150.507 37.5354 150.675 37.3553 150.709 36.5224C150.709 36.5224 154.344 35.2732 157.428 37.5016C160.523 39.73 163.551 41.1593 165.835 39.5949C166.06 39.4373 166.274 39.2686 166.42 39.021C164.732 35.1607 159.724 32.4145 153.68 31.593C145.408 30.4675 142.381 33.6413 142.381 33.6413C141.132 35.352 141.165 37.0964 140.771 38.8071Z" fill="#1C1A12"/>
<path d="M141.233 33.056C141.233 33.056 155.526 32.3132 164.597 35.0256C164.834 35.0931 165.07 35.1719 165.295 35.2507C166.229 35.5546 167.096 35.9147 167.861 36.3086C167.861 36.3086 167.692 31.1428 162.009 27.7327C161.367 27.3388 160.647 26.9786 159.848 26.641C158.801 26.2021 157.608 25.8194 156.258 25.5155C156.213 25.5155 156.168 25.493 156.123 25.4818C155.774 25.403 155.425 25.3354 155.087 25.2904C154.052 25.1216 153.073 25.0428 152.172 25.0541C151.936 25.0541 151.7 25.0541 151.474 25.0766C149.764 25.1779 148.301 25.5718 147.051 26.1458C146.646 26.3371 146.252 26.5397 145.892 26.7535C141.976 29.1057 141.21 33.0448 141.21 33.0448L141.233 33.056Z" fill="#A0CC3A"/>
<path d="M159.859 26.641C161.649 28.0591 164.147 30.7601 164.597 35.0256C164.62 35.2619 164.642 35.4983 164.653 35.7459L165.329 35.7121C165.329 35.5546 165.306 35.397 165.295 35.2507C165.002 31.7843 163.438 29.3083 162.02 27.7327C161.378 27.3388 160.658 26.9786 159.859 26.641Z" fill="#A0CC3A"/>
<path d="M155.098 25.3017C157.766 27.7214 158.07 31.8406 158.07 31.8856L158.745 31.8406C158.734 31.6492 158.475 28.104 156.258 25.5268C156.213 25.5268 156.168 25.5043 156.123 25.493C155.774 25.4142 155.425 25.3467 155.087 25.3017H155.098Z" fill="#A0CC3A"/>
<path d="M151.486 25.0879C151.171 26.7535 150.844 30.31 152.983 32.9098L153.5 32.4821C151.486 30.0399 151.891 26.551 152.172 25.0654C151.936 25.0654 151.7 25.0654 151.474 25.0879H151.486Z" fill="#A0CC3A"/>
<path d="M144.62 32.921L145.285 32.786C144.789 30.3887 145.994 27.834 147.063 26.1458C146.658 26.3371 146.264 26.5397 145.904 26.7536C144.969 28.4755 144.159 30.7264 144.62 32.921Z" fill="#A0CC3A"/>
<path d="M167.951 39.0435C167.951 39.0435 155.819 32.1557 141.03 37.4566C141.03 37.4566 139.657 35.262 141.289 32.9098C141.289 32.9098 155.841 26.6297 168.12 35.5771C168.12 35.5771 169.167 37.2652 167.951 39.0547V39.0435Z" fill="#A0CC3A"/>
<path d="M153.422 49.4088C153.23 49.9716 151.913 50.0391 150.473 49.5552C149.032 49.0712 148.019 48.2159 148.211 47.6531C148.402 47.0904 149.719 47.0229 151.159 47.5068C152.6 47.9908 153.613 48.8461 153.422 49.4088Z" fill="#A0CC3A"/>
<path d="M163.719 53.9782C163.517 53.9332 163.292 53.8657 163.078 53.7981C161.637 53.3142 160.624 52.4588 160.816 51.8961C161.007 51.3334 162.324 51.2659 163.764 51.7498C163.956 51.8173 164.147 51.8849 164.327 51.9636L163.719 53.9782Z" fill="#A0CC3A"/>
<path d="M155.2 45.5485C154.941 46.3251 154.367 46.8428 153.939 46.6965C153.5 46.5502 153.365 45.7961 153.624 45.0196C153.883 44.243 154.457 43.7253 154.885 43.8716C155.324 44.0179 155.459 44.772 155.2 45.5485Z" fill="#1C1A12"/>
<path d="M162.909 48.1371C162.65 48.9137 162.076 49.4314 161.649 49.285C161.21 49.1387 161.075 48.3847 161.333 47.6081C161.592 46.8316 162.166 46.3138 162.594 46.4602C163.033 46.6065 163.168 47.3605 162.909 48.1371Z" fill="#1C1A12"/>
<path d="M143.146 51.6373C143.079 51.716 141.255 53.7418 139.545 53.9444L140.006 52.2788C140.006 52.2788 141.357 52.4926 143.146 51.6485V51.6373Z" fill="#1C1A12"/>
<path d="M143.54 45.7511C143.54 45.7511 141.829 40.5178 138.442 43.0388C135.651 45.1096 136.832 53.3704 141.368 52.2L143.54 45.7511Z" fill="#FFAE82"/>
<path d="M138.656 49.814C138.521 50.2079 138.734 50.6356 139.128 50.7707C139.522 50.9057 139.95 50.6919 140.085 50.298C140.22 49.9041 140.006 49.4764 139.612 49.3413C139.218 49.2063 138.791 49.4201 138.656 49.814Z" fill="white"/>
<path d="M141.368 50.7932C141.368 50.7932 141.39 50.7932 141.402 50.7932C141.582 50.8382 141.762 50.7144 141.807 50.5343C142.617 46.8428 140.04 44.6032 139.927 44.5132C139.781 44.3894 139.567 44.4119 139.455 44.5469C139.331 44.6932 139.353 44.907 139.488 45.0196C139.59 45.0984 141.863 47.1017 141.143 50.3768C141.109 50.5456 141.199 50.7144 141.368 50.7707V50.7932Z" fill="#1C1A12"/>
<path d="M139.027 47.8445C139.095 47.867 139.173 47.867 139.252 47.8445C139.612 47.7094 140.636 47.4393 141.143 47.7657C141.3 47.867 141.514 47.822 141.616 47.6644C141.717 47.5069 141.672 47.293 141.514 47.1917C140.636 46.6177 139.185 47.1354 139.016 47.1917C138.836 47.2592 138.757 47.4506 138.813 47.6307C138.847 47.7319 138.926 47.7995 139.027 47.8332V47.8445Z" fill="#1C1A12"/>
<path d="M121.02 123.329L120.221 123.396L119.478 123.452L118.026 123.542C117.058 123.599 116.102 123.644 115.145 123.677C113.232 123.745 111.307 123.767 109.371 123.745C105.5 123.7 101.583 123.475 97.5316 122.856C95.5058 122.541 93.435 122.136 91.3079 121.528C89.1695 120.909 86.9636 120.121 84.6565 118.849C83.5085 118.208 82.3268 117.442 81.1676 116.463C80.0083 115.484 78.8604 114.291 77.8812 112.839C77.386 112.108 76.9471 111.32 76.5757 110.498C76.3844 110.082 76.2156 109.666 76.058 109.227C75.9792 109.013 75.9117 108.788 75.8442 108.574L75.8104 108.473C75.7766 108.338 75.7429 108.214 75.7091 108.079C75.6416 107.82 75.5853 107.538 75.5516 107.302C75.484 106.841 75.439 106.323 75.4503 105.94C75.4503 105.738 75.4503 105.513 75.4728 105.333C75.484 105.152 75.4953 104.984 75.5178 104.804L75.5516 104.545L75.5853 104.32C75.6078 104.173 75.6416 104.027 75.6754 103.881C75.7316 103.599 75.7992 103.374 75.8667 103.115C75.9342 102.902 76.0017 102.688 76.0805 102.485C76.3619 101.72 76.6432 101.18 76.9021 100.707C77.161 100.234 77.4085 99.8516 77.6336 99.514C77.87 99.1651 78.0838 98.8612 78.3089 98.5798C79.1643 97.4656 79.9408 96.6216 80.6949 95.8225C81.4489 95.0347 82.1917 94.3144 82.9345 93.6166C84.4089 92.2323 85.8607 90.9605 87.3125 89.7338C90.2274 87.2803 93.1424 84.9731 96.0798 82.7222C99.0172 80.4713 101.966 78.288 104.937 76.1271C106.423 75.0467 107.908 73.9775 109.405 72.9083L111.645 71.3214L113.929 69.7233C117.981 66.8871 123.563 67.8775 126.399 71.9292C129.236 75.9808 128.245 81.563 124.194 84.3879C124.104 84.4554 124.002 84.5117 123.912 84.5792L123.8 84.6467L121.594 86.0536L119.365 87.4942C117.88 88.4621 116.405 89.4299 114.931 90.4203C111.982 92.3899 109.067 94.3932 106.209 96.419C103.35 98.4448 100.525 100.516 97.8467 102.609C96.5075 103.656 95.2132 104.714 94.009 105.76C93.9864 105.783 93.9752 105.794 93.9527 105.817C94.5267 106.075 95.1569 106.312 95.8322 106.537C97.149 106.964 98.6121 107.325 100.131 107.617C103.181 108.202 106.479 108.529 109.81 108.686C111.476 108.765 113.164 108.799 114.852 108.788C115.696 108.788 116.54 108.776 117.373 108.743L118.623 108.698L119.782 108.641H120.029C124.081 108.428 127.536 111.556 127.739 115.608C127.941 119.57 124.948 122.957 121.031 123.306L121.02 123.329Z" fill="#FFAE82"/>
<path d="M86.716 105.49C86.5922 105.423 86.5134 105.299 86.5022 105.152C86.4909 104.927 86.6597 104.736 86.8848 104.725C89.6309 104.578 93.435 105.434 93.6038 105.468C93.8176 105.513 93.9639 105.738 93.9077 105.952C93.8626 106.165 93.6375 106.312 93.4237 106.255C93.3899 106.255 89.5634 105.389 86.9299 105.535C86.8511 105.535 86.7723 105.524 86.716 105.49Z" fill="#A0CC3A"/>
<path d="M92.951 106.019C92.8835 105.985 92.8272 105.929 92.7935 105.862C91.9156 104.218 89.3608 103.082 89.3383 103.07C89.1358 102.98 89.0457 102.744 89.1357 102.53C89.2258 102.328 89.4621 102.238 89.676 102.328C89.7885 102.384 92.5121 103.588 93.525 105.479C93.6263 105.681 93.5588 105.918 93.3562 106.03C93.2324 106.098 93.0861 106.098 92.9623 106.03L92.951 106.019Z" fill="#A0CC3A"/>
<path d="M119.771 109.789C119.771 109.789 119.422 104.894 122.629 104.882C126.242 104.871 128.391 105.423 128.391 105.423L119.771 109.801V109.789Z" fill="#FFAE82"/>
<path d="M121.886 101.832L125.623 123.902C125.679 124.251 125.983 124.499 126.298 124.443L137.496 122.552C137.812 122.496 138.014 122.169 137.958 121.82L134.221 99.7503C134.165 99.4014 133.861 99.1538 133.546 99.2101L122.348 101.101C122.033 101.157 121.83 101.484 121.886 101.832Z" fill="#1C1A12"/>
<path d="M134.491 117.915C130.71 118.647 126.996 123.013 122.607 123.013C120.041 123.013 117.846 120.526 117.295 115.979C116.901 112.715 118.679 109.575 121.594 108.056C124.385 106.604 128.594 104.646 132.364 103.847C138.262 102.598 137.98 104.263 137.947 105.715C137.935 106.334 137.294 106.627 136.348 107.145C136.348 107.145 137.373 106.908 137.361 108.337C137.35 109.767 136.427 110.397 136.427 110.397C136.427 110.397 137.361 111.185 137.193 111.995C137.024 112.817 136.529 113.458 136.529 113.458C136.529 113.458 137.609 113.582 137.947 114.876C138.127 115.552 137.947 117.24 134.491 117.904V117.915Z" fill="#FFAE82"/>
<path d="M116.102 109.114C116.102 109.114 114.92 117.24 117.25 123.52C118.251 124.038 119.771 123.902 120.862 123.475C120.862 123.475 118.274 117.003 119.759 108.664C118.488 108.304 116.597 108.383 116.102 109.114Z" fill="#1C1A12"/>
<path d="M121.853 111.534C121.976 113.458 120.018 115.135 117.497 115.293C114.976 115.45 112.826 114.021 112.714 112.096C112.59 110.172 114.548 108.495 117.069 108.337C119.59 108.18 121.74 109.609 121.853 111.534Z" fill="#1C1A12"/>
<path d="M121.853 111.815C122.01 114.527 120.018 115.923 117.497 116.081C114.976 116.238 112.703 114.854 112.714 112.096C112.714 110.172 114.548 109.294 117.069 109.137C119.59 108.979 121.751 109.902 121.864 111.815H121.853Z" fill="#1C1A12"/>
<path d="M117.441 114.314C115.629 114.426 114.087 113.391 113.997 112.018C113.907 110.633 115.314 109.429 117.126 109.305C118.938 109.193 120.48 110.228 120.57 111.601C120.66 112.986 119.253 114.19 117.441 114.302V114.314Z" fill="white"/>
<path d="M107.402 99.2438L106.501 98.1409L106.141 97.702L100.154 90.3978L99.7825 89.9476L93.2211 81.9344C94.5942 80.6176 96.1023 79.3684 99.6925 76.7798C99.9851 76.566 100.289 76.3522 100.615 76.1271C102.63 74.6865 105.241 72.8745 108.685 70.4998C111.138 68.8116 113.085 67.8437 114.875 67.3148C115.066 67.2585 115.257 67.2023 115.438 67.1572C116.529 66.8759 117.587 66.7633 118.69 66.7183C123.361 66.5382 127.671 69.3631 129.112 73.8087C129.821 76.0033 129.956 78.6931 128.527 81.6193C124.768 89.3061 107.391 99.2438 107.391 99.2438H107.402Z" fill="#4879F0"/>
<path d="M101.122 80.4713C100.964 80.4713 100.795 80.4038 100.683 80.2687C100.469 80.0211 100.492 79.6497 100.728 79.4359L104.003 76.521C104.239 76.3072 104.622 76.3296 104.836 76.566C105.05 76.8136 105.027 77.185 104.791 77.3988L101.516 80.3138C101.403 80.4151 101.268 80.4601 101.122 80.4601V80.4713Z" fill="#3339C9"/>
<path d="M123.181 73.9887C123.057 73.9887 122.944 73.955 122.843 73.8762L119.275 71.3326C119.005 71.1413 118.949 70.7699 119.14 70.511C119.332 70.2409 119.703 70.1847 119.962 70.376L123.53 72.9195C123.8 73.1109 123.856 73.4823 123.665 73.7411C123.552 73.8987 123.372 73.9887 123.181 73.9887Z" fill="#3339C9"/>
<path d="M119.624 87.1452C119.298 87.1452 119.039 86.8864 119.039 86.56L119.005 82.1708C119.005 81.8444 119.264 81.5743 119.59 81.5743C119.917 81.5743 120.176 81.8331 120.176 82.1595L120.209 86.5487C120.209 86.8751 119.951 87.1452 119.624 87.1452Z" fill="#3339C9"/>
<path d="M110.587 79.5484C110.317 79.5484 110.08 79.3684 110.013 79.0983C109.934 78.7831 110.125 78.4568 110.441 78.378L114.695 77.3088C115.01 77.23 115.325 77.4213 115.415 77.7365C115.494 78.0516 115.302 78.378 114.987 78.4567L110.733 79.5259C110.733 79.5259 110.632 79.5484 110.587 79.5484Z" fill="#3339C9"/>
<path d="M110.362 91.4107C110.148 91.4107 109.934 91.2869 109.833 91.0843L107.875 87.1565C107.728 86.8639 107.852 86.515 108.133 86.3687C108.426 86.2224 108.775 86.3462 108.921 86.6275L110.879 90.5553C111.026 90.848 110.902 91.1969 110.621 91.3432C110.531 91.3882 110.441 91.4107 110.362 91.4107Z" fill="#3339C9"/>
<path d="M107.21 99.5928C107.154 99.559 107.109 99.514 107.064 99.4577C106.94 99.2664 106.997 99.0188 107.188 98.895L122.933 88.6646C123.124 88.5408 123.372 88.5971 123.496 88.7884C123.62 88.9798 123.563 89.2274 123.372 89.3512L107.627 99.5815C107.492 99.6715 107.334 99.6715 107.21 99.5928Z" fill="#3339C9"/>
<path d="M119.163 91.8271C118.994 91.7371 118.915 91.5345 118.971 91.3544C119.039 91.1406 119.264 91.0168 119.478 91.0843L122.123 91.9172C122.337 91.9847 122.46 92.2098 122.393 92.4236C122.325 92.6374 122.1 92.7613 121.886 92.6937L119.242 91.8609C119.242 91.8609 119.185 91.8384 119.163 91.8271Z" fill="#3339C9"/>
<path d="M75.4502 120.875L115.28 134.493C115.28 134.493 107.897 169.326 90.7902 174.143C76.5307 178.16 59.919 167.03 64.3533 149.72C68.7876 132.411 75.4502 120.875 75.4502 120.875Z" fill="#A0CC3A"/>
<path d="M85.7819 126.615C85.7819 127.628 84.9603 128.449 83.9474 128.449C82.9345 128.449 82.1129 127.628 82.1129 126.615C82.1129 125.602 82.9345 124.78 83.9474 124.78C84.9603 124.78 85.7819 125.602 85.7819 126.615Z" fill="#A0CC3A"/>
<path d="M104.115 133.75C104.115 134.763 103.294 135.585 102.281 135.585C101.268 135.585 100.447 134.763 100.447 133.75C100.447 132.737 101.268 131.916 102.281 131.916C103.294 131.916 104.115 132.737 104.115 133.75Z" fill="#A0CC3A"/>
<path d="M91.5892 151.735C91.4204 150.035 90.1711 148.775 88.7981 147.751C87.2225 146.592 85.4555 145.759 84.8928 144.982C84.724 144.746 84.6677 144.521 84.7465 144.284C84.9378 143.767 85.5568 143.497 86.9411 143.969C87.0311 144.003 87.1212 144.037 87.2225 144.071C88.528 144.566 89.7772 145.432 90.9815 146.682C91.0715 146.772 91.1616 146.873 91.2516 146.963L91.9944 146.186L94.3803 143.665C93.7163 142.878 92.8722 142.157 91.9156 141.527C91.3866 141.178 90.8127 140.852 90.2274 140.559L90.7902 139.085L91.1616 138.106L87.9315 136.879L86.9861 139.377C83.0245 138.477 80.3122 139.94 79.3331 142.529C78.9954 143.407 78.9167 144.194 79.0179 144.903C79.153 145.826 79.5919 146.625 80.1997 147.312C81.2351 148.505 82.7319 149.405 83.9249 150.171C85.1404 150.958 86.0408 151.6 85.7819 152.275C85.5681 152.827 84.9041 152.939 83.3622 152.354C82.7207 152.106 82.0792 151.78 81.4602 151.386C80.3685 150.699 79.3668 149.81 78.624 148.876L75.3827 152.163C75.7654 152.658 76.2718 153.164 76.8683 153.659C77.915 154.526 79.243 155.359 80.6723 156L80.1434 157.396L79.7495 158.431L82.9795 159.658L83.9474 157.115C87.7402 157.846 90.3512 156.372 91.2854 153.896C91.5892 153.108 91.6793 152.388 91.6117 151.735H91.5892Z" fill="#A0CC3A"/>
<path d="M84.9603 119.018C83.7223 123.475 83.0583 126.345 83.0358 126.401C82.9232 126.907 83.2271 127.403 83.7336 127.515C84.24 127.628 84.7352 127.324 84.8478 126.817C84.8703 126.705 85.5005 124.038 86.6597 119.862C86.097 119.569 85.5455 119.254 84.9491 119.007L84.9603 119.018Z" fill="#1C1A12"/>
<path d="M108.82 70.7924C110.497 69.0142 112.23 67.5624 114.031 66.5495C117.036 64.8613 119.951 64.5236 122.922 65.514C124.7 66.1105 125.893 67.3035 126.557 69.1605C129.393 77.0387 122.449 94.1455 115.145 108.709C115.865 108.698 116.586 108.664 117.306 108.63C124.576 93.943 131.306 76.8586 128.313 68.5303C127.446 66.1218 125.825 64.5124 123.507 63.7358C120.052 62.5879 116.552 62.9818 113.108 64.9176C109.889 66.7295 106.704 69.8696 103.575 74.3038C105.185 73.1897 106.794 72.0754 108.336 70.8599C108.494 70.7361 108.662 70.7249 108.809 70.7924H108.82Z" fill="#1C1A12"/>
<path d="M107.132 123.711C103.8 129.586 101.561 133.165 101.471 133.3C101.201 133.739 101.336 134.313 101.763 134.583C101.921 134.684 102.09 134.729 102.259 134.729C102.574 134.729 102.877 134.572 103.046 134.29C103.406 133.716 105.905 129.901 109.371 123.756C108.64 123.779 107.852 123.7 107.12 123.711H107.132Z" fill="#1C1A12"/>
<path d="M153.692 105.186L153.973 105.817L154.243 106.413L154.795 107.595C155.166 108.371 155.549 109.148 155.931 109.924C156.708 111.466 157.496 112.997 158.306 114.516C159.128 116.036 159.96 117.555 160.838 119.052C161.716 120.56 162.616 122.057 163.562 123.554C164.507 125.05 165.509 126.525 166.567 128.01C167.625 129.496 168.75 130.982 170.022 132.467C170.663 133.21 171.327 133.964 172.07 134.718C172.813 135.472 173.623 136.237 174.58 137.014C174.828 137.205 175.075 137.408 175.334 137.599L175.739 137.892L175.84 137.959L175.998 138.061L176.324 138.275C176.797 138.567 177.304 138.849 177.911 139.119C178.519 139.377 179.194 139.614 179.96 139.783C180.725 139.951 181.58 140.041 182.436 140.019C183.302 139.996 184.169 139.85 184.968 139.625C185.767 139.4 186.487 139.085 187.095 138.747C187.714 138.41 188.243 138.038 188.704 137.678C189.155 137.318 189.537 136.958 189.886 136.609C190.224 136.26 190.516 135.922 190.775 135.596C191.293 134.943 191.698 134.335 192.047 133.761C192.734 132.613 193.217 131.567 193.634 130.576C194.05 129.586 194.388 128.629 194.692 127.707C194.996 126.784 195.255 125.872 195.502 124.983C195.986 123.193 196.391 121.46 196.751 119.75C197.112 118.028 197.427 116.339 197.719 114.651L198.158 112.142L198.563 109.654L199.34 104.736C199.588 103.115 199.858 101.517 200.116 99.9642C200.252 99.1876 200.387 98.4223 200.533 97.6795C200.668 96.9367 200.826 96.2277 200.983 95.5749L201.028 95.4061C201.816 92.131 199.801 88.8222 196.515 88.0344C193.476 87.3028 190.426 88.9797 189.368 91.8271C188.671 93.6954 188.153 95.3948 187.669 97.083C187.185 98.7712 186.769 100.426 186.341 102.057L183.944 111.691C183.539 113.267 183.133 114.809 182.706 116.328C182.289 117.848 181.839 119.322 181.366 120.729C181.31 120.898 181.254 121.066 181.186 121.235C181.153 121.19 181.108 121.134 181.074 121.089C180.995 120.976 180.905 120.864 180.826 120.751C180.736 120.627 180.646 120.504 180.556 120.38C180.218 119.918 179.881 119.434 179.543 118.951C178.688 117.713 177.855 116.418 177.033 115.101C176.201 113.785 175.39 112.434 174.603 111.061C173.803 109.699 173.004 108.315 172.228 106.908C171.451 105.513 170.675 104.106 169.921 102.699C169.538 101.99 169.155 101.292 168.784 100.583L167.692 98.5236L167.625 98.3885C165.621 94.5958 160.928 93.1552 157.135 95.1697C153.5 97.0942 152.037 101.517 153.692 105.22V105.186Z" fill="#FFAE82"/>
<path d="M178.384 128.067C178.362 128.269 178.497 128.461 178.699 128.483H178.71C178.902 128.506 179.082 128.359 179.116 128.168C179.464 125.512 180.432 122.732 181.085 121.066C181.006 120.954 180.916 120.841 180.838 120.729C180.747 120.605 180.657 120.481 180.567 120.357C180.444 120.661 180.309 121.01 180.151 121.415C180.038 121.708 179.926 122.023 179.813 122.361C179.251 123.981 178.654 126.052 178.384 128.078V128.067Z" fill="#A0CC3A"/>
<path d="M177.653 123.61C177.743 123.61 177.833 123.599 177.9 123.542C178.384 123.182 179.791 122.237 180.511 122.079C180.714 122.034 180.838 121.843 180.804 121.64C180.759 121.438 180.567 121.314 180.365 121.348C179.363 121.55 177.653 122.8 177.461 122.935C177.292 123.058 177.259 123.295 177.382 123.452C177.45 123.542 177.551 123.599 177.653 123.599V123.61Z" fill="#A0CC3A"/>
<path d="M190.156 92.1535C190.156 92.1535 192.677 98.2197 197.584 98.2647C201.557 98.2985 204.247 93.853 205.136 92.1535C205.35 91.7484 205.462 91.4895 205.462 91.4895C205.462 91.4895 205.744 91.4557 206.16 91.3432C207.139 91.0956 208.827 90.4879 209.233 89.1261C209.795 87.179 205.991 86.8414 205.991 86.8414C205.991 86.8414 207.421 84.7931 206.689 83.7239C205.969 82.6772 203.482 83.0036 203.482 83.0036C203.482 83.0036 205.699 80.6852 204.472 79.4134C202.626 77.5001 200.499 80.5839 200.319 80.764C200.443 80.5276 206.599 70.9613 204.596 70.7587C202.851 70.5899 197.022 78.2992 195.693 80.5164C195.48 80.8652 195.367 81.0678 195.367 81.0678C195.367 81.0678 195.243 81.0116 195.029 80.9328C194.017 80.5501 190.955 79.616 189.582 81.4505C187.917 83.6676 190.156 92.131 190.156 92.131V92.1535Z" fill="#FFAE82"/>
<path d="M201.917 88.3832C201.231 89.036 200.69 89.8463 200.612 90.5328C200.567 90.983 200.702 91.3544 201.017 91.6245C201.231 91.8046 201.568 91.9397 201.951 92.0184C202.919 92.2323 204.258 92.1985 205.136 92.1422C205.35 91.7371 205.462 91.4782 205.462 91.4782C205.462 91.4782 205.755 91.4445 206.171 91.3432C206.104 91.3094 206.036 91.2981 205.958 91.3094C204.551 91.467 202.109 91.5458 201.501 91.0393C201.422 90.9718 201.332 90.8592 201.366 90.6116C201.456 89.8463 202.559 88.5971 203.639 88.0456C203.808 87.9556 203.887 87.753 203.819 87.5729C203.752 87.3928 203.56 87.2915 203.369 87.3366C202.457 87.5616 199.914 88.0006 199.036 87.269C198.912 87.1677 198.912 87.0889 198.924 87.0439C198.946 86.8639 199.115 86.6388 199.362 86.4024C199.869 85.9185 200.724 85.3895 201.355 85.0632C201.422 85.0294 201.478 84.9731 201.512 84.9056C201.568 84.8043 201.58 84.6692 201.512 84.5567C201.422 84.3654 201.186 84.2978 201.006 84.3879C200.724 84.5342 199.734 85.0519 198.991 85.7046C198.721 85.941 198.485 86.1999 198.338 86.4587C198.237 86.6275 198.181 86.7964 198.158 86.9652C198.136 87.2015 198.181 87.5504 198.541 87.8543C199.317 88.4958 200.758 88.507 201.906 88.372L201.917 88.3832Z" fill="#A0CC3A"/>
<path d="M197.753 83.2287C197.877 83.33 197.933 83.4875 197.877 83.6338C197.731 84.1065 197.663 84.5455 197.742 84.8493C197.798 85.0857 197.922 85.1645 198.023 85.1982C198.181 85.2545 198.406 85.2545 198.687 85.2207C199.374 85.1307 200.342 84.7931 201.197 84.4329C201.163 84.5005 201.107 84.5567 201.039 84.5905C200.409 84.9056 199.554 85.4458 199.047 85.9298C198.957 85.9523 198.867 85.9635 198.788 85.9748C198.518 86.0086 198.259 86.0198 198.034 85.986C197.933 85.9748 197.854 85.9523 197.764 85.9185C197.37 85.7834 197.112 85.4683 197.01 85.0294C196.898 84.568 196.965 83.994 197.157 83.3975C197.235 83.1499 197.539 83.0599 197.742 83.2174L197.753 83.2287Z" fill="#A0CC3A"/>
<path d="M191.124 85.1194C191.214 85.1644 192.52 85.8622 193.927 86.1774C194.714 86.3574 195.525 86.4137 196.177 86.1774C196.718 85.986 197.112 85.6259 197.337 85.1082C198.136 83.2624 196.65 81.4505 195.693 80.5276C195.48 80.8765 195.367 81.0791 195.367 81.0791C195.367 81.0791 195.243 81.0228 195.029 80.944C195.84 81.6981 197.292 83.3075 196.639 84.8043C196.504 85.1307 196.267 85.3445 195.93 85.4571C194.658 85.896 192.283 84.8718 191.473 84.4442C191.293 84.3429 191.057 84.4104 190.955 84.6017C190.854 84.7818 190.922 85.0181 191.113 85.1194H191.124Z" fill="#A0CC3A"/>
<path d="M195.919 94.8883C196.042 94.9221 196.189 94.8883 196.279 94.7758C196.425 94.6182 196.414 94.3819 196.256 94.2356C195.435 93.4703 195.018 92.5812 195.041 91.602C195.097 89.0923 197.877 86.7176 197.899 86.6951C198.057 86.56 198.079 86.3237 197.944 86.1661C197.809 86.0085 197.573 85.9861 197.415 86.1211C197.292 86.2224 194.354 88.7434 194.287 91.5908C194.264 92.795 194.748 93.8755 195.739 94.7983C195.795 94.8433 195.851 94.8771 195.907 94.8883H195.919Z" fill="#A0CC3A"/>
<path d="M164.181 82.9923C164.181 82.9923 170.236 99.2326 174.749 105.344C174.749 105.344 167.58 115.844 156.865 116.565L150.777 104.578C150.777 104.578 155.605 84.9394 164.181 82.9811V82.9923Z" fill="#4879F0"/>
<path d="M167.85 106.042C167.613 106.042 167.4 105.907 167.298 105.67L165.666 101.607C165.543 101.303 165.689 100.966 165.993 100.842C166.297 100.718 166.634 100.864 166.758 101.168L168.39 105.231C168.514 105.535 168.367 105.873 168.064 105.997C167.996 106.03 167.917 106.042 167.839 106.042H167.85Z" fill="#3339C9"/>
<path d="M158.767 111.174C158.666 111.174 158.554 111.14 158.452 111.084C158.171 110.915 158.092 110.543 158.261 110.273L160.568 106.548C160.737 106.267 161.097 106.188 161.378 106.357C161.66 106.526 161.739 106.897 161.57 107.167L159.263 110.892C159.15 111.072 158.959 111.174 158.767 111.174Z" fill="#3339C9"/>
<path d="M154.063 111.106C154.063 111.106 154.063 111.106 154.052 111.106C153.838 111.027 153.725 110.791 153.804 110.577C153.849 110.465 158.182 98.8949 161.952 93.2002C162.076 93.0088 162.335 92.9526 162.526 93.0876C162.718 93.2114 162.774 93.4703 162.639 93.6616C158.925 99.2776 154.626 110.757 154.581 110.87C154.502 111.084 154.277 111.185 154.063 111.117V111.106Z" fill="#3339C9"/>
<path d="M159.128 99.2776C159.004 99.2326 158.902 99.1313 158.857 98.9962C158.79 98.7824 158.914 98.5461 159.139 98.4785L162.526 97.4881C162.74 97.4206 162.977 97.5444 163.044 97.7695C163.112 97.9833 162.988 98.2197 162.763 98.2872L159.375 99.2776C159.296 99.3001 159.206 99.3001 159.128 99.2776Z" fill="#3339C9"/>
<path d="M314.654 351.626H389.958L379.592 267.814H325.019L314.654 351.626Z" fill="#CC8E3E"/>
<path d="M318.458 351.626H393.773L383.396 267.814H328.834L318.458 351.626Z" fill="#FFB64C"/>
<path d="M367.82 312.528C366.672 310.086 364.162 308.837 361.574 308.026C358.614 307.115 355.541 306.777 354.303 305.911C353.921 305.652 353.718 305.336 353.729 304.943C353.752 304.065 354.528 303.356 356.847 303.333C356.993 303.333 357.151 303.333 357.32 303.333C359.525 303.389 361.844 304.031 364.286 305.28C364.466 305.37 364.646 305.472 364.838 305.573L365.535 304.02L367.786 299.011C366.391 298.179 364.748 297.537 362.992 297.098C362.013 296.851 361 296.659 359.964 296.535L360.032 294.037L360.077 292.383L354.596 292.225L354.472 296.457C348.08 297.166 344.793 300.767 344.669 305.156C344.624 306.642 344.917 307.858 345.446 308.87C346.121 310.187 347.202 311.133 348.462 311.864C350.634 313.113 353.347 313.676 355.519 314.205C357.747 314.745 359.424 315.24 359.39 316.388C359.368 317.323 358.411 317.84 355.811 317.761C354.731 317.728 353.594 317.57 352.469 317.3C350.488 316.827 348.518 316.028 346.92 315.015L343.78 321.61C344.613 322.151 345.626 322.657 346.774 323.085C348.789 323.839 351.208 324.39 353.684 324.615L353.617 326.979L353.561 328.735L359.041 328.892L359.165 324.582C365.209 323.704 368.349 320.136 368.462 315.95C368.495 314.61 368.259 313.485 367.82 312.539V312.528Z" fill="#A0CC3A"/>
<path d="M365.524 272.012C365.524 273.43 366.672 274.589 368.101 274.589C369.531 274.589 370.679 273.441 370.679 272.012C370.679 270.583 369.531 269.435 368.101 269.435C366.672 269.435 365.524 270.583 365.524 272.012Z" fill="#A0CC3A"/>
<path d="M339.211 272.012C339.211 273.43 340.359 274.589 341.788 274.589C343.218 274.589 344.366 273.441 344.366 272.012C344.366 270.583 343.218 269.435 341.788 269.435C340.359 269.435 339.211 270.583 339.211 272.012Z" fill="#A0CC3A"/>
<path d="M368.034 271.708C368.63 271.697 369.103 271.179 369.08 270.583C368.945 267.972 368.495 261.084 367.066 254.264C364.567 242.266 360.392 236.178 354.652 236.178C348.912 236.178 344.827 242.266 342.554 254.275C341.259 261.095 340.933 267.983 340.843 270.594C340.82 271.19 341.304 271.697 341.901 271.697C342.486 271.697 342.97 271.235 342.981 270.65C343.218 260.724 345.66 238.316 354.652 238.316C363.645 238.316 366.514 260.735 366.942 270.673C366.965 271.258 367.46 271.719 368.045 271.697L368.034 271.708Z" fill="#1C1A12"/>
<path d="M363.251 271.708C363.836 271.697 364.286 271.202 364.264 270.616C364.14 268.095 363.69 261.421 362.317 254.826C359.897 243.223 355.856 237.337 350.308 237.337C344.76 237.337 340.809 243.223 338.603 254.849C337.354 261.444 337.028 268.107 336.949 270.639C336.926 271.224 337.399 271.697 337.973 271.708C338.536 271.708 339.008 271.269 339.02 270.695C339.256 261.095 341.608 239.43 350.297 239.43C358.985 239.43 361.765 261.106 362.181 270.718C362.204 271.28 362.677 271.731 363.251 271.708Z" fill="#1C1A12"/>
<path d="M324.895 306.394C325.357 306.372 325.717 305.775 325.672 305.078C325.537 302.782 325.075 297.728 323.545 292.619C320.81 283.469 315.97 278.63 309.555 278.63C303.14 278.63 298.368 283.48 295.802 292.641C294.373 297.751 294.002 302.793 293.912 305.1C293.878 305.798 294.249 306.383 294.722 306.383C295.15 306.383 295.499 305.888 295.532 305.246C295.622 303.108 295.971 298.28 297.311 293.519C299.64 285.247 303.759 281.049 309.555 281.049C315.351 281.049 319.583 285.27 322.082 293.609C323.5 298.37 323.939 303.153 324.062 305.28C324.096 305.922 324.456 306.406 324.884 306.383L324.895 306.394Z" fill="#1C1A12"/>
<path d="M271.616 351.649H348.935L341.822 297.166H278.741L271.616 351.649Z" fill="#3339C9"/>
<path d="M275.691 351.649H353.009L345.896 297.166H282.815L275.691 351.649Z" fill="#4879F0"/>
<path d="M300.045 324.863C300.045 332.752 306.46 339.168 314.361 339.168C322.262 339.168 328.666 332.752 328.666 324.863C328.666 316.974 322.25 310.559 314.361 310.559C306.472 310.559 300.045 316.974 300.045 324.863ZM308.07 330.153C307.597 328.6 307.349 326.911 307.304 325.144H313.776V330.153H308.07ZM311.446 337.705C307.811 336.883 304.716 334.576 302.881 331.301H307.237C307.833 332.989 308.678 334.531 309.724 335.859C310.253 336.534 310.838 337.153 311.446 337.693V337.705ZM313.776 331.301V338.008C313.337 337.749 311.975 336.86 310.602 335.105C309.724 333.979 309.004 332.696 308.464 331.289H313.776V331.301ZM308.779 317.818C310.309 314.441 312.549 312.359 313.269 311.752C313.438 311.74 313.607 311.729 313.776 311.718V317.818H308.779ZM303.242 317.818C305.076 314.937 307.968 312.866 311.255 312.067C310.602 312.753 309.994 313.496 309.443 314.295C308.678 315.398 308.025 316.58 307.518 317.807H303.242V317.818ZM307.316 323.985C307.383 322.275 307.721 320.586 308.306 318.977H313.776V323.985H307.316ZM301.227 323.985C301.34 322.23 301.801 320.541 302.589 318.977H307.091C306.539 320.598 306.235 322.286 306.168 323.985H301.227ZM306.157 325.133C306.19 326.889 306.438 328.577 306.877 330.141H302.307C301.61 328.555 301.238 326.866 301.205 325.133H306.168H306.157ZM322.408 325.133H327.506C327.473 326.878 327.101 328.566 326.403 330.141H321.699C322.138 328.577 322.374 326.889 322.419 325.133H322.408ZM314.924 317.818V311.718C315.048 311.718 315.171 311.729 315.284 311.74C315.779 312.157 316.983 313.26 318.188 314.993C318.807 315.882 319.347 316.839 319.786 317.829H314.913L314.924 317.818ZM320.258 318.966C320.844 320.586 321.181 322.275 321.249 323.974H314.924V318.966H320.258ZM321.046 317.818C320.529 316.591 319.887 315.398 319.122 314.306C318.559 313.496 317.94 312.731 317.276 312.033C320.641 312.798 323.59 314.88 325.458 317.818H321.046ZM321.26 325.133C321.215 326.911 320.967 328.6 320.495 330.141H314.924V325.133H321.26ZM322.408 323.985C322.341 322.286 322.037 320.598 321.485 318.977H326.111C326.899 320.553 327.36 322.241 327.484 323.985H322.408ZM325.829 331.301C323.972 334.587 320.754 336.962 317.085 337.738C317.715 337.176 318.311 336.545 318.852 335.859C319.898 334.519 320.742 332.989 321.339 331.301H325.829ZM320.101 331.301C318.514 335.42 315.79 337.389 314.924 337.93V331.301H320.101Z" fill="#3339C9"/>
<path d="M297.007 302.106C297.007 303.547 298.11 304.718 299.483 304.718C300.856 304.718 301.959 303.547 301.959 302.106C301.959 300.666 300.856 299.507 299.483 299.507C298.11 299.507 297.007 300.677 297.007 302.106Z" fill="#3339C9"/>
<path d="M326.887 302.106C326.887 303.547 327.99 304.718 329.363 304.718C330.736 304.718 331.839 303.547 331.839 302.106C331.839 300.666 330.736 299.507 329.363 299.507C327.99 299.507 326.887 300.677 326.887 302.106Z" fill="#3339C9"/>
<path d="M329.42 302.838C329.003 302.838 328.654 302.523 328.609 302.106C328.35 299.675 327.833 296.333 326.842 293.013C324.355 284.684 320.135 280.453 314.316 280.453C308.497 280.453 304.401 284.651 302.071 292.923C301.126 296.265 300.676 299.642 300.462 302.095C300.428 302.512 300.079 302.838 299.651 302.838C299.179 302.838 298.807 302.433 298.841 301.96C299.066 299.349 299.539 295.725 300.563 292.056C303.129 282.884 307.89 278.044 314.316 278.044C320.742 278.044 325.571 282.884 328.305 292.034C329.397 295.703 329.949 299.338 330.219 301.949C330.264 302.433 329.892 302.849 329.408 302.849L329.42 302.838Z" fill="#1C1A12"/>
<path d="M172.959 174.255H172.824C169.122 174.255 165.633 172.792 163.022 170.17C160.411 167.547 158.97 164.059 158.981 160.345V160.243C159.004 152.602 165.228 146.4 172.858 146.4H172.993C180.646 146.423 186.859 152.658 186.836 160.311V160.412C186.836 164.115 185.373 167.604 182.751 170.215C180.128 172.826 176.651 174.255 172.959 174.255ZM172.926 173.31H172.959C176.403 173.31 179.645 171.97 182.076 169.54C184.529 167.097 185.88 163.856 185.88 160.401V160.3C185.891 153.175 180.106 147.357 172.982 147.334H172.847C165.734 147.334 159.927 153.119 159.915 160.232V160.333C159.915 163.788 161.243 167.041 163.686 169.483C166.128 171.937 169.369 173.287 172.824 173.287H172.926V173.31Z" fill="#8EAAB3"/>
<path d="M173.139 169.562C173.016 169.562 172.892 169.506 172.802 169.427L166.083 162.674C165.047 161.628 164.473 160.232 164.473 158.746C164.473 157.261 165.059 155.877 166.094 154.83C167.017 153.907 168.176 153.468 169.38 153.592C170.742 153.727 172.07 154.571 173.162 155.978C174.265 154.571 175.593 153.738 176.955 153.614C178.159 153.502 179.318 153.952 180.241 154.864C181.276 155.91 181.85 157.306 181.85 158.78C181.85 160.266 181.265 161.65 180.219 162.697L173.466 169.416C173.376 169.506 173.252 169.551 173.128 169.551L173.139 169.562ZM168.998 154.526C168.187 154.526 167.422 154.864 166.769 155.505C165.903 156.372 165.43 157.52 165.419 158.746C165.419 159.973 165.892 161.132 166.747 161.999L173.128 168.414L179.543 162.033C180.41 161.166 180.883 160.018 180.894 158.791C180.894 157.565 180.421 156.405 179.566 155.539C178.845 154.807 177.968 154.47 177.045 154.56C175.807 154.672 174.569 155.561 173.556 157.058C173.466 157.193 173.319 157.272 173.162 157.272C173.004 157.272 172.858 157.193 172.768 157.058C171.766 155.561 170.528 154.672 169.29 154.548C169.189 154.548 169.088 154.537 168.998 154.537V154.526Z" fill="#8EAAB3"/>
<path d="M81.0775 65.4578H76.9021C76.3844 65.4578 75.968 65.0414 75.968 64.5237V60.0106H71.4549C70.9372 60.0106 70.5208 59.5942 70.5208 59.0765V54.9011C70.5208 54.3833 70.9372 53.9669 71.4549 53.9669H75.968V49.4539C75.968 48.9362 76.3844 48.5198 76.9021 48.5198H81.0775C81.5952 48.5198 82.0116 48.9362 82.0116 49.4539V53.9669H86.5247C87.0424 53.9669 87.4588 54.3833 87.4588 54.9011V59.0765C87.4588 59.5942 87.0424 60.0106 86.5247 60.0106H82.0116V64.5237C82.0116 65.0414 81.5952 65.4578 81.0775 65.4578ZM71.4549 54.811C71.4549 54.811 71.3649 54.856 71.3649 54.9011V59.0765C71.3649 59.0765 71.4099 59.1665 71.4549 59.1665H76.8121V64.5237C76.8121 64.5237 76.8571 64.6137 76.9021 64.6137H81.0775C81.0775 64.6137 81.1675 64.5687 81.1675 64.5237V59.1665H86.5247C86.5247 59.1665 86.6147 59.1215 86.6147 59.0765V54.9011C86.6147 54.9011 86.5697 54.811 86.5247 54.811H81.1675V49.4539C81.1675 49.4539 81.1225 49.3639 81.0775 49.3639H76.9021C76.9021 49.3639 76.8121 49.4089 76.8121 49.4539V54.811H71.4549Z" fill="#8EAAB3"/>
<path d="M414.02 314.205H409.844C409.327 314.205 408.91 313.789 408.91 313.271V308.758H404.397C403.879 308.758 403.463 308.341 403.463 307.824V303.648C403.463 303.131 403.879 302.714 404.397 302.714H408.91V298.201C408.91 297.683 409.327 297.267 409.844 297.267H414.02C414.537 297.267 414.954 297.683 414.954 298.201V302.714H419.467C419.985 302.714 420.401 303.131 420.401 303.648V307.824C420.401 308.341 419.985 308.758 419.467 308.758H414.954V313.271C414.954 313.789 414.537 314.205 414.02 314.205ZM404.408 303.558C404.408 303.558 404.318 303.603 404.318 303.648V307.824C404.318 307.824 404.363 307.914 404.408 307.914H409.766V313.271C409.766 313.271 409.811 313.361 409.856 313.361H414.031C414.031 313.361 414.121 313.316 414.121 313.271V307.914H419.478C419.478 307.914 419.568 307.869 419.568 307.824V303.648C419.568 303.648 419.523 303.558 419.478 303.558H414.121V298.201C414.121 298.201 414.076 298.111 414.031 298.111H409.856C409.856 298.111 409.766 298.156 409.766 298.201V303.558H404.408Z" fill="#8EAAB3"/>
<path d="M118.251 36.5337L112.444 30.2424C109.867 31.3003 106.985 31.8631 104.093 31.8631C93.7051 31.8631 85.2642 24.8965 85.2642 16.3431C85.2642 7.78969 93.7163 0.823135 104.093 0.823135C114.47 0.823135 122.944 7.78969 122.944 16.3431C122.944 20.5185 120.885 24.5364 117.272 27.4288L119.05 36.1173C119.095 36.3311 118.994 36.5337 118.803 36.635C118.735 36.6688 118.656 36.6913 118.589 36.6913C118.454 36.6913 118.33 36.635 118.24 36.5337H118.251ZM86.2096 16.3431C86.2096 24.3788 94.234 30.9177 104.093 30.9177C106.974 30.9177 109.833 30.3437 112.376 29.2408C112.556 29.162 112.781 29.207 112.917 29.3533L117.79 34.6429L116.293 27.3388C116.259 27.1587 116.327 26.9786 116.473 26.8661C119.996 24.1425 122.01 20.3159 122.01 16.3543C122.01 8.31863 113.974 1.77978 104.104 1.77978C94.234 1.77978 86.2208 8.31863 86.2208 16.3543L86.2096 16.3431Z" fill="#8EAAB3"/>
<path d="M108.977 16.0955C108.977 14.4073 110.35 13.0343 112.039 13.0343C113.727 13.0343 115.1 14.4073 115.1 16.0955C115.1 17.7837 113.727 19.1567 112.039 19.1567C110.35 19.1567 108.977 17.7837 108.977 16.0955ZM109.934 16.0955C109.934 17.2547 110.879 18.2001 112.039 18.2001C113.198 18.2001 114.143 17.2547 114.143 16.0955C114.143 14.9363 113.198 13.9909 112.039 13.9909C110.879 13.9909 109.934 14.9363 109.934 16.0955Z" fill="#8EAAB3"/>
<path d="M100.885 16.0955C100.885 14.4073 102.259 13.0343 103.947 13.0343C105.635 13.0343 107.008 14.4073 107.008 16.0955C107.008 17.7837 105.635 19.1567 103.947 19.1567C102.259 19.1567 100.885 17.7837 100.885 16.0955ZM101.842 16.0955C101.842 17.2547 102.787 18.2001 103.947 18.2001C105.106 18.2001 106.051 17.2547 106.051 16.0955C106.051 14.9363 105.106 13.9909 103.947 13.9909C102.787 13.9909 101.842 14.9363 101.842 16.0955Z" fill="#8EAAB3"/>
<path d="M92.8047 16.0955C92.8047 14.4073 94.1778 13.0343 95.8659 13.0343C97.5541 13.0343 98.9272 14.4073 98.9272 16.0955C98.9272 17.7837 97.5541 19.1567 95.8659 19.1567C94.1778 19.1567 92.8047 17.7837 92.8047 16.0955ZM93.7501 16.0955C93.7501 17.2547 94.6955 18.2001 95.8547 18.2001C97.0139 18.2001 97.9593 17.2547 97.9593 16.0955C97.9593 14.9363 97.0139 13.9909 95.8547 13.9909C94.6955 13.9909 93.7501 14.9363 93.7501 16.0955Z" fill="#8EAAB3"/>
</svg>
