<svg width="129" height="108" viewBox="0 0 129 108" fill="none" xmlns="http://www.w3.org/2000/svg">
<path d="M128.705 55.6366C128.525 57.2366 128.375 58.8367 128.155 60.4267C126.995 68.7567 123.715 76.2067 118.725 82.9267C112.715 91.0167 104.905 96.8567 95.8749 101.157C89.1549 104.357 82.0749 106.357 74.7149 107.347C68.8049 108.137 62.8849 108.177 56.9349 107.647C47.9749 106.847 39.4349 104.547 31.4149 100.457C20.0449 94.6567 10.9549 86.4467 5.06493 74.9767C2.30493 69.5867 0.644901 63.8568 0.164901 57.7968C-0.955099 43.6768 3.66489 31.5168 12.9649 21.0568C20.8349 12.2068 30.7549 6.57664 41.9849 3.13664C49.8249 0.736639 57.8749 -0.233205 66.0549 0.0467955C75.9349 0.376796 85.5249 2.1467 94.6049 6.1967C105.255 10.9567 114.285 17.7666 120.735 27.6366C124.935 34.0666 127.575 41.1168 128.345 48.8068C128.455 49.8568 128.585 50.9067 128.715 51.9567V55.6366H128.705ZM65.4249 106.397C66.9149 106.307 69.4949 106.247 72.0649 105.997C78.4449 105.397 84.6449 103.947 90.6249 101.627C100.615 97.7466 109.355 92.0566 116.095 83.6266C124.465 73.1866 128.265 61.3467 126.605 47.9167C125.805 41.4167 123.565 35.4168 120.205 29.8368C115.075 21.3268 107.795 15.0468 99.1849 10.2668C89.9249 5.12677 79.9249 2.55663 69.3849 1.87663C60.7149 1.31663 52.1649 1.89678 43.7949 4.27678C31.5649 7.74678 20.9349 13.8368 12.7349 23.7568C6.74491 31.0068 2.9849 39.2567 1.8549 48.6567C1.0549 55.3667 1.74493 61.9268 3.94493 68.3068C7.74493 79.3068 14.9049 87.7368 24.3049 94.3168C36.2949 102.717 49.7949 106.297 65.4049 106.387L65.4249 106.397Z" fill="#424242"/>
<path d="M119.735 60.1967C113.715 57.2767 107.395 55.3867 100.735 54.6567C92.0649 53.7067 83.6149 54.7669 75.3949 57.6169C70.4949 59.3169 65.6849 61.2668 60.7249 62.7868C53.0749 65.1368 45.1849 65.9967 37.1949 65.4167C29.3749 64.8467 21.9149 62.9268 15.4349 58.2468C11.6649 55.5268 8.64494 52.1068 6.43494 47.9968C6.29494 47.7268 6.18492 47.4368 6.10492 47.2568C8.75492 49.1468 11.3749 51.1867 14.1649 52.9667C19.3049 56.2467 24.9349 58.2767 30.9949 59.1867C41.1449 60.7167 50.8349 58.9368 60.2549 55.2468C64.3349 53.6468 68.3249 51.8268 72.4049 50.2468C79.1249 47.6568 86.1249 46.7267 93.3049 47.1967C101.155 47.7067 108.355 50.0867 114.625 54.9167C116.545 56.3967 118.205 58.2267 119.985 59.8967C119.895 59.9967 119.805 60.0967 119.725 60.1867L119.735 60.1967Z" fill="#424242"/>
<path d="M92.0949 26.6467C94.3849 26.6467 96.5049 26.6467 98.6249 26.6467C99.2949 26.6467 99.1749 27.1568 99.1749 27.5568C99.1749 30.5968 99.1749 33.6267 99.1749 36.6667C99.1749 37.6067 99.2749 38.5567 99.1449 39.4767C98.9649 40.8067 99.5449 41.6069 100.555 42.3569C103.135 44.2869 105.655 46.2969 108.315 48.3569C106.025 47.7169 103.895 47.0568 101.725 46.5368C99.9449 46.1068 98.1149 45.8768 96.3149 45.5168C95.8649 45.4268 95.3749 45.2467 95.0149 44.9667C85.7849 37.7467 76.5749 30.4968 67.3549 23.2668C63.9549 20.5968 60.5249 17.9568 57.1349 15.2768C56.6149 14.8668 56.2949 14.9368 55.8149 15.3168C49.0149 20.7168 42.1949 26.0967 35.3949 31.4867C30.8949 35.0567 26.4049 38.6467 21.9049 42.2167C21.6849 42.3867 21.4049 42.5868 21.1549 42.5868C18.4549 42.6168 15.7549 42.6069 12.8049 42.6069C13.5649 41.9669 14.1349 41.4667 14.7249 40.9867C25.7849 32.1267 36.8549 23.2767 47.9249 14.4167C50.4449 12.3967 52.9549 10.3768 55.4449 8.31682C56.0749 7.79682 56.4749 7.68678 57.2249 8.27678C66.1249 15.2868 75.0749 22.2367 83.9949 29.2167C86.6649 31.2967 89.3049 33.4069 92.0849 35.6169V26.6467H92.0949Z" fill="#424242"/>
<path d="M51.9649 80.8168C51.0849 80.8168 50.3849 80.8768 49.6949 80.7868C49.3749 80.7468 49.0049 80.4767 48.8149 80.1967C48.0249 79.0267 47.2949 77.8069 46.5349 76.6169C46.3449 76.3269 46.1449 76.0469 46.0049 75.8369C43.7649 76.8769 44.1849 78.8768 44.1849 80.7668H41.9549V69.7167H44.1549V74.8068C44.6449 74.2368 44.9549 73.8568 45.2849 73.4968C46.0149 72.6768 46.8949 71.9568 47.4549 71.0368C48.4749 69.3568 49.9649 69.6067 51.6849 69.6667C50.2649 71.2167 48.9649 72.6168 47.6449 74.0568C49.0749 76.2868 50.4849 78.4969 51.9749 80.8369L51.9649 80.8168Z" fill="#424242"/>
<path d="M75.3349 76.9068C76.1249 77.0868 76.8349 77.2468 77.5549 77.4068C77.3749 79.3068 75.4949 80.8969 73.3249 81.0169C70.7049 81.1669 68.575 79.6369 68.005 77.0669C67.475 74.6669 67.8149 72.4368 69.7349 70.6768C72.2849 68.3368 76.5549 69.5869 77.5149 73.0469C76.7949 73.2369 76.0649 73.427 75.3549 73.617C74.2949 71.707 73.1049 71.1269 71.7649 71.9969C71.1949 72.3669 70.7149 73.0568 70.4549 73.6968C69.9649 74.9468 70.1449 76.2468 70.6549 77.4668C71.0849 78.4968 71.9349 78.9268 73.0449 78.9168C74.3349 78.9068 74.9049 78.0768 75.3349 76.8968V76.9068Z" fill="#424242"/>
<path d="M87.7849 76.7067C87.7849 79.2167 86.0549 81.0068 83.5849 81.0268C81.0449 81.0468 79.3849 79.3668 79.3949 76.7668C79.3949 74.1168 81.0449 72.3568 83.5649 72.3368C86.0849 72.3168 87.7749 74.0667 87.7849 76.7067ZM81.5749 76.5068C81.6349 76.5368 81.6849 76.5668 81.7449 76.5968C81.7749 76.9468 81.7649 77.3067 81.8449 77.6467C82.0449 78.4867 82.4649 79.1367 83.4549 79.1567C84.3949 79.1867 85.1149 78.7468 85.2349 77.7468C85.3349 76.8668 85.2649 75.8768 84.9549 75.0468C84.5849 74.0568 83.1149 73.8567 82.4549 74.6567C82.0349 75.1667 81.8649 75.8768 81.5749 76.4968V76.5068Z" fill="#424242"/>
<path d="M49.5349 25.8669H54.7149V31.2869H49.5349V25.8669Z" fill="#424242"/>
<path d="M62.2849 31.2869H57.0849V25.8767H62.2849V31.2869Z" fill="#424242"/>
<path d="M49.5249 38.8169V33.4468H54.7249V38.8169H49.5249Z" fill="#424242"/>
<path d="M57.1249 33.4568H62.3049V38.8369H57.1249V33.4568Z" fill="#424242"/>
<path d="M60.8149 80.7668H58.5649V69.6868H60.8149V80.7668Z" fill="#424242"/>
<path d="M55.9149 80.7668H53.9049V78.3867H55.9149V80.7668Z" fill="#424242"/>
<path d="M63.6449 78.3867H65.6449V80.7468H63.6449V78.3867Z" fill="#424242"/>
<path d="M91.6749 78.4268C91.6749 79.0868 91.6749 79.6668 91.6749 80.2468C91.6749 80.3968 91.6449 80.5568 91.6249 80.7668H89.5549V78.4268H91.6749Z" fill="#424242"/>
</svg>
