<svg width="105" height="108" viewBox="0 0 105 108" fill="none" xmlns="http://www.w3.org/2000/svg">
<path d="M96.7534 58.8159C97.2734 59.6759 96.9734 60.3359 96.4334 61.0259C95.3234 62.4459 95.5934 63.916 97.1334 64.876C97.6534 65.206 98.2634 65.3958 98.7834 65.7058C99.0234 65.8458 99.2334 66.126 99.3234 66.386C99.4634 66.806 99.4934 67.276 99.5934 67.856C100.433 67.856 101.293 67.8959 102.153 67.8459C102.813 67.8059 103.013 68.0958 102.963 68.6958C102.943 68.9358 102.933 69.1858 102.963 69.4158C103.183 70.9858 102.803 72.2858 101.433 73.2358C101.213 73.3858 101.093 73.816 101.093 74.116C101.063 76.256 101.093 78.3959 101.083 80.5459C101.083 80.9759 101.243 81.1658 101.663 81.1758C102.363 81.1758 103.053 81.2158 103.753 81.2158C104.513 81.2158 104.803 81.446 104.823 82.136C104.843 82.866 104.523 83.2258 103.803 83.2358C101.953 83.2558 100.093 83.2559 98.2434 83.2458C88.2834 83.2458 78.3234 83.2258 68.3534 83.2258C54.7334 83.2258 41.1134 83.2258 27.5034 83.2158C20.2634 83.2158 13.0134 83.2158 5.77338 83.2158C5.46338 83.2158 5.14338 83.2258 4.84338 83.1658C4.32338 83.0558 4.01339 82.7158 3.97339 82.1558C3.93339 81.6458 4.08341 81.2659 4.62341 81.0959C6.65341 80.466 6.97342 78.3059 6.38342 76.8459C5.99342 75.8859 5.5834 74.9458 5.2334 73.9758C4.7734 72.6758 4.69341 71.3559 5.18341 70.0259C5.23341 69.8859 5.21341 69.6559 5.12341 69.5359C4.09341 68.2359 4.11342 66.7359 4.44342 65.2659C4.85342 63.4459 5.48337 61.676 5.95337 59.866C6.13337 59.166 6.14341 58.4158 6.24341 57.6758C5.50341 57.7258 4.90342 57.8259 4.31342 57.7859C2.15342 57.6659 0.433426 56.1159 0.0734257 54.0359C-0.306574 51.8459 0.813394 49.756 2.85339 48.856C4.67339 48.056 6.53339 47.806 8.47339 48.366C8.53339 48.386 8.60339 48.366 8.72339 48.366C8.45339 46.186 7.76337 44.1459 7.08337 42.0959C6.36337 39.9359 5.58337 37.7759 5.14337 35.5459C4.29337 31.3059 6.77337 27.376 10.7034 26.386C11.1034 26.286 11.5134 26.1258 11.9034 26.1658C12.8534 26.2758 13.4234 25.8058 14.0434 25.1758C15.4934 23.6858 17.3934 23.1558 19.3934 22.9858C19.8934 22.9458 20.1934 22.766 20.4934 22.356C21.9934 20.316 25.3534 19.8259 27.5134 21.3159C28.0034 21.6559 28.5034 22.0359 28.8534 22.5059C29.2034 22.9759 29.5834 23.076 30.1234 23.106C32.3334 23.246 34.2734 24.036 35.8534 25.636C36.0334 25.816 36.3234 25.9659 36.5734 26.0059C41.0534 26.6559 43.5234 29.7659 43.2434 34.3059C43.0834 36.8659 42.1534 39.2059 41.3334 41.5859C40.6534 43.5759 40.0834 45.616 39.4734 47.626C39.4034 47.846 39.4134 48.0858 39.3834 48.4058C41.1134 47.9458 42.7634 47.9659 44.3934 48.5459C45.9634 49.0959 47.1834 50.046 47.8334 51.616C49.0834 54.646 46.6434 58.0059 43.3734 57.7859C42.9434 57.7559 42.5234 57.696 42.0434 57.636C41.8834 59.096 42.3034 60.4559 42.6734 61.8159C43.0534 63.1759 43.5334 64.516 43.8834 65.886C44.2134 67.166 43.9034 68.3558 43.1734 69.4558C43.0334 69.6658 43.0034 70.0159 43.0734 70.2659C43.4734 71.6759 43.2934 73.026 42.7734 74.356C42.4834 75.116 42.1134 75.846 41.8134 76.606C41.1134 78.376 41.6934 80.1458 43.2334 80.9558C43.4534 81.0758 43.7334 81.1458 43.9834 81.1458C47.4934 81.1558 51.0134 81.1458 54.5234 81.1458C54.6634 81.1458 54.8334 81.186 54.9534 81.116C55.1434 81.016 55.3934 80.8658 55.4234 80.6958C55.4534 80.5258 55.3134 80.206 55.1534 80.136C54.8434 79.986 54.4734 79.886 54.1234 79.886C51.1134 79.846 48.1134 79.8459 45.1034 79.8059C44.6334 79.8059 44.1334 79.7459 43.6934 79.5859C42.4134 79.1159 42.2134 77.8959 43.2434 76.9958C43.5334 76.7458 43.8334 76.4959 44.1534 76.2859C45.9334 75.0659 46.7534 73.3258 46.9234 71.2258C46.9634 70.7258 46.9834 70.2158 46.9634 69.7158C46.9634 69.5358 46.8634 69.2758 46.7234 69.1858C45.0634 68.1658 45.6934 66.0658 47.2834 65.6558C47.3434 65.6358 47.4034 65.5859 47.4834 65.5359C45.8834 64.1059 45.7334 62.2259 45.7134 60.2759C45.7034 59.1359 45.8734 58.1959 47.0934 57.7458C47.3734 57.6459 47.5934 57.3858 47.8534 57.1958C47.7334 58.3758 47.4934 59.5258 47.5434 60.6758C47.5934 61.6258 47.8734 62.6158 48.2734 63.4858C48.7134 64.4658 49.2934 64.4258 49.8234 63.4858C50.5934 62.1158 50.5234 60.606 50.4534 59.126C50.2234 54.776 49.9334 50.4359 49.6734 46.0959C49.5634 44.2459 49.4834 42.4059 49.3934 40.5159H48.3934C48.3234 43.5359 48.2434 46.536 48.1734 49.626C47.4434 48.846 46.4534 48.4359 46.6134 47.0159C46.8434 45.0159 46.7934 42.9858 46.8634 40.9658C46.8834 40.4658 46.8034 40.0658 46.3934 39.6858C45.3334 38.7158 45.4134 37.4959 46.5134 36.5159C46.9834 36.1059 46.9034 35.056 46.4334 34.636C45.6634 33.956 44.9034 33.2759 44.2234 32.5159C44.0334 32.3059 44.0034 31.8059 44.1134 31.5159C44.2034 31.2759 44.5934 31.0659 44.8834 31.0159C45.3934 30.9359 45.9334 30.9958 46.6334 30.9958C46.6334 29.5458 46.6334 28.1358 46.6334 26.7258C46.6334 23.7658 46.6334 20.8059 46.6434 17.8459C46.6434 16.8459 46.6434 16.846 47.6034 16.856C47.8134 16.856 48.0334 16.856 48.2834 16.856C48.4134 16.176 48.4334 15.6459 47.8034 15.0759C46.6634 14.0559 46.5634 12.6159 47.0234 11.2659C47.4434 10.0059 48.1434 8.84599 48.7234 7.63599C48.8134 7.63599 48.9134 7.63599 49.0034 7.63599C49.3234 8.14599 49.6634 8.65578 49.9534 9.17578C50.7234 10.5458 51.2734 11.9859 50.7834 13.5759C50.6134 14.1259 50.2834 14.666 49.9134 15.116C49.4034 15.736 49.3034 15.906 49.5134 16.856C49.7834 16.856 50.0634 16.886 50.3434 16.856C51.0234 16.756 51.2634 16.9758 51.2634 17.7058C51.2334 21.8658 51.2434 26.0358 51.2534 30.1958C51.2534 30.4358 51.2534 30.6658 51.2534 30.9958C51.9834 30.9958 52.6834 30.9259 53.3634 31.0259C53.6634 31.0659 54.0734 31.3958 54.1434 31.6658C54.2234 31.9558 54.0434 32.4158 53.8234 32.6658C53.4634 33.0858 52.9934 33.4159 52.5634 33.7759C52.2534 34.0459 51.9634 34.3359 51.6334 34.5659C50.7834 35.1559 50.7234 35.946 51.5034 36.636C52.4334 37.456 52.6234 38.5659 51.7734 39.3359C51.0334 40.0059 50.9734 40.776 51.0334 41.616C51.3234 46.056 51.6334 50.4958 51.9434 54.9358C52.0734 56.8058 52.2734 58.6759 52.3834 60.5459C52.4934 62.3959 52.2534 64.1558 50.6534 65.4858C50.8834 65.5858 51.0534 65.6458 51.2134 65.7258C52.5834 66.3358 52.7934 67.9859 51.5534 68.8459C51.0634 69.1859 50.8634 69.5559 50.9834 70.0859C51.2634 71.3659 51.4934 72.6758 51.8834 73.9258C52.2534 75.0958 53.3134 75.7559 54.1834 76.5359C54.8534 77.1359 55.7234 77.5758 55.7734 78.6458C55.7734 78.7357 55.9534 78.8558 56.0734 78.8958C57.0034 79.2258 57.5634 79.8258 57.4834 80.9058H58.7434C58.8034 79.7858 59.7134 79.2159 60.3934 78.5059C60.8734 78.0059 60.8934 77.6059 60.6134 77.0059C58.7634 73.0159 57.1334 68.936 56.2634 64.606C55.7634 62.106 55.5834 59.566 56.5034 57.136C56.9134 56.066 57.6334 55.0858 58.3534 54.1658C59.4234 52.8058 60.6834 51.606 61.1434 49.856C61.7434 47.566 60.8934 45.056 59.0134 43.626C58.9734 43.596 58.9434 43.5659 58.9034 43.5359C58.4534 43.1559 57.8534 42.8159 58.0734 42.0859C58.3134 41.2959 59.0234 41.5659 59.5434 41.5559C63.2934 41.5359 67.0534 41.5359 70.8034 41.5559C71.0834 41.5559 71.5134 41.7258 71.5934 41.9258C71.6834 42.1558 71.5134 42.5459 71.3534 42.8059C71.1934 43.0659 70.9334 43.2658 70.6934 43.4658C67.4334 46.0458 67.6934 49.9059 69.9234 52.5659C70.7534 53.5559 71.6234 54.536 72.3334 55.606C73.8034 57.816 73.8334 60.3259 73.5434 62.8459C73.0134 67.4259 71.3534 71.686 69.5234 75.866C68.9034 77.276 68.8134 78.2758 70.1134 79.2358C70.5934 79.5958 71.0534 80.0559 71.0734 80.7759C71.0734 80.8759 71.5334 81.0459 71.7834 81.0459C74.1134 81.0859 76.4534 81.096 78.7834 81.106C80.3734 81.106 81.9534 81.106 83.5434 81.106C83.6834 81.106 83.8134 81.0659 83.9734 81.0459C83.9734 78.6559 83.9934 76.3058 83.9534 73.9558C83.9534 73.6858 83.7234 73.3258 83.4834 73.1658C82.4634 72.4158 81.8434 71.5358 82.0734 70.1758C82.1734 69.6158 82.1134 69.0258 82.0934 68.4458C82.0734 67.9358 82.3234 67.7559 82.7834 67.7659C83.5334 67.7659 84.2734 67.7659 85.0234 67.7659C85.4134 67.7659 85.6034 67.6258 85.6534 67.1858C85.8034 65.9958 86.6134 65.2258 87.7634 64.9058C88.1834 64.7858 88.6434 64.486 88.9034 64.126C89.7134 63.026 89.6534 61.7859 88.7134 60.8359C88.0634 60.1759 88.5334 59.5958 88.6634 58.9258C87.0134 58.4758 86.1534 57.3058 85.6334 55.7358C85.4434 55.1558 84.9734 54.6158 84.5134 54.1958C82.3434 52.2258 83.1434 49.9859 85.3334 48.8259C86.4034 48.2559 87.6134 47.9358 88.7134 47.4158C89.1334 47.2158 89.5234 46.8258 89.7934 46.4258C90.1934 45.8258 90.0534 45.286 89.6234 44.616C89.0334 43.696 88.7334 42.5659 88.4034 41.5059C88.1034 40.5759 87.9634 39.5858 87.6834 38.6458C87.1234 36.7458 87.5734 34.8958 88.8634 33.9258C89.3234 33.5858 89.7634 33.236 90.2034 32.866C91.6134 31.666 93.2734 31.4759 94.8734 32.0859C96.0934 32.5559 97.1434 33.4858 98.2434 34.2358C98.4634 34.3858 98.6834 34.6758 98.7334 34.9258C98.9934 36.2758 99.3634 37.6258 99.3834 38.9858C99.4034 40.4258 98.4334 41.4659 97.3034 42.2759C96.8934 42.5659 96.7434 42.8859 96.7434 43.3459C96.7434 43.6859 96.7234 44.016 96.6834 44.356C96.5534 45.456 96.6634 45.6358 97.6234 46.1858C99.2134 47.0758 100.793 47.9758 102.363 48.8958C103.403 49.5058 103.823 50.7959 103.093 51.7559C101.333 54.0559 99.5834 56.3959 97.3634 58.2959C97.1834 58.4459 96.9734 58.5759 96.7034 58.7659L96.7534 58.8159ZM34.2034 56.9258C34.2334 56.7658 34.2534 56.696 34.2534 56.626C34.2534 56.216 34.2534 55.8058 34.2534 55.3958C34.1634 50.9058 34.6034 46.466 35.8334 42.136C36.3934 40.156 37.0834 38.2058 37.6134 36.2058C38.3934 33.2558 37.0634 31.3959 34.0234 31.0059C33.8334 30.9859 33.6234 30.8658 33.4934 30.7358C32.2634 29.4958 30.8334 28.4959 29.0934 28.3159C26.7634 28.0759 24.3934 27.9759 22.0534 28.0059C19.5334 28.0459 17.1434 28.6458 15.3734 30.6858C15.2134 30.8758 14.8734 30.9359 14.6034 31.0059C13.9834 31.1759 13.3234 31.2458 12.7334 31.4658C11.0434 32.1158 10.3134 33.1858 10.5434 34.9858C10.7234 36.4058 11.0234 37.8358 11.4934 39.1858C13.2734 44.2558 14.1534 49.4559 14.0034 54.8259C13.9834 55.4959 14.0034 56.1659 14.0034 56.8259C20.7634 55.6059 27.4634 55.4258 34.1934 56.8958L34.2034 56.9258ZM61.9434 43.9058C62.1334 44.3058 62.3034 44.6459 62.4534 44.9958C63.0234 46.2859 63.3434 47.6059 63.1934 49.0559C62.9534 51.3759 61.8134 53.1958 60.3234 54.8958C59.6134 55.6958 59.0034 56.6159 58.5134 57.5659C57.4334 59.6959 57.6634 61.9658 58.1534 64.1958C59.1134 68.5858 60.7734 72.7259 62.6934 76.7659C62.8834 77.1759 63.1534 77.3359 63.5934 77.3259C64.4334 77.3059 65.2834 77.2659 66.1134 77.3259C66.7434 77.3659 67.0634 77.1359 67.3034 76.5659C68.9134 72.7259 70.4134 68.8559 71.4134 64.8059C71.8434 63.0659 71.9734 61.2959 71.7434 59.5059C71.4534 57.2059 70.0034 55.556 68.5834 53.886C66.4034 51.326 65.6634 48.4659 67.0434 45.2559C67.2334 44.8259 67.4634 44.4058 67.7134 43.9158H61.9634L61.9434 43.9058ZM24.0934 63.6858C25.2034 63.6858 26.3034 63.6858 27.4134 63.6858C30.4234 63.6858 33.4234 63.6858 36.4334 63.6858C36.7634 63.6858 37.0934 63.7658 37.1334 63.2258C37.2434 61.6158 36.1734 59.9158 34.7034 59.2358C32.1534 58.0558 29.4234 57.8259 26.6834 57.7458C24.3334 57.6858 21.9734 57.7958 19.6334 57.9158C17.5434 58.0258 15.5034 58.4658 13.5334 59.2358C11.8434 59.9058 11.2234 61.206 11.0834 62.886C11.0334 63.506 11.2434 63.7058 11.8934 63.6958C15.9634 63.6658 20.0234 63.6758 24.0934 63.6758V63.6858ZM16.5334 73.116C16.1534 75.836 15.7934 78.4658 15.4134 81.1758H32.8934C32.5434 78.4358 32.2034 75.7758 31.8734 73.2458C29.4134 73.5858 26.8234 74.0959 24.2134 74.2759C21.5634 74.4559 18.9634 73.866 16.5234 73.126L16.5334 73.116ZM36.0834 50.5859C36.1534 50.6159 36.2234 50.6458 36.2934 50.6858C36.6234 50.2358 37.1734 49.8259 37.2334 49.3459C37.5234 47.0459 38.1034 44.826 38.7934 42.626C39.5634 40.176 40.4734 37.7458 40.9034 35.2358C41.4534 32.0458 40.1334 29.4259 37.0634 28.5559C35.9134 28.2259 34.9434 27.7159 34.0134 27.0259C33.6834 26.7859 33.3334 26.566 32.9834 26.356C31.4134 25.436 29.7434 24.896 27.8934 25.106C27.2334 25.186 26.5834 25.2659 25.9234 25.3459C26.0134 24.5259 25.4034 23.6959 24.5934 23.5759C24.3334 23.5359 23.9034 23.5358 23.7934 23.6858C23.3834 24.2358 23.0834 24.8558 22.7134 25.4858C22.0034 25.3758 21.1534 25.186 20.2934 25.116C18.2134 24.966 16.4534 25.8558 14.7934 26.9558C13.8134 27.6058 12.8234 28.1459 11.6734 28.5059C8.2434 29.5759 6.66338 32.2458 7.34338 35.7458C7.62338 37.1959 8.06341 38.6359 8.55341 40.0359C9.55341 42.8659 10.6234 45.6858 10.8134 48.7058C10.8734 49.7158 11.4734 50.2158 12.2134 50.7358C11.9134 48.4258 11.6234 46.106 11.0834 43.856C10.5034 41.436 9.65337 39.0758 9.01337 36.6658C8.65337 35.3058 8.41339 33.8859 9.10339 32.5059C9.96339 30.8059 11.4834 30.046 13.2034 29.606C13.9434 29.416 14.6034 29.1758 15.1834 28.6858C16.3934 27.6758 17.7934 27.0959 19.3334 26.7959C21.6934 26.3359 24.0734 26.3558 26.4534 26.4258C29.3134 26.5158 31.9634 27.1958 34.1734 29.1558C34.3734 29.3258 34.6934 29.3758 34.9634 29.4458C36.2134 29.7658 37.3834 30.2258 38.2634 31.2358C39.7834 32.9758 39.7334 34.9559 39.1434 37.0059C38.5034 39.1959 37.7834 41.3659 37.1734 43.5559C36.5334 45.8459 36.2034 48.1959 36.0634 50.5659L36.0834 50.5859ZM86.0834 81.1458C86.4634 81.1958 86.7734 81.2659 87.0734 81.2659C90.7734 81.2459 94.4834 81.2158 98.1834 81.2058C98.7834 81.2058 99.0534 80.996 99.0534 80.366C99.0334 78.226 99.0234 76.0858 99.0434 73.9458C99.0434 73.2858 98.7934 73.0759 98.1434 73.0859C96.3134 73.1159 94.4834 73.0959 92.6634 73.0959C90.7134 73.0959 88.7634 73.0959 86.8134 73.0959C86.4534 73.0959 86.0734 73.056 86.0834 73.626C86.0934 76.096 86.0834 78.5758 86.0834 81.1458ZM88.0634 49.616C88.0934 49.806 88.1034 49.9259 88.1434 50.0359C89.0534 52.4259 92.4634 53.4858 94.4934 51.9058C95.7534 50.9258 96.8434 49.7359 98.0734 48.5759C97.2734 48.1459 96.5534 47.726 95.7934 47.376C95.1634 47.076 94.8834 46.5658 94.9134 45.9358C94.9834 44.2658 95.1134 42.5959 95.2234 41.0159C95.6534 40.9759 96.0134 40.9358 96.3834 40.8958C96.2834 40.6758 96.1834 40.6159 96.0734 40.5759C95.0034 40.1559 94.0534 39.6158 93.5434 38.4758C93.4034 38.1758 92.9534 37.9359 92.5934 37.8159C91.3934 37.4259 90.2934 36.9459 89.9434 35.5659C89.9434 35.5359 89.8634 35.5259 89.8234 35.5159C89.1934 35.9359 88.6934 37.1858 88.8734 37.9158C88.9034 38.0158 89.0134 38.0958 89.0634 38.1958C89.2734 38.5758 89.5734 38.9359 89.6434 39.3359C89.7234 39.8459 89.6134 40.3858 89.5734 40.9058C89.5434 41.3158 89.5734 41.6358 90.1334 41.6558C90.4434 41.6658 90.7434 41.8658 91.0434 41.9858C91.0334 42.0658 91.0234 42.1358 91.0034 42.2158C90.6834 42.3158 90.3534 42.4159 89.8734 42.5759C90.3634 43.1159 90.7934 43.9859 91.2434 44.0059C92.1434 44.0359 93.0734 43.596 93.9034 43.376C93.6334 44.436 93.1934 44.8559 91.7534 45.2959C91.9534 47.8759 90.3134 48.986 88.0634 49.616ZM10.7834 65.7258C10.8534 66.3958 10.8934 66.9659 10.9934 67.5259C11.0934 68.0959 11.4434 68.2858 12.0434 68.1458C13.9934 67.6758 15.9534 67.7659 17.8834 68.2659C21.2334 69.1259 24.6034 69.3259 28.0234 68.7458C29.8934 68.4258 31.7534 68.0758 33.6334 67.8958C34.7334 67.7958 35.8634 68.0159 37.1334 68.0959C37.2434 67.3359 37.3534 66.5558 37.4734 65.7158H10.7834V65.7258ZM8.66339 69.9458C8.82339 69.5158 9.10339 69.1758 9.03339 68.9258C8.32339 66.3658 8.7734 63.8958 9.4834 61.4158C10.0034 59.5958 10.4134 57.746 10.7534 55.886C10.9934 54.576 10.8834 53.2259 10.2734 52.0059C9.46338 50.3959 8.00342 49.8758 6.31342 49.9458C4.76342 50.0058 3.44341 50.5659 2.68341 52.0159C1.96341 53.3759 2.29337 54.8458 3.45337 55.6758C4.52337 56.4458 5.79337 55.916 6.01337 54.606C6.12337 53.956 5.6734 53.3858 5.1134 53.4658C5.1134 53.5358 5.0934 53.6158 5.1134 53.6758C5.3534 54.2458 5.1134 54.6259 4.6134 54.8459C4.2634 54.9959 3.7934 54.4658 3.7334 53.9058C3.6334 52.9458 4.3534 52.0958 5.3634 51.9758C6.6634 51.8258 7.68339 52.4659 8.28339 53.8359C9.01339 55.4959 8.9734 57.2258 8.5434 58.9258C8.0634 60.8558 7.41337 62.7358 6.83337 64.6458C6.20337 66.7258 6.85338 68.4058 8.65338 69.9558L8.66339 69.9458ZM42.9934 53.1758C42.1334 53.9558 42.0034 54.6159 42.4434 55.3059C42.8734 55.9959 43.5934 56.206 44.3834 55.876C45.1134 55.566 45.5834 55.0159 45.7934 54.2458C46.2434 52.5858 44.9234 50.606 43.0534 50.106C39.9534 49.286 37.3234 51.2559 37.4334 54.5159C37.5034 56.4159 37.8534 58.3458 38.3634 60.1758C39.1734 63.0958 40.0034 65.9659 39.2034 69.0159C39.1634 69.1559 39.3334 69.4559 39.4734 69.5059C39.6434 69.5659 39.9534 69.5258 40.0834 69.3958C41.2034 68.2658 41.8834 66.9359 41.4934 65.3059C41.2034 64.1159 40.8434 62.9459 40.4434 61.7959C39.7734 59.8759 39.2634 57.936 39.4434 55.876C39.5734 54.396 39.9034 53.0158 41.2934 52.1658C42.0434 51.7058 43.1334 51.786 43.7934 52.356C44.3434 52.816 44.6334 53.6458 44.3234 54.2258C44.1834 54.5058 43.7834 54.646 43.5034 54.856C43.3334 54.566 43.1234 54.2958 43.0034 53.9958C42.9334 53.8158 42.9934 53.5758 42.9934 53.1858V53.1758ZM86.7834 50.0159C84.8534 50.8659 84.6734 52.2459 85.9734 53.5159C86.7734 54.3059 87.3434 55.3359 88.0234 56.2559C88.2134 56.5159 88.3934 56.8758 88.6534 56.9658C91.0234 57.8158 93.4334 57.8658 95.8734 57.2458C96.4634 57.0958 96.8534 56.7558 97.1534 56.1958C98.2134 54.2058 99.2734 52.1858 101.313 50.9658C101.363 50.9358 101.363 50.8459 101.393 50.7659C101.093 50.4859 100.793 50.2058 100.493 49.9258C100.023 49.4958 99.5234 49.386 99.0334 49.866C98.6834 50.196 98.3434 50.5358 98.0534 50.9158C96.4134 53.0658 94.2734 54.366 91.5634 54.636C91.0534 54.686 90.5234 54.5458 89.8734 54.4858C90.1934 54.0058 90.4034 53.6959 90.6534 53.3259C90.2034 53.3759 89.8434 53.3858 89.5034 53.4658C88.5334 53.7058 87.7534 53.3358 87.0934 52.6858C86.9334 52.5258 86.9134 52.1958 86.8934 51.9358C86.8434 51.3358 86.8234 50.7259 86.7834 50.0159ZM84.4534 71.3159C84.6034 71.3159 84.7434 71.3459 84.8934 71.3459C89.8734 71.3459 94.8534 71.346 99.8334 71.376C100.513 71.376 100.683 71.1258 100.683 70.4858C100.683 69.8058 100.433 69.6458 99.7934 69.6458C95.0834 69.6658 90.3734 69.6458 85.6634 69.6458C84.2034 69.6458 84.1334 69.7258 84.3834 71.2058C84.3834 71.2258 84.4034 71.2459 84.4634 71.3259L84.4534 71.3159ZM37.5934 71.616C37.9834 71.036 37.8834 70.6758 37.2434 70.4458C35.5734 69.8358 33.8834 69.696 32.1534 70.106C30.6634 70.466 29.1934 70.9458 27.6834 71.1858C24.0634 71.7658 20.5034 71.2958 16.9734 70.4258C15.0734 69.9558 13.1634 69.6559 11.2234 70.3259C10.5034 70.5759 10.1734 70.9358 10.4834 71.7458C12.6834 70.6059 14.9334 70.8358 17.2534 71.4558C21.5234 72.5958 25.8434 72.8159 30.1434 71.5859C32.6534 70.8659 35.1134 70.516 37.6034 71.616H37.5934ZM10.5134 81.1458C10.9134 81.1458 11.2534 81.1158 11.5734 81.1458C12.2934 81.2357 12.6334 80.9258 12.7434 80.2258C12.8934 79.2558 13.1834 78.2959 13.2334 77.3259C13.3134 75.8359 13.2534 74.3359 13.2534 72.8459C11.3834 72.8859 10.6634 73.606 10.6734 75.356C10.6734 75.596 10.6734 75.8359 10.7134 76.0759C10.9734 77.4659 10.9234 78.8458 10.6634 80.2158C10.6134 80.4958 10.5634 80.766 10.5034 81.136L10.5134 81.1458ZM48.2134 18.4858V31.0259H49.6334V18.376C49.1534 18.416 48.7234 18.4458 48.2134 18.4858ZM37.6434 81.116C37.1434 79.516 37.2234 77.936 37.4334 76.356C37.5034 75.806 37.5634 75.2558 37.5434 74.7058C37.4834 73.4458 36.3834 72.6358 35.1134 72.9258C34.9634 75.2058 35.1334 77.4758 35.6134 79.7158C35.9634 81.3458 35.6434 81.196 37.6434 81.116ZM68.8834 80.9658C68.4034 79.8158 67.4534 79.1458 66.3534 79.1458C65.5634 79.1458 64.7534 79.2558 63.9834 79.1458C62.4434 78.9258 61.6334 79.8458 60.7834 80.9658H68.8834ZM95.9534 34.8958C95.2534 33.8558 93.8034 33.4259 92.3134 33.7959C91.7634 33.9359 91.1734 34.1659 91.1534 34.8059C91.1334 35.4459 91.4334 36.0359 92.1134 36.2659C92.6834 36.4559 93.2534 36.6758 93.8434 36.7358C94.8634 36.8358 95.8934 36.8559 96.9134 36.8459C97.2734 36.8459 97.6334 36.6558 97.4834 36.1458C97.3534 35.6758 97.0934 35.5658 96.6234 35.7158C95.1034 36.1858 93.7534 35.5359 92.3734 35.0959C92.3734 35.0359 92.3834 34.9758 92.3934 34.9058H95.9534V34.8958ZM94.7634 65.4058C94.4034 64.2358 94.0534 63.0758 93.7134 61.9458H91.2834C91.3934 63.2158 91.1034 64.3458 90.2434 65.4058H94.7634ZM49.2134 70.2158C49.0834 70.2158 48.9534 70.1958 48.8334 70.1858C48.6934 70.7158 48.4734 71.2359 48.4234 71.7759C48.3134 73.0159 48.0534 74.1858 47.3334 75.2358C47.1734 75.4758 47.0534 75.7459 46.9134 76.0259H51.3334C50.1134 74.9159 49.6934 73.626 49.6734 72.136C49.6734 71.496 49.3834 70.8558 49.2234 70.2158H49.2134ZM7.06342 81.2659C8.67342 81.1159 8.4034 81.4458 8.8634 79.9558C9.2134 78.8258 9.19337 77.6759 8.89337 76.5359C8.45337 74.8559 8.04337 73.1758 8.33337 71.4158C8.36337 71.2658 8.22339 71.0858 8.16339 70.9258C7.98339 71.0158 7.69338 71.0558 7.65338 71.1858C7.45338 71.8158 7.14338 72.486 7.21338 73.106C7.32338 74.166 7.65341 75.2159 7.93341 76.2458C8.42341 78.0459 8.43342 79.7559 7.06342 81.2559V81.2659ZM41.0134 81.1458C40.1234 79.9458 39.7034 78.6559 40.0034 77.2458C40.2434 76.0759 40.6434 74.9359 40.9334 73.7759C41.1434 72.9659 41.1134 72.1458 40.6934 71.3958C40.5634 71.1658 40.2534 71.0259 40.0334 70.8359C39.9734 70.8759 39.9134 70.9158 39.8534 70.9558C40.2034 72.9858 39.6634 74.896 39.2334 76.8459C39.0034 77.9059 39.1534 79.0958 39.3534 80.1858C39.5434 81.2458 39.8434 81.326 41.0134 81.136V81.1458ZM97.4034 67.6558C97.5034 66.9458 97.2334 66.6258 96.4834 66.7158C96.0334 66.7658 95.5734 66.7158 95.1134 66.7158C92.7634 66.7158 90.4134 66.7158 88.0234 66.7158C87.9534 67.0258 87.8834 67.2858 87.8034 67.6558H97.4034ZM44.1734 77.6958L44.0634 77.9558C44.2834 78.0658 44.5034 78.2359 44.7334 78.2759C45.2534 78.3559 45.7834 78.4058 46.3134 78.4058C48.5934 78.4258 50.8734 78.4158 53.1634 78.4058C53.3434 78.4058 53.5134 78.3659 53.6934 78.3459C53.7134 78.256 53.7234 78.1759 53.7434 78.0859C53.2234 77.9559 52.6934 77.7058 52.1734 77.6958C49.5134 77.6558 46.8534 77.6758 44.1934 77.6758L44.1734 77.6958ZM94.9734 59.9358C94.9434 59.8358 94.9134 59.7458 94.8834 59.6458H90.3834C90.6834 60.5158 91.4534 60.4358 92.0434 60.4758C93.0534 60.5358 94.1434 60.6558 94.9834 59.9358H94.9734ZM51.5934 32.7158H46.4234C46.9634 33.4858 50.3134 33.5958 51.5934 32.7158ZM48.9034 37.6858C48.5734 37.6858 48.2234 37.6358 47.9034 37.6858C47.6734 37.7258 47.4734 37.9059 47.2534 38.0159C47.4634 38.2659 47.6534 38.6858 47.8834 38.7158C48.5934 38.7958 49.3134 38.7658 50.0234 38.6758C50.2234 38.6558 50.3734 38.2659 50.5434 38.0459C50.3534 37.9259 50.1834 37.7258 49.9734 37.6858C49.6234 37.6258 49.2634 37.6658 48.9034 37.6658V37.6858ZM48.9234 14.5059C49.7934 13.2959 49.7834 12.1658 48.9234 10.9858C48.0534 12.3058 48.0434 13.3459 48.9234 14.5059ZM48.8734 68.0159C49.2834 68.0159 49.7034 68.0658 50.0934 67.9958C50.2734 67.9558 50.4534 67.6758 50.5234 67.4758C50.5534 67.3858 50.3034 67.0859 50.1734 67.0759C49.3834 67.0259 48.5934 66.9959 47.8034 67.0359C47.6534 67.0359 47.4434 67.386 47.4134 67.606C47.3934 67.716 47.6934 67.9558 47.8734 67.9958C48.1934 68.0658 48.5434 68.0159 48.8834 68.0159H48.8734ZM94.5934 38.116C94.5834 39.126 95.3834 39.2958 96.6834 39.1758C97.2834 39.1158 97.4334 38.736 97.2534 38.116H94.5934ZM48.1234 35.376C48.1634 35.716 48.2034 35.9658 48.2334 36.2258H49.6234V35.376H48.1234Z" fill="#424242"/>
<path d="M81.3234 7.53589C91.7934 13.3759 91.4234 28.8759 80.7434 34.3059C80.9434 34.4859 81.1334 34.6459 81.3034 34.8259C81.9834 35.5359 81.9833 36.6758 81.2633 37.1858C81.0133 37.3558 80.6333 37.4558 80.3333 37.4258C79.7633 37.3558 79.6433 36.9258 79.9533 36.4458C80.0333 36.3158 80.0234 36.1258 80.0634 35.9658C79.9134 35.9658 79.7034 35.8758 79.6134 35.9558C79.2034 36.2958 78.5734 36.6259 78.4834 37.0559C78.1634 38.5759 77.4334 39.4559 75.7834 39.2859C75.5634 40.1759 75.0634 40.7359 74.1634 40.8359C73.2334 40.9359 72.5534 40.5259 72.0434 39.7559C71.9034 39.5459 71.6034 39.3259 71.3534 39.3059C70.1734 39.1859 69.6134 38.776 69.3434 37.606C69.1834 36.906 68.8834 36.3359 68.2334 36.0159C68.0234 35.9159 67.7234 35.9959 67.6734 35.9959C67.6934 36.5159 67.8434 36.9558 67.6934 37.1958C67.4034 37.6458 66.7734 37.546 66.3134 37.096C65.7034 36.486 65.7334 35.5259 66.3834 34.8259C66.5634 34.6359 66.7734 34.4759 66.9734 34.2959C55.9034 28.2359 56.3534 13.5158 66.3734 7.47584C66.2634 7.01584 66.0634 6.55596 66.0734 6.10596C66.1034 5.12596 66.7234 4.51594 67.9234 4.33594C68.7334 4.21594 69.2234 3.85577 69.6634 3.15577C69.9234 2.73577 70.5633 2.54597 71.2633 2.11597C71.4133 1.45597 71.7934 0.585806 72.8534 0.195806C74.3734 -0.364194 75.8734 0.305943 76.3834 1.83594C76.5334 2.27594 76.7234 2.42589 77.1934 2.53589C77.6434 2.63589 78.0634 3.06581 78.3734 3.44581C78.7034 3.85581 78.9534 4.21581 79.5634 4.19581C79.9534 4.18581 80.3834 4.31585 80.7334 4.48585C81.8534 5.04585 82.0334 6.03587 81.3234 7.51587V7.53589ZM73.8333 34.3059C81.3333 34.2559 87.3034 28.186 87.2934 20.636C87.2934 13.496 80.9733 7.21587 73.8333 7.26587C65.9833 7.31587 60.4333 13.776 60.4533 20.866C60.4733 28.936 67.1933 34.3459 73.8333 34.3159V34.3059ZM77.9533 4.75586C77.6933 4.21586 77.1734 3.97589 76.5334 4.03589C75.6334 4.12589 75.1134 4.70596 74.7534 5.60596C75.8534 5.30596 76.8733 5.03585 77.9533 4.74585V4.75586ZM74.1634 4.28589C74.2034 3.78589 74.2233 3.41591 74.2633 3.05591C74.2833 2.82591 74.3934 2.58597 74.3634 2.36597C74.3234 2.04597 74.2134 1.7258 74.0734 1.4358C74.0434 1.3658 73.6834 1.32598 73.6634 1.37598C73.5034 1.66598 73.3434 1.98591 73.2734 2.30591C73.2334 2.51591 73.4434 2.80585 73.3634 2.99585C73.1034 3.63585 73.4534 3.9159 74.1734 4.2959L74.1634 4.28589ZM69.9034 4.84595C70.9534 5.08595 71.9334 5.3159 72.9334 5.5459C72.4934 4.5459 71.7234 3.95589 70.9234 4.03589C70.4234 4.08589 69.9834 4.25595 69.9034 4.84595ZM75.7434 37.8958C77.4134 37.9258 77.2134 36.4958 77.7734 35.4658C76.3634 35.8158 76.4534 37.1758 75.7434 37.8958ZM74.0833 35.846C73.9733 35.846 73.8534 35.8459 73.7434 35.8359C73.5334 36.1259 73.1234 36.4358 73.1534 36.6958C73.1934 37.0358 73.5234 37.556 73.8134 37.616C74.3334 37.726 74.6534 37.2159 74.6334 36.7559C74.6234 36.4459 74.2833 36.146 74.0833 35.846ZM69.9533 35.5059C70.8433 37.8659 71.0334 38.076 72.1734 37.856C71.1334 37.296 71.3833 35.7559 69.9533 35.5059ZM73.1334 38.616C73.4334 38.896 73.6334 39.2259 73.8634 39.2559C74.0634 39.2759 74.5134 38.8859 74.4834 38.7959C74.3634 38.4559 74.1034 38.156 73.9034 37.846C73.6934 38.056 73.4734 38.276 73.1334 38.606V38.616ZM68.8434 6.38599C68.3734 6.02599 68.0534 5.4858 67.4934 5.9358C67.3634 6.0458 67.3634 6.58584 67.5034 6.72584C68.0234 7.23584 68.3734 6.69599 68.8434 6.38599ZM78.6734 6.4358C79.2934 6.5058 79.7234 7.26592 80.2434 6.56592C80.3534 6.42592 80.2734 5.92596 80.1334 5.85596C79.5534 5.53596 79.1634 5.9458 78.6734 6.4358Z" fill="#424242"/>
<path d="M69.9334 59.4458C70.5334 60.6258 70.5734 61.7359 70.4434 62.8259C69.9734 66.7159 68.8134 70.4058 67.1334 73.9458C66.7934 74.6558 66.7634 74.6659 65.9734 74.8459C66.0334 74.5159 66.0634 74.2258 66.1534 73.9558C67.0834 71.0858 68.1034 68.2359 68.9234 65.3359C69.3834 63.7059 69.5234 61.9959 69.8034 60.3159C69.8434 60.0859 69.8834 59.8558 69.9434 59.4558L69.9334 59.4458Z" fill="#424242"/>
<path d="M92.8434 39.1557C92.4234 40.0457 91.6434 39.6757 90.9234 39.7057C90.8034 39.4557 90.6934 39.2057 90.5734 38.9557C91.0834 38.4157 92.0134 38.4957 92.8434 39.1557Z" fill="#424242"/>
<path d="M74.4734 8.73584C80.0234 8.88584 86.2434 14.0058 85.8734 21.4858C85.5534 28.0158 79.7834 33.176 73.3434 32.876C67.2834 32.586 61.4334 27.4459 61.8834 20.0759C62.2934 13.4259 67.6734 8.40584 74.4634 8.73584H74.4734ZM73.8034 31.1858C78.6834 31.3958 84.0334 27.126 84.2434 21.356C84.4834 14.626 78.4534 10.3159 74.1433 10.3159C67.6433 10.3159 63.3733 15.6658 63.4533 20.7258C63.5433 26.9458 68.5634 31.3758 73.8034 31.1758V31.1858Z" fill="#424242"/>
<path d="M68.6034 16.7158C70.1134 17.2858 71.8234 17.506 72.7734 19.136C73.4734 18.606 74.2234 18.5859 75.0234 19.0259C75.1834 19.1159 75.5034 19.0158 75.6934 18.9058C77.2534 18.0158 78.8034 17.1058 80.3634 16.2158C80.6034 16.0758 80.8734 15.9958 81.2134 15.9958L80.3434 16.9658C80.3434 16.9658 80.3734 17.0259 80.3834 17.0559C80.9434 16.7859 81.5034 16.5058 82.0934 16.2158C82.1834 16.4358 82.2534 16.636 82.3534 16.866C81.6634 17.176 80.9934 17.4759 80.3034 17.7859C80.1734 17.6359 80.0434 17.4758 80.0034 17.4258C78.7434 18.2858 77.5334 19.1358 76.3034 19.9558C75.9834 20.1758 75.8034 20.3759 75.8134 20.8059C75.8334 21.8959 74.9934 22.7859 73.9834 22.8359C72.9434 22.8859 72.0934 22.1258 72.0434 20.9658C72.0234 20.4558 71.7734 20.2758 71.4434 19.9758C70.4034 18.9958 69.4334 17.9358 68.4434 16.9058C68.4934 16.8458 68.5334 16.7858 68.5834 16.7258L68.6034 16.7158Z" fill="#424242"/>
<path d="M73.7534 14.366C73.5334 14.096 73.3134 13.8259 73.0834 13.5459C72.8234 13.7359 73.0334 14.5658 72.2234 14.2258C72.6534 13.3258 73.0234 12.4158 72.2434 11.4758C72.3034 11.4158 72.3734 11.3559 72.4334 11.3059C72.6434 11.4159 72.8634 11.516 73.1034 11.636C73.2434 11.536 73.4934 11.3658 73.7334 11.1958C73.8134 11.2358 73.8934 11.2759 73.9734 11.3159C73.3034 12.3059 73.6334 13.2458 74.0334 14.1758C73.9334 14.2358 73.8434 14.306 73.7434 14.366H73.7534Z" fill="#424242"/>
<path d="M66.9734 19.8459C66.7234 20.1359 66.4834 20.4158 66.2334 20.6958C66.4534 20.9358 66.7034 21.1958 66.9434 21.4658C66.8934 21.5458 66.8434 21.6358 66.8034 21.7158C65.9834 21.0358 65.1534 20.836 64.2734 21.616C64.2234 21.526 64.1734 21.4359 64.1234 21.3459C64.3634 21.0759 64.6034 20.8059 64.8534 20.5459C64.6634 20.3359 64.4134 20.0759 64.1734 19.8159C64.2234 19.7359 64.2734 19.6559 64.3134 19.5759C65.1334 20.3159 65.9634 20.3059 66.7834 19.5759L66.9734 19.8459Z" fill="#424242"/>
<path d="M73.3634 30.2959C73.6034 29.5159 73.8234 28.8059 74.0534 28.0459C74.3234 28.0759 74.6034 28.096 74.8634 28.126C75.0034 28.856 75.1434 29.5458 75.2734 30.2458C75.0234 30.2458 74.9034 30.1158 74.3534 29.2458C73.9134 29.4658 74.3134 30.4359 73.3634 30.2959Z" fill="#424242"/>
<path d="M67.5834 24.7959C66.8434 25.2159 66.1634 25.6059 65.4334 26.0259C65.3434 25.8959 65.2234 25.7058 65.0434 25.4458C65.7734 24.9758 66.4634 24.5359 67.2034 24.0559C67.3234 24.2959 67.4634 24.5559 67.5734 24.7959H67.5834Z" fill="#424242"/>
<path d="M75.0134 14.4358C74.9034 14.2358 74.7034 14.0459 74.6934 13.8459C74.6634 13.1259 74.6734 12.4158 74.7034 11.6958C74.7034 11.5458 74.8434 11.4059 74.9234 11.2659C75.0234 11.4059 75.2034 11.5458 75.2134 11.6958C75.2434 12.5758 75.2234 13.4559 75.2234 14.3359C75.1534 14.3659 75.0834 14.4058 75.0134 14.4358Z" fill="#424242"/>
<path d="M79.9034 24.7258C80.0134 24.5358 80.1434 24.336 80.2634 24.136C80.9134 24.536 81.5534 24.9359 82.2234 25.3459C82.0734 25.6059 81.9634 25.8058 81.8534 25.9958C81.1934 25.5658 80.5534 25.1558 79.9034 24.7258Z" fill="#424242"/>
<path d="M70.3734 14.4858C70.1634 14.6258 69.9234 14.7858 69.7234 14.9158C69.3734 14.2458 69.0334 13.566 68.6734 12.876C68.9034 12.766 69.1334 12.6459 69.3434 12.5459C69.6934 13.1959 70.0234 13.8158 70.3834 14.4858H70.3734Z" fill="#424242"/>
<path d="M67.5234 16.9558C67.4234 17.1958 67.3534 17.3759 67.2734 17.5859C66.6334 17.3059 66.0034 17.0359 65.3434 16.7559C65.3834 16.5059 65.4234 16.2558 65.4834 15.8958C66.1734 16.2558 66.8134 16.5958 67.5234 16.9658V16.9558Z" fill="#424242"/>
<path d="M80.6434 19.796C81.4534 19.796 82.2634 19.786 83.0734 19.806C83.2034 19.806 83.3234 20.006 83.4434 20.116C83.3234 20.196 83.1934 20.336 83.0734 20.336C82.3534 20.346 81.6334 20.336 80.9234 20.296C80.7934 20.296 80.6634 20.0759 80.5434 19.9559C80.5834 19.9059 80.6134 19.846 80.6534 19.796H80.6434Z" fill="#424242"/>
<path d="M68.4934 28.8359C68.8534 28.2459 69.2034 27.6659 69.5834 27.0559C69.8134 27.1659 70.0434 27.266 70.3234 27.386C69.9134 27.936 69.5634 28.4558 69.1634 28.9158C69.0434 29.0458 68.7634 29.0359 68.5634 29.0959C68.5434 29.0159 68.5234 28.9259 68.5034 28.8459L68.4934 28.8359Z" fill="#424242"/>
<path d="M83.4434 20.9759C83.3134 21.1059 83.1934 21.336 83.0634 21.336C82.3734 21.376 81.6734 21.366 80.9834 21.336C80.8634 21.336 80.7434 21.1359 80.6234 21.0259C80.7434 20.9459 80.8534 20.796 80.9834 20.796C81.7734 20.776 82.5534 20.7859 83.3434 20.7859C83.3834 20.8459 83.4134 20.9059 83.4534 20.9659L83.4434 20.9759Z" fill="#424242"/>
<path d="M83.4534 22.246C81.4034 22.496 80.7134 22.386 80.6434 21.786C81.4334 21.786 82.2234 21.766 83.0134 21.806C83.1434 21.806 83.2534 22.036 83.4634 22.246H83.4534Z" fill="#424242"/>
<path d="M64.1034 22.136C64.2434 22.026 64.3734 21.8359 64.5234 21.8259C65.1634 21.8059 65.8134 21.8259 66.4534 21.8559C66.5734 21.8559 66.6834 22.026 66.8034 22.116C66.6734 22.206 66.5434 22.3559 66.4034 22.3559C65.6934 22.3759 64.9734 22.366 64.2634 22.366C64.2134 22.286 64.1534 22.216 64.1034 22.136Z" fill="#424242"/>
<path d="M78.1834 14.7559C77.9534 14.6659 77.7634 14.5859 77.5534 14.5059C77.9034 13.8659 78.2534 13.2259 78.6234 12.5459C78.8134 12.6659 78.9934 12.766 79.1834 12.886C78.8434 13.526 78.5234 14.1359 78.1934 14.7559H78.1834Z" fill="#424242"/>
<path d="M79.0734 28.7058C78.4734 29.2358 78.3034 28.8258 78.1034 28.4158C77.9234 28.0558 77.6934 27.7159 77.4534 27.3259C77.6034 27.2159 77.7634 27.0858 77.9834 26.9158C78.3634 27.5458 78.7234 28.1258 79.0734 28.7058Z" fill="#424242"/>
<path d="M72.6834 30.3059V27.5659C72.9334 27.8459 73.1734 27.9858 73.1934 28.1458C73.3234 29.6558 73.1934 30.2059 72.6834 30.3059Z" fill="#424242"/>
<path d="M8.22339 91.2358H6.08337V107.616H15.5434V105.616H8.22339V91.2358Z" fill="#424242"/>
<path d="M28.7634 91.2358L21.6134 107.616H23.8834L25.6534 103.446H33.5234L35.2334 107.616H37.6134L30.7234 91.2358H28.7734H28.7634ZM32.7134 101.446H26.5134L29.6634 94.0459L32.7134 101.446Z" fill="#424242"/>
<path d="M53.7834 103.906L48.2734 91.2358H45.5234V107.616H47.6634V94.9458L53.2234 107.616H54.3134L59.7834 94.9658V107.616H61.9234V91.2358H59.2834L53.7834 103.906Z" fill="#424242"/>
<path d="M79.4534 99.376C78.8334 99.056 78.1534 98.796 77.4334 98.606C76.7534 98.426 76.1034 98.2158 75.5234 97.9758C74.9734 97.7558 74.5034 97.4459 74.1434 97.0559C73.8034 96.7059 73.6334 96.1758 73.6334 95.4758C73.6334 95.0258 73.7134 94.6459 73.8834 94.3259C74.0534 94.0059 74.2734 93.7259 74.5534 93.5159C74.8334 93.2959 75.1734 93.1259 75.5634 93.0159C75.9634 92.8959 76.3834 92.8459 76.8234 92.8459C77.4434 92.8459 77.9834 92.9658 78.4334 93.1958C78.8834 93.4258 79.2734 93.7859 79.6134 94.2559L79.8134 94.5259L81.6334 93.2158L81.4234 92.9458C80.8534 92.1858 80.1734 91.6459 79.3834 91.3159C78.6134 90.9959 77.7634 90.8359 76.8734 90.8359C76.1734 90.8359 75.5034 90.936 74.8634 91.126C74.2234 91.326 73.6434 91.6159 73.1434 92.0059C72.6434 92.3959 72.2334 92.8958 71.9434 93.4758C71.6434 94.0558 71.4934 94.7358 71.4934 95.4758C71.4934 96.2658 71.6234 96.9358 71.8634 97.4758C72.1134 98.0258 72.4534 98.4859 72.8734 98.8459C73.2834 99.1959 73.7434 99.4858 74.2534 99.7058C74.7434 99.9158 75.2534 100.106 75.7734 100.276C76.2834 100.436 76.7834 100.606 77.2534 100.766C77.7134 100.916 78.1234 101.106 78.4834 101.326C78.8234 101.526 79.0934 101.786 79.2934 102.096C79.4834 102.396 79.5834 102.786 79.5834 103.266C79.5834 103.686 79.5034 104.066 79.3434 104.396C79.1834 104.726 78.9534 105.016 78.6734 105.246C78.3834 105.486 78.0434 105.676 77.6634 105.806C77.2734 105.936 76.8434 106.006 76.3934 106.006C75.6634 106.006 75.0134 105.856 74.4534 105.556C73.9034 105.266 73.4434 104.806 73.0934 104.196L72.9134 103.886L70.9234 105.216L71.1334 105.496C71.7934 106.406 72.5934 107.056 73.5134 107.436C74.4234 107.816 75.4334 108.006 76.5034 108.006C77.1734 108.006 77.8234 107.906 78.4534 107.706C79.0834 107.506 79.6434 107.196 80.1334 106.786C80.6234 106.376 81.0134 105.876 81.2934 105.286C81.5834 104.696 81.7234 104.016 81.7234 103.256C81.7234 102.216 81.5034 101.376 81.0634 100.766C80.6334 100.166 80.0934 99.696 79.4434 99.366L79.4534 99.376Z" fill="#424242"/>
<path d="M97.9234 91.2358H95.9734L88.8234 107.616H91.0934L92.8634 103.446H100.733L102.443 107.616H104.823L97.9334 91.2358H97.9234ZM99.9234 101.446H93.7234L96.8734 94.0459L99.9234 101.446Z" fill="#424242"/>
</svg>
