<svg width="74" height="65" viewBox="0 0 74 65" fill="none" xmlns="http://www.w3.org/2000/svg">
<path d="M28.1683 18.4985C29.3683 21.5285 30.5382 24.4885 31.7182 27.4585C33.1282 30.9985 34.5283 34.5386 35.9383 38.0686C36.0583 38.3786 36.1383 38.5884 35.8183 38.8984C34.9983 39.6984 34.9283 40.8785 35.5483 41.7385C36.1683 42.5885 37.2483 42.9186 38.1883 42.5286C39.1383 42.1386 39.7582 41.0984 39.5982 40.1584C39.4082 39.0184 38.5682 38.2885 37.3982 38.2285C37.2782 38.2285 37.1582 38.2285 36.9982 38.2285C34.3382 31.5385 31.6883 24.8584 29.0283 18.1384C29.6283 17.8884 30.1482 17.6785 30.7382 17.4285C31.5282 18.2785 32.3382 19.1385 33.1382 20.0085C38.0782 25.3885 43.0082 30.7684 47.9682 36.1384C49.1282 37.3984 49.7583 38.8386 49.8083 40.5486C49.9483 44.5386 50.0782 48.5185 50.2482 52.4985C50.2782 53.1185 50.0882 53.3984 49.5182 53.6284C45.5682 55.2084 41.6282 56.8185 37.7082 58.4485C37.2082 58.6585 36.9282 58.5685 36.5782 58.1785C34.0182 55.3185 31.4382 52.4784 28.8482 49.6484C27.3882 48.0584 26.7382 46.2086 26.7182 44.0386C26.6782 36.0886 26.5782 28.1385 26.4482 20.1885C26.4382 19.3385 26.6782 18.9085 27.4782 18.7285C27.6882 18.6785 27.8983 18.5885 28.1883 18.4785L28.1683 18.4985Z" fill="url(#paint0_linear_6_1180)"/>
<path d="M30.3782 10.8585C45.9982 7.14846 62.1882 15.1786 68.6582 29.5486C69.3982 29.2686 70.1582 28.9885 70.9782 28.6685C71.7782 30.6885 72.5782 32.6786 73.3982 34.7586C71.3482 35.5686 69.3482 36.3685 67.2882 37.1885C66.4782 35.1485 65.6882 33.1785 64.8682 31.1085C65.5182 30.8385 66.1382 30.5686 66.8682 30.2586C63.8182 23.7386 59.1783 18.7786 52.8183 15.4886C45.5683 11.7286 37.9682 10.9686 29.9982 12.9886C30.2382 13.6286 30.4382 14.1786 30.6682 14.7986C28.6282 15.6086 26.6382 16.3986 24.5882 17.2186C24.3382 16.6186 24.0982 16.0586 23.8682 15.4986C10.5382 21.8386 3.17819 38.7785 8.48819 53.4385C9.20819 53.1685 9.93817 52.8887 10.7182 52.5987C11.5282 54.6487 12.3182 56.6385 13.1382 58.6885C11.0982 59.4985 9.10823 60.2885 7.02823 61.1185C6.20823 59.0585 5.41819 57.0586 4.60819 55.0186C5.32819 54.7186 5.96822 54.4586 6.51822 54.2386C2.09822 37.2986 7.15819 24.0485 21.3582 14.4385C20.8382 14.6385 20.0083 14.9586 19.1883 15.2786C14.4983 17.1386 9.81821 19.0085 5.12821 20.8585C4.72821 21.0185 4.56825 21.1985 4.54825 21.6485C4.47825 22.8385 3.67825 23.6386 2.54825 23.7786C1.52825 23.8986 0.508237 23.3085 0.158238 22.3785C-0.231762 21.3585 0.118203 20.2185 0.998203 19.6185C1.8882 19.0085 2.99821 19.1285 3.87821 19.8685C4.06821 20.0285 4.46826 20.1387 4.67826 20.0587C10.6583 17.7087 16.6382 15.3286 22.6082 12.9486C22.6482 12.9285 22.6883 12.8987 22.7983 12.8187C22.6083 12.2987 22.4083 11.7485 22.1783 11.1185C24.2083 10.3085 26.2082 9.51856 28.2482 8.70856C28.4982 9.29856 28.7182 9.80849 28.9582 10.3885C29.1882 10.3185 29.3982 10.2585 29.5982 10.1785C35.6882 7.75853 41.7782 5.33853 47.8782 2.92853C48.3282 2.74853 48.5183 2.54864 48.5483 2.03864C48.5983 0.958638 49.3782 0.178628 50.3982 0.0286281C51.5082 -0.131372 52.4882 0.388462 52.8782 1.35846C53.2882 2.35846 52.9982 3.44869 52.1582 4.08869C51.3282 4.71869 50.0982 4.74862 49.3482 4.01862C48.8982 3.57862 48.5583 3.61867 48.0583 3.81867C42.3383 6.09867 36.6182 8.36849 30.8882 10.6385C30.7082 10.7085 30.5382 10.7985 30.3682 10.8785L30.3782 10.8585Z" fill="url(#paint1_linear_6_1180)"/>
<path d="M50.9382 54.9885C51.5682 56.5685 52.1582 58.0584 52.7682 59.6084C48.2782 61.3884 43.8282 63.1585 39.3082 64.9485C38.6982 63.3985 38.0981 61.8986 37.4781 60.3286C41.9881 58.5386 46.4182 56.7785 50.9382 54.9885Z" fill="url(#paint2_linear_6_1180)"/>
<defs>
<linearGradient id="paint0_linear_6_1180" x1="0.468122" y1="72.8885" x2="66.6682" y2="8.82835" gradientUnits="userSpaceOnUse">
<stop stop-color="#076653"/>
<stop offset="1" stop-color="#06231D"/>
</linearGradient>
<linearGradient id="paint1_linear_6_1180" x1="-4.61177" y1="67.6385" x2="61.5881" y2="3.57845" gradientUnits="userSpaceOnUse">
<stop stop-color="#076653"/>
<stop offset="1" stop-color="#06231D"/>
</linearGradient>
<linearGradient id="paint2_linear_6_1180" x1="15.6081" y1="88.5284" x2="81.8078" y2="24.4682" gradientUnits="userSpaceOnUse">
<stop stop-color="#076653"/>
<stop offset="1" stop-color="#06231D"/>
</linearGradient>
</defs>
</svg>
