<svg width="103" height="141" viewBox="0 0 103 141" fill="none" xmlns="http://www.w3.org/2000/svg">
<path d="M89.3472 54.0906C93.8324 54.3799 97.5309 56.0076 99.7192 59.7242C100.958 61.8312 101.935 64.4446 101.98 66.85C102.206 78.8226 102.125 90.8134 102.07 102.795C101.98 121.487 87.1678 138.225 68.5215 139.807C55.9792 140.874 43.274 141.363 30.7769 139.391C14.7621 136.877 1.56858 122.427 0.465362 106.249C-0.221891 96.1577 0.130796 85.9936 0.0313252 75.8656C0.00419678 72.8182 -0.0229316 69.7708 0.0313252 66.7234C0.157925 60.3301 4.95059 55.0581 11.2534 54.2985C11.6694 54.2443 12.0763 54.181 12.7817 54.0725C12.7817 52.8698 12.7455 51.6943 12.7817 50.5187C13.0258 43.9446 12.6822 37.28 13.6769 30.8235C16.1637 14.682 30.8492 1.85934 47.1082 0.195465C66.4236 -1.77587 85.0428 11.3452 88.7051 31.3569C89.1482 33.7804 89.2838 36.2853 89.329 38.754C89.4195 43.7818 89.3561 48.8096 89.3561 54.1087L89.3472 54.0906ZM76.5606 54.0272C76.5606 49.75 76.6691 45.6537 76.5244 41.5663C76.4068 38.329 76.3616 35.0102 75.6292 31.8814C72.9887 20.5688 61.6761 12.1681 50.3636 12.8011C37.4957 13.5336 27.1688 22.6578 25.9932 34.9108C25.4055 41.0871 25.7219 47.3627 25.6406 53.5841C25.6406 53.6926 25.8033 53.8103 25.957 54.0183H76.5606V54.0272ZM51.9913 73.3969C45.8241 73.4422 41.2846 76.4805 39.3675 81.1828C37.351 86.1202 38.4271 91.5007 42.3336 95.2172C43.9974 96.7997 44.7751 98.5902 44.7118 100.86C44.6395 103.338 44.6304 105.815 44.7118 108.293C44.8384 111.992 47.8135 114.84 51.2769 114.705C54.7403 114.578 57.3537 111.784 57.408 108.121C57.4351 105.996 57.4984 103.871 57.3899 101.755C57.2542 99.0423 58.059 96.8902 60.0665 94.937C63.9007 91.2113 64.8592 85.7856 62.707 81.0562C60.4373 76.0646 56.4765 73.5507 52.0003 73.3969H51.9913Z" fill="#161616"/>
</svg>
