<svg width="126" height="98" viewBox="0 0 126 98" fill="none" xmlns="http://www.w3.org/2000/svg">
<path d="M0 61.46V71.4099H34.45V65.3301H6.08V61.46C6.08 54.98 11.35 49.71 17.83 49.71C24.31 49.71 29.58 54.98 29.58 61.46H35.66C35.66 51.63 27.66 43.6299 17.83 43.6299C8 43.6299 0 51.63 0 61.46Z" fill="#424242"/>
<mask id="mask0_6_1610" style="mask-type:luminance" maskUnits="userSpaceOnUse" x="0" y="43" width="36" height="29">
<path d="M0 61.46V71.4099H34.45V65.3301H6.08V61.46C6.08 54.98 11.35 49.71 17.83 49.71C24.31 49.71 29.58 54.98 29.58 61.46H35.66C35.66 51.63 27.66 43.6299 17.83 43.6299C8 43.6299 0 51.63 0 61.46Z" fill="white"/>
</mask>
<g mask="url(#mask0_6_1610)">
<path d="M34.8029 38.4068L-4.14833 44.2698L0.729324 76.6748L39.6805 70.8117L34.8029 38.4068Z" fill="#424242"/>
</g>
<path d="M13.39 76.4199C13.39 78.1499 14.8 79.5601 16.53 79.5601C18.26 79.5601 19.67 78.1399 19.67 76.4199C19.67 74.6999 18.26 73.28 16.53 73.28C14.8 73.28 13.39 74.6899 13.39 76.4199Z" fill="#424242"/>
<mask id="mask1_6_1610" style="mask-type:luminance" maskUnits="userSpaceOnUse" x="13" y="73" width="7" height="7">
<path d="M13.39 76.4199C13.39 78.1499 14.8 79.5601 16.53 79.5601C18.26 79.5601 19.67 78.1399 19.67 76.4199C19.67 74.6999 18.26 73.28 16.53 73.28C14.8 73.28 13.39 74.6899 13.39 76.4199Z" fill="white"/>
</mask>
<g mask="url(#mask1_6_1610)">
<path d="M19.4767 72.3652L12.4064 73.4294L13.4706 80.4997L20.541 79.4355L19.4767 72.3652Z" fill="#424242"/>
</g>
<path d="M48.94 0.0200195C26.56 0.95002 9.11 19.92 10.04 42.3L16.11 42.05C15.32 23.02 30.16 6.8901 49.19 6.1001C58.41 5.7201 67.23 8.94995 74.02 15.2L78.14 10.73C70.59 3.77998 60.9 0 50.7 0C50.12 0 49.53 0.0100391 48.95 0.0400391" fill="#424242"/>
<mask id="mask2_6_1610" style="mask-type:luminance" maskUnits="userSpaceOnUse" x="10" y="0" width="69" height="43">
<path d="M48.94 0.0200195C26.56 0.95002 9.11 19.92 10.04 42.3L16.11 42.05C15.32 23.02 30.16 6.8901 49.19 6.1001C58.41 5.7201 67.23 8.94995 74.02 15.2L78.14 10.73C70.59 3.77998 60.9 0 50.7 0C50.12 0 49.53 0.0100391 48.95 0.0400391" fill="white"/>
</mask>
<g mask="url(#mask2_6_1610)">
<path d="M76.5439 -10.167L2.81444 0.930908L10.5722 52.4702L84.3017 41.3723L76.5439 -10.167Z" fill="#424242"/>
</g>
<path d="M106.81 58.46H100.73V70.95H106.81V58.46Z" fill="#424242"/>
<mask id="mask3_6_1610" style="mask-type:luminance" maskUnits="userSpaceOnUse" x="100" y="58" width="7" height="13">
<path d="M106.81 58.46H100.73V70.95H106.81V58.46Z" fill="white"/>
</mask>
<g mask="url(#mask3_6_1610)">
<path d="M106.611 57.5725L98.8287 58.7439L100.801 71.8463L108.583 70.6749L106.611 57.5725Z" fill="#424242"/>
</g>
<path d="M97.57 53.9299H91.49V70.9399H97.57V53.9299Z" fill="#424242"/>
<mask id="mask4_6_1610" style="mask-type:luminance" maskUnits="userSpaceOnUse" x="91" y="53" width="7" height="18">
<path d="M97.57 53.9299H91.49V70.9399H97.57V53.9299Z" fill="white"/>
</mask>
<g mask="url(#mask4_6_1610)">
<path d="M97.3606 53.0487L88.9157 54.3198L91.5547 71.8523L99.9996 70.5812L97.3606 53.0487Z" fill="#424242"/>
</g>
<path d="M88.32 48.27H82.24V70.9399H88.32V48.27Z" fill="#424242"/>
<mask id="mask5_6_1610" style="mask-type:luminance" maskUnits="userSpaceOnUse" x="82" y="48" width="7" height="23">
<path d="M88.32 48.27H82.24V70.9399H88.32V48.27Z" fill="white"/>
</mask>
<g mask="url(#mask5_6_1610)">
<path d="M88.1223 47.3941L78.8467 48.7903L82.3178 71.8506L91.5933 70.4544L88.1223 47.3941Z" fill="#424242"/>
</g>
<path d="M39.44 16.74V71.4099H74.79C75.39 71.4399 75.99 71.45 76.61 71.45C77.23 71.45 77.9 71.4299 78.57 71.3999L78.42 65.3301H75.01C69.72 65.0301 65.61 63.2701 62.77 60.0601C55.65 52.0201 58.04 37.3 58.09 36.98L52.1 35.9299C51.97 36.6499 49.1 53.7701 58.19 64.0701C58.58 64.5101 58.98 64.9301 59.4 65.3301H45.51V16.74H39.43H39.44Z" fill="#424242"/>
<mask id="mask6_6_1610" style="mask-type:luminance" maskUnits="userSpaceOnUse" x="39" y="16" width="40" height="56">
<path d="M39.44 16.74V71.4099H74.79C75.39 71.4399 75.99 71.45 76.61 71.45C77.23 71.45 77.9 71.4299 78.57 71.3999L78.42 65.3301H75.01C69.72 65.0301 65.61 63.2701 62.77 60.0601C55.65 52.0201 58.04 37.3 58.09 36.98L52.1 35.9299C51.97 36.6499 49.1 53.7701 58.19 64.0701C58.58 64.5101 58.98 64.9301 59.4 65.3301H45.51V16.74H39.43H39.44Z" fill="white"/>
</mask>
<g mask="url(#mask6_6_1610)">
<path d="M77.6439 11.0044L31.3257 17.9763L40.246 77.2389L86.5642 70.267L77.6439 11.0044Z" fill="#424242"/>
</g>
<path d="M61.02 43.3401H67.1C67.1 30.1701 75.83 20.6001 87.85 20.6001C99.87 20.6001 110.59 30.8001 110.59 43.3401V70.9399H116.67V43.3401C116.67 27.4501 103.74 14.53 87.86 14.53C71.98 14.53 61.03 26.9201 61.03 43.3401" fill="#424242"/>
<mask id="mask7_6_1610" style="mask-type:luminance" maskUnits="userSpaceOnUse" x="61" y="14" width="56" height="57">
<path d="M61.02 43.3401H67.1C67.1 30.1701 75.83 20.6001 87.85 20.6001C99.87 20.6001 110.59 30.8001 110.59 43.3401V70.9399H116.67V43.3401C116.67 27.4501 103.74 14.53 87.86 14.53C71.98 14.53 61.03 26.9201 61.03 43.3401" fill="white"/>
</mask>
<g mask="url(#mask7_6_1610)">
<path d="M115.367 6.34736L52.6536 15.7871L62.1901 79.1435L124.904 69.7037L115.367 6.34736Z" fill="#424242"/>
</g>
<path d="M115.16 24.4099C118.17 30.4399 119.41 34.98 119.86 41.71V70.9399H125.94V41.4099C125.43 33.8199 123.98 28.48 120.6 21.7L115.16 24.4199V24.4099Z" fill="#424242"/>
<mask id="mask8_6_1610" style="mask-type:luminance" maskUnits="userSpaceOnUse" x="115" y="21" width="11" height="50">
<path d="M115.16 24.4099C118.17 30.4399 119.41 34.98 119.86 41.71V70.9399H125.94V41.4099C125.43 33.8199 123.98 28.48 120.6 21.7L115.16 24.4199V24.4099Z" fill="white"/>
</mask>
<g mask="url(#mask8_6_1610)">
<path d="M125.635 20.1226L107.846 22.8003L115.333 72.54L133.122 69.8623L125.635 20.1226Z" fill="#424242"/>
</g>
<path d="M27.47 97.8699L27.15 97.22C27.15 97.22 27.13 97.2 27.11 97.2H24.72C24.72 97.2 24.69 97.21 24.69 97.22L24.37 97.8699C24.37 97.8699 24.35 97.8999 24.33 97.8999H23.59C23.59 97.8999 23.54 97.8601 23.55 97.8401L25.47 93.99C25.47 93.99 25.49 93.97 25.51 93.97H26.32C26.32 93.97 26.35 93.98 26.36 93.99L28.29 97.8401C28.29 97.8401 28.28 97.8999 28.25 97.8999H27.51C27.51 97.8999 27.48 97.8899 27.47 97.8699ZM25.11 96.46H26.73C26.73 96.46 26.76 96.4399 26.75 96.4199L25.94 94.79C25.94 94.79 25.92 94.78 25.91 94.79L25.09 96.4199C25.09 96.4199 25.09 96.46 25.11 96.46Z" fill="#424242"/>
<path d="M30.11 97.8899C30.11 97.8899 30.06 97.8701 30.06 97.8401V94.01C30.06 94.01 30.08 93.96 30.11 93.96H30.76C30.76 93.96 30.81 93.98 30.81 94.01V97.1001C30.81 97.1001 30.83 97.1499 30.86 97.1499H33.91C33.91 97.1499 33.95 97.1699 33.94 97.1899L33.72 97.8699C33.72 97.8699 33.7 97.8899 33.69 97.8899H30.11Z" fill="#424242"/>
<path d="M35.9 97.6199C35.9 97.6199 35.88 97.6101 35.88 97.6001L35.8 96.77C35.8 96.77 35.81 96.73 35.83 96.73C35.83 96.73 35.84 96.73 35.85 96.73C36.04 96.84 36.81 97.23 38.07 97.23C38.89 97.23 39.39 97.03 39.39 96.73C39.39 96.52 38.94 96.3301 37.84 96.3301C35.78 96.3301 35.69 95.4699 35.69 95.1599C35.69 94.1399 36.94 93.8799 38.02 93.8799C38.99 93.8799 39.67 94.17 39.79 94.22C39.8 94.22 39.81 94.23 39.81 94.24L39.86 95.04C39.86 95.04 39.85 95.0701 39.83 95.0701C39.83 95.0701 39.82 95.0701 39.81 95.0701C39.56 94.9101 38.84 94.6199 38.01 94.6199C36.65 94.6199 36.42 94.9399 36.42 95.1499C36.42 95.4499 36.96 95.5801 37.83 95.5801C38.62 95.5801 40.16 95.67 40.16 96.75C40.16 97 39.98 97.97 38.05 97.97C36.78 97.97 36.01 97.6699 35.88 97.6099" fill="#424242"/>
<path d="M45.59 93.97H46.23C46.23 93.97 46.28 93.99 46.28 94.02V97.8501C46.28 97.8501 46.26 97.8999 46.23 97.8999H45.59C45.59 97.8999 45.54 97.8701 45.54 97.8501V96.3599C45.54 96.3599 45.51 96.3101 45.49 96.3101H42.88C42.88 96.3101 42.83 96.3299 42.83 96.3599V97.8501C42.83 97.8501 42.81 97.8999 42.78 97.8999H42.14C42.14 97.8999 42.09 97.8701 42.09 97.8501V94.02C42.09 94.02 42.11 93.97 42.14 93.97H42.78C42.78 93.97 42.83 93.99 42.83 94.02V95.51C42.83 95.51 42.85 95.5601 42.88 95.5601H45.49C45.49 95.5601 45.54 95.54 45.54 95.51V94.02C45.54 94.02 45.56 93.97 45.59 93.97Z" fill="#424242"/>
<path d="M51.98 97.8699L51.66 97.22C51.66 97.22 51.64 97.2 51.62 97.2H49.23C49.23 97.2 49.2 97.21 49.2 97.22L48.88 97.8699C48.88 97.8699 48.86 97.8999 48.84 97.8999H48.1C48.1 97.8999 48.05 97.8601 48.06 97.8401L49.98 93.99C49.98 93.99 50 93.97 50.02 93.97H50.83C50.83 93.97 50.86 93.98 50.87 93.99L52.8 97.8401C52.8 97.8401 52.79 97.8999 52.76 97.8999H52.02C52.02 97.8999 51.99 97.8899 51.98 97.8699ZM49.62 96.46H51.24C51.24 96.46 51.27 96.4399 51.26 96.4199L50.45 94.79C50.45 94.79 50.43 94.78 50.42 94.79L49.6 96.4199C49.6 96.4199 49.6 96.46 49.62 96.46Z" fill="#424242"/>
<path d="M54.62 97.8899C54.62 97.8899 54.57 97.8701 54.57 97.8401V94.01C54.57 94.01 54.59 93.96 54.62 93.96H57.44C58.38 93.96 58.69 94.54 58.69 95.02C58.69 95.47 58.43 95.8201 58.11 95.8201C58.46 95.8301 59 96.03 59 96.72C59 97.14 58.69 97.8799 57.71 97.8799H54.62V97.8899ZM55.32 95.47C55.32 95.47 55.34 95.51 55.37 95.51H57.52C57.82 95.51 57.98 95.4001 57.98 95.1001C57.98 94.8701 57.83 94.71 57.52 94.71H55.37C55.37 94.71 55.32 94.73 55.32 94.76V95.47ZM55.32 97.1001C55.32 97.1001 55.34 97.1499 55.37 97.1499H57.64C58.2 97.1499 58.26 96.84 58.26 96.73C58.26 96.48 58.04 96.26 57.62 96.26H55.37C55.37 96.26 55.32 96.28 55.32 96.3V97.1001Z" fill="#424242"/>
<path d="M67.08 94.71H64.1C64.1 94.71 64.06 94.73 64.06 94.75V95.75C64.06 95.75 64.08 95.79 64.1 95.79H66.39C66.39 95.79 66.44 95.8201 66.43 95.8501L66.23 96.5C66.23 96.5 66.2 96.53 66.19 96.53H64.11C64.11 96.53 64.07 96.5501 64.07 96.5701V97.8401C64.07 97.8401 64.05 97.8899 64.02 97.8899H63.37C63.37 97.8899 63.32 97.8701 63.32 97.8401V94.01C63.32 94.01 63.34 93.96 63.37 93.96H66.88C66.88 93.96 66.92 93.97 66.92 93.99L67.13 94.6399C67.13 94.6399 67.12 94.7 67.09 94.7" fill="#424242"/>
<path d="M68.71 95.9299C68.71 94.4699 70.17 93.8799 71.16 93.8799C72.22 93.8799 73.62 94.5299 73.62 95.9299C73.62 97.1499 72.56 97.98 71.16 97.98C70.15 97.98 68.71 97.2399 68.71 95.9299ZM69.46 95.9299C69.46 96.6499 70.22 97.24 71.17 97.24C72.12 97.24 72.88 96.6499 72.88 95.9299C72.88 95.2099 72.11 94.6299 71.17 94.6299C70.23 94.6299 69.46 95.2199 69.46 95.9299Z" fill="#424242"/>
<path d="M75.19 95.9299C75.19 94.4699 76.65 93.8799 77.64 93.8799C78.7 93.8799 80.1 94.5299 80.1 95.9299C80.1 97.1499 79.04 97.98 77.64 97.98C76.63 97.98 75.19 97.2399 75.19 95.9299ZM75.93 95.9299C75.93 96.6499 76.69 97.24 77.64 97.24C78.59 97.24 79.35 96.6499 79.35 95.9299C79.35 95.2099 78.58 94.6299 77.64 94.6299C76.7 94.6299 75.93 95.2199 75.93 95.9299Z" fill="#424242"/>
<path d="M82.11 97.8999C82.06 97.8999 82.02 97.8601 82.02 97.8101V94.0601C82.02 94.0101 82.06 93.97 82.11 93.97H84.09C85.61 93.97 86.5 94.7499 86.5 95.9399C86.5 96.8999 85.91 97.9099 84.09 97.9099H82.11V97.8999ZM82.77 97.0601C82.77 97.0601 82.81 97.1499 82.86 97.1499H84.1C85.31 97.1499 85.77 96.8099 85.77 95.9299C85.77 94.8699 84.72 94.71 84.1 94.71H82.86C82.86 94.71 82.77 94.75 82.77 94.8V97.0601Z" fill="#424242"/>
<path d="M94.84 97.6699C94.84 97.6699 94.83 97.69 94.82 97.7C94.49 97.84 94 97.99 93.41 97.99C92.12 97.99 90.74 97.37 90.74 96.01C90.74 94.26 92.5 93.8899 93.37 93.8899C93.99 93.8899 94.5 94.0099 94.82 94.1199C94.83 94.1199 94.84 94.1399 94.84 94.1499L94.89 94.8899C94.89 94.8899 94.88 94.9299 94.86 94.9299C94.86 94.9299 94.85 94.9299 94.84 94.9299C94.66 94.8599 94.07 94.6399 93.36 94.6399C92.39 94.6399 91.48 95.2 91.48 96.02C91.48 96.99 92.74 97.25 93.41 97.25C94.08 97.25 94.64 96.9699 94.86 96.8599C94.86 96.8599 94.87 96.8599 94.88 96.8599C94.9 96.8599 94.92 96.8799 94.91 96.8999L94.84 97.6899V97.6699Z" fill="#424242"/>
<path d="M96.68 95.9299C96.68 94.4699 98.14 93.8799 99.13 93.8799C100.19 93.8799 101.59 94.5299 101.59 95.9299C101.59 97.1499 100.53 97.98 99.13 97.98C98.12 97.98 96.68 97.2399 96.68 95.9299ZM97.43 95.9299C97.43 96.6499 98.19 97.24 99.14 97.24C100.09 97.24 100.85 96.6499 100.85 95.9299C100.85 95.2099 100.08 94.6299 99.14 94.6299C98.2 94.6299 97.43 95.2199 97.43 95.9299Z" fill="#424242"/>
<path d="M103.83 97.98C103.59 97.98 103.39 97.79 103.39 97.55C103.39 97.31 103.59 97.1199 103.83 97.1199C104.07 97.1199 104.27 97.31 104.27 97.55C104.27 97.79 104.08 97.98 103.83 97.98Z" fill="#424242"/>
<path d="M15.2 87.79H20.31L19.74 85.21C19.54 84.17 18.96 83.4399 17.89 83.4399C17.36 83.4399 16.8 83.71 16.43 83.97L16.24 83.1299C16.66 82.8499 17.33 82.55 18.04 82.55C19.59 82.55 20.46 83.6201 20.8 85.0801L21.61 88.6899H14.83L15.21 87.8L15.2 87.79Z" fill="#424242"/>
<path d="M30.13 87.79C30.13 87.79 30.91 88.6799 30.35 88.6799H27.56C27.57 90.2499 26.42 91.33 24.99 91.3L24.85 90.4299C25.93 90.2399 26.36 89.9599 26.43 88.6699H25.19C23.49 88.6699 22.28 87.56 22.28 85.76C22.28 83.96 23.35 82.53 25.1 82.53C27.06 82.53 27.56 83.7701 27.56 85.3501V87.77H30.12L30.13 87.79ZM23.33 85.6799C23.34 87.3599 24.38 87.79 25.47 87.79H26.48V84.97C26.48 84.27 26.16 83.3201 25.02 83.3201C24.1 83.3201 23.29 84.0799 23.33 85.6899" fill="#424242"/>
<path d="M30.35 88.6799L29.97 87.79H33.29C34.16 87.79 34.57 87.0999 34.57 85.9399V85.6399C34.23 86.0999 33.61 86.49 32.79 86.49C31.57 86.49 30.95 85.64 30.95 84.77C30.95 83.32 32.23 82.54 34.5 82.54H35.66V86.0701C35.66 88.1501 34.48 88.6799 33.67 88.6799H30.33H30.35ZM34.58 83.3C33.27 83.3 32.05 83.5399 32.05 84.6499C32.05 85.3699 32.52 85.6899 33.06 85.6899C33.86 85.6899 34.36 85.1899 34.52 84.6799C34.56 84.5699 34.57 84.4501 34.57 84.3401V83.3H34.58ZM34.06 81.1299C33.72 81.1299 33.47 80.85 33.47 80.49C33.47 80.13 33.74 79.8699 34.09 79.8699C34.44 79.8699 34.69 80.14 34.69 80.49C34.69 80.84 34.46 81.1299 34.08 81.1299H34.07H34.06Z" fill="#424242"/>
<path d="M45.73 87.79C46.59 87.79 47.03 87.0999 47.03 85.9399V82.9299L48.12 82.55V86.0801C48.12 88.1601 46.94 88.6899 46.13 88.6899H41.95C40.54 88.6899 38.92 87.66 38.92 85.51C38.92 83.77 40.16 82.7099 40.99 82.3699L41.4 82.98C40.78 83.39 39.93 84.2 39.93 85.49C39.93 86.69 40.73 87.79 41.96 87.79H45.73ZM43.79 91.26C44.15 91.26 44.4 90.9799 44.4 90.6199C44.4 90.2599 44.14 90 43.81 90C43.45 90 43.19 90.2799 43.19 90.6199C43.19 90.9599 43.43 91.26 43.78 91.26H43.79Z" fill="#424242"/>
<path d="M51.92 87.79C51.92 87.79 54.9 88.6799 54.34 88.6799H51.26C50.46 88.6799 49.21 88.1501 49.21 86.0701V80.26L50.3 79.8699V85.9399C50.3 87.0999 50.64 87.79 51.52 87.79H51.93H51.92Z" fill="#424242"/>
<path d="M63.54 87.79C63.54 87.79 64.32 88.6799 63.76 88.6799H54.34L51.76 87.79H60.19C60.24 87.52 60.28 87.2099 60.28 86.8799C60.28 84.6899 58.97 83.45 57.01 83.45C56.32 83.45 55.74 83.6 55.33 83.79L55.06 82.8999C55.34 82.7699 56.02 82.55 57.05 82.55C59.64 82.55 61.41 84.3099 61.41 86.9299C61.41 87.2399 61.38 87.53 61.36 87.79H63.54Z" fill="#424242"/>
<path d="M74.71 87.79C74.71 87.79 75.49 88.6799 74.93 88.6799C73.97 88.6699 73.31 88.21 72.92 87.45C72.54 88.41 71.76 88.6799 71.18 88.6799C70.23 88.6799 69.59 88.26 69.17 87.48C68.91 88.18 68.29 88.6799 67.48 88.6799C66.55 88.6799 65.88 88.21 65.48 87.48C65.21 88.18 64.6 88.6799 63.79 88.6799L63.38 87.79C64.2 87.79 64.62 87.0999 64.62 86.1499V84.04L65.71 83.6499V86.26C65.71 87.02 66.25 87.79 67.1 87.79C67.95 87.79 68.32 87.0999 68.32 86.1499V83.54L69.41 83.1499V86.26C69.41 87 69.94 87.79 70.76 87.79C71.62 87.79 72.06 87.0999 72.06 85.9399V82.9299L73.15 82.55V86.28C73.14 87.05 73.7 87.78 74.54 87.79H74.7H74.71Z" fill="#424242"/>
<path d="M74.52 87.79C75.38 87.79 75.82 87.0999 75.82 85.9399V80.26L76.91 79.8699V86.0701C76.91 88.1501 75.73 88.6799 74.92 88.6799L74.51 87.79H74.52Z" fill="#424242"/>
<path d="M78 80.26L79.09 79.8699V88.6799H78V80.26Z" fill="#424242"/>
<path d="M91.47 87.79C91.47 87.79 92.25 88.6799 91.69 88.6799H88.54C88.04 88.6799 87.36 88.46 86.96 87.79C86.31 87.9 85.88 87.9299 85.55 87.9299C83.94 87.9299 82.41 87.1301 82.41 85.3101C82.41 83.2801 84.14 82.5701 85.96 82.5701C86.7 82.5701 87.27 82.6099 87.62 82.6699V85.95C87.62 87.11 87.97 87.8 88.84 87.8H91.46L91.47 87.79ZM86.55 83.46C86.31 83.41 86.05 83.3899 85.7 83.3899C84.48 83.3899 83.54 84 83.54 85.27C83.54 86.54 84.59 87.05 85.69 87.05C85.97 87.05 86.28 87.02 86.55 87V83.46ZM84.29 80.8799C84.29 80.5399 84.55 80.26 84.88 80.26C85.21 80.26 85.49 80.5299 85.49 80.8799C85.49 81.2299 85.25 81.5 84.88 81.5C84.51 81.5 84.29 81.2199 84.29 80.8799ZM85.96 80.8799C85.96 80.5399 86.23 80.26 86.58 80.26C86.93 80.26 87.17 80.5299 87.17 80.8799C87.17 81.2299 86.94 81.5 86.56 81.5C86.21 81.5 85.95 81.2199 85.95 80.8799" fill="#424242"/>
<path d="M89.1 87.79H95.45C95.45 87.79 94.71 85.8399 94.41 85.1599C94 84.2399 93.37 83.75 92.52 83.75C92.26 83.75 92.02 83.7599 91.75 83.8599L94.63 80.3201H95.97L93.46 83.1299C94.39 83.1699 94.99 83.9099 95.38 84.8599C95.54 85.2699 96.74 88.1999 97.02 88.6899H91.7L89.12 87.8L89.1 87.79Z" fill="#424242"/>
<path d="M101.52 87.79C101.52 87.79 102.3 88.6799 101.74 88.6799C100.92 88.6799 100.35 88.3301 99.96 87.8301V88.25C99.96 90.2 99.2 91.25 97.39 91.3L97.25 90.4399C98.28 90.3499 98.94 90.0901 98.87 87.8501V84.1699L99.95 83.78V86.4299C99.95 87.0899 100.57 87.78 101.34 87.79H101.51H101.52Z" fill="#424242"/>
<path d="M101.33 87.79C102.15 87.79 102.57 87.0999 102.57 86.1599V84.05L103.66 83.6599V86.27C103.66 87.03 104.21 87.8 105.05 87.8C105.89 87.8 106.27 87.1099 106.27 86.1699V83.5601L107.37 83.1699V86.28C107.37 87.02 107.9 87.8101 108.72 87.8101C109.54 87.8101 110.02 87.12 110.02 85.96V82.95L111.11 82.5701V86.1001C111.11 88.1801 109.93 88.71 109.12 88.71C108.17 88.71 107.54 88.29 107.11 87.51C106.85 88.21 106.23 88.71 105.43 88.71C104.48 88.71 103.82 88.24 103.42 87.51C103.16 88.21 102.54 88.71 101.73 88.71L101.32 87.8201L101.33 87.79ZM105.9 81.1299C105.56 81.1299 105.3 80.85 105.3 80.49C105.3 80.13 105.57 79.8699 105.91 79.8699C106.25 79.8699 106.51 80.14 106.51 80.49C106.51 80.84 106.28 81.1299 105.91 81.1299H105.9ZM106.74 79.6399C106.43 79.6399 106.2 79.3801 106.2 79.0701C106.2 78.7601 106.44 78.52 106.75 78.52C107.06 78.52 107.28 78.7801 107.28 79.0701C107.28 79.3601 107.08 79.6399 106.75 79.6399H106.74ZM107.58 81.1299C107.24 81.1299 106.99 80.85 106.99 80.49C106.99 80.13 107.26 79.8699 107.61 79.8699C107.96 79.8699 108.2 80.14 108.2 80.49C108.2 80.84 107.97 81.1299 107.59 81.1299H107.58Z" fill="#424242"/>
</svg>
