<svg width="64" height="65" viewBox="0 0 64 65" fill="none" xmlns="http://www.w3.org/2000/svg">
<path d="M31.5716 0.0301527C39.0316 0.0301527 46.5016 0.0903675 53.9616 0.000367519C56.8216 -0.0296325 58.8117 1.78033 59.4017 4.21033C60.4817 8.64033 61.6917 13.0503 62.8717 17.4603C63.1717 18.5803 63.2016 19.6402 62.8516 20.7802C62.5116 21.9102 62.5416 23.1602 62.2116 24.3002C61.4116 27.1102 59.8816 29.3703 57.1016 30.6303C56.9016 30.7203 56.7316 31.1102 56.7216 31.3702C56.6916 33.8802 56.7016 36.3903 56.7016 38.9003C56.7016 45.5903 56.7016 52.2903 56.7016 58.9803C56.7016 62.3103 54.6716 64.3602 51.3516 64.3602C38.1016 64.3602 24.8516 64.3602 11.5916 64.3602C8.54164 64.3602 6.43173 62.2603 6.43173 59.2003C6.43173 50.0403 6.43173 40.8803 6.43173 31.7203C6.43173 31.0603 6.28168 30.7203 5.63168 30.3903C2.84168 29.0203 1.44166 26.5703 0.741662 23.6603C0.421662 22.3503 0.211701 21.0103 0.0317011 19.6703C-0.0382989 19.1303 0.0116865 18.5304 0.141686 18.0004C1.37169 13.2304 2.61168 8.46032 3.88168 3.70032C4.48168 1.44032 6.37166 0.0301429 8.74166 0.0201429C16.3417 0.0201429 23.9417 0.0201429 31.5417 0.0201429L31.5716 0.0301527ZM29.5716 60.3002C29.7616 60.3202 29.8517 60.3402 29.9317 60.3402C37.1217 60.3402 44.3217 60.3402 51.5117 60.3402C52.4117 60.3402 52.7016 60.0004 52.7016 59.0004C52.7016 49.9104 52.7016 40.8203 52.7116 31.7203C52.7116 31.2003 52.5317 31.0303 52.0517 30.9303C50.6817 30.6403 49.4316 30.0603 48.3516 29.1703C47.7616 28.6903 47.2317 28.1402 46.6417 27.5902C44.6817 29.9002 42.1817 31.1803 39.1317 31.1803C36.0817 31.1803 33.5916 29.9002 31.5916 27.5502C29.5816 29.9002 27.1017 31.1803 24.0517 31.1803C20.9817 31.1803 18.4817 29.8802 16.4917 27.5402C15.0517 29.2902 13.3216 30.4303 11.2016 30.9103C10.6016 31.0403 10.4716 31.2902 10.4716 31.8502C10.4916 40.8302 10.4817 49.8102 10.4817 58.7902C10.4817 59.0202 10.4817 59.2403 10.5017 59.4703C10.5617 59.9503 10.8316 60.2902 11.3316 60.3102C12.0216 60.3502 12.7217 60.3102 13.4917 60.3102C13.4917 60.0202 13.4917 59.7802 13.4917 59.5402C13.4917 52.7302 13.4917 45.9202 13.4917 39.1202C13.4917 36.9602 14.7517 35.7103 16.9017 35.7103C19.9317 35.7103 22.9617 35.7103 25.9917 35.7103C28.3817 35.7103 29.5716 36.8902 29.5716 39.2902C29.5716 45.7802 29.5716 52.2701 29.5716 58.7601V60.2902V60.3002ZM25.4917 60.3102V39.8102C22.8117 39.8102 20.1817 39.8102 17.5317 39.8102C17.5317 46.6702 17.5317 53.4602 17.5317 60.3102C20.1917 60.3102 22.8017 60.3102 25.4917 60.3102ZM17.1517 4.06018C14.2617 4.06018 11.4816 4.06018 8.71163 4.06018C8.12163 4.06018 7.86165 4.48013 7.73165 5.01013C6.56165 9.51013 5.38162 14.0101 4.20162 18.5101C4.15162 18.6901 4.13164 18.8803 4.09164 19.1303C7.61164 19.1303 11.0416 19.1303 14.4716 19.1303C14.9316 19.1303 14.8817 18.8102 14.9317 18.5302C15.3617 15.7402 15.8017 12.9503 16.2317 10.1603C16.5417 8.15028 16.8417 6.15017 17.1617 4.05017L17.1517 4.06018ZM46.0716 4.0802C46.0716 4.2302 46.0616 4.34032 46.0716 4.45032C46.8016 9.18032 47.5317 13.9103 48.2417 18.6503C48.3117 19.1403 48.5717 19.1403 48.9317 19.1403C52.1217 19.1403 55.3017 19.1403 58.4917 19.1403C58.6617 19.1403 58.8416 19.1302 59.0616 19.1202C59.0316 18.9302 59.0317 18.7703 58.9917 18.6303C57.8017 14.0903 56.6117 9.54037 55.4317 5.00037C55.2517 4.31037 54.8317 4.06019 54.1417 4.07019C51.6317 4.09019 49.1217 4.07019 46.6217 4.07019C46.4517 4.07019 46.2716 4.09022 46.0716 4.10022V4.0802ZM29.5317 4.05017C26.9717 4.05017 24.4917 4.07016 22.0117 4.04016C21.4117 4.04016 21.2117 4.21017 21.1217 4.80017C20.5617 8.60017 19.9617 12.3903 19.3817 16.1903C19.2317 17.1403 19.1016 18.1002 18.9516 19.0902C22.5316 19.0902 26.0117 19.0902 29.5317 19.0902C29.5317 14.0702 29.5317 9.11018 29.5317 4.06018V4.05017ZM44.1717 19.1002C44.1717 18.9502 44.1817 18.8303 44.1717 18.7303C43.4417 14.0003 42.7117 9.27015 42.0017 4.53015C41.9417 4.15015 41.7717 4.05018 41.4217 4.06018C38.9117 4.07018 36.4017 4.06019 33.9017 4.07019C33.8217 4.07019 33.7417 4.11024 33.6717 4.12024C33.6717 9.14024 33.6717 14.1102 33.6717 19.1002C37.2017 19.1002 40.6717 19.1002 44.1817 19.1002H44.1717ZM44.3316 23.2103C40.8216 23.2103 37.3617 23.2103 33.8917 23.2103C34.3617 25.4703 36.7516 27.2203 39.2216 27.1703C41.6316 27.1303 43.9516 25.3603 44.3316 23.2103ZM18.8316 23.1803C19.2216 25.4603 21.7617 27.2703 24.2817 27.1603C26.6717 27.0603 29.0917 25.1203 29.2317 23.1803C25.7817 23.1803 22.3316 23.1803 18.8316 23.1803ZM4.87167 23.1803C5.29167 25.6403 7.27173 27.3303 9.43173 27.1503C11.7217 26.9603 14.1517 24.9203 14.1317 23.1803C11.0617 23.1803 7.99167 23.1803 4.87167 23.1803ZM58.2617 23.2103C55.1617 23.2103 52.0716 23.2103 48.9716 23.2103C49.4916 25.5303 52.0216 27.3303 54.4516 27.1703C56.2416 27.0503 58.0617 25.1803 58.2617 23.2103Z" fill="url(#paint0_linear_6_1168)"/>
<path d="M49.6818 44.5502C49.6818 46.4302 49.6818 48.3004 49.6818 50.1804C49.6818 52.1404 48.5317 53.3102 46.5617 53.3202C42.9217 53.3402 39.2818 53.3402 35.6418 53.3202C33.7718 53.3202 32.5917 52.1104 32.5817 50.2504C32.5717 46.4304 32.5717 42.6102 32.5817 38.7902C32.5817 36.9202 33.7818 35.7304 35.6418 35.7204C39.3018 35.7104 42.9718 35.7104 46.6318 35.7204C48.4618 35.7204 49.6518 36.8904 49.6818 38.7204C49.7118 40.6604 49.6818 42.6102 49.6818 44.5502ZM45.6318 49.2602C45.6318 46.0602 45.6318 42.9502 45.6318 39.8102C42.6218 39.8102 39.6518 39.8102 36.6718 39.8102C36.6718 42.9902 36.6718 46.1202 36.6718 49.2602C39.6818 49.2602 42.6318 49.2602 45.6318 49.2602Z" fill="url(#paint1_linear_6_1168)"/>
<defs>
<linearGradient id="paint0_linear_6_1168" x1="0.0316978" y1="32.1903" x2="63.1117" y2="32.1903" gradientUnits="userSpaceOnUse">
<stop stop-color="#076653"/>
<stop offset="1" stop-color="#06231D"/>
</linearGradient>
<linearGradient id="paint1_linear_6_1168" x1="32.5817" y1="44.5203" x2="49.6918" y2="44.5203" gradientUnits="userSpaceOnUse">
<stop stop-color="#076653"/>
<stop offset="1" stop-color="#06231D"/>
</linearGradient>
</defs>
</svg>
