<svg width="227" height="94" viewBox="0 0 227 94" fill="none" xmlns="http://www.w3.org/2000/svg">
<path d="M205.062 47.0903L224.472 16.04H166.152L172.762 24.7202L182.592 38.3604L193.072 24.1001L206.012 24.0903L187.892 48.5503L226.482 93.0903L205.062 47.0903Z" fill="#111111"/>
<path d="M160.862 46L141.452 77.0503H199.772L193.162 68.3701L183.332 54.73L172.732 69.04L160.062 69.0303L178.032 44.54L139.432 0L160.862 46Z" fill="#A0CC3A"/>
<path d="M83.5816 39.77L75.6016 61.6899C74.1616 65.6599 68.6016 68.8799 63.2216 68.8799H58.8916C58.5416 68.8799 58.3416 68.6699 58.4316 68.4199L66.4116 46.5C67.8516 42.53 73.4116 39.3101 78.7916 39.3101H83.1216C83.4716 39.3101 83.6716 39.52 83.5816 39.77ZM107.692 24.1001H65.3716C59.9816 24.1001 54.4316 27.33 52.9916 31.29L52.4816 32.7002C52.3916 32.9602 52.5916 33.1602 52.9416 33.1602H95.2616C100.652 33.1602 106.202 29.9302 107.642 25.9702L108.152 24.5601C108.242 24.3001 108.042 24.1001 107.692 24.1001Z" fill="#111111"/>
<path d="M54.1916 24.1001H34.8016C23.2716 24.2201 12.0816 30.2503 9.32158 37.8403C7.01158 44.1903 11.3315 48.9804 20.5915 50.3604L28.2815 51.4702C32.2515 52.0602 34.1116 53.7999 33.2716 56.1299C32.2816 58.8599 28.4615 60.7202 23.6515 60.9302C23.6315 60.9302 23.6215 60.9302 23.6015 60.9302L23.0315 60.8901H21.3016H21.2916H12.1916C7.01158 60.8901 1.67154 64.0001 0.281541 67.8101L0.0215923 68.5303C-0.0684077 68.7803 0.131534 68.98 0.461534 68.98L18.0016 69H18.1615H19.7416H19.8616C19.8616 69 19.9416 69.02 19.9816 69.02C20.2116 69.02 20.4315 69.0002 20.6615 68.9902H21.5016C21.5616 69.0102 21.6415 69.02 21.7215 69.02C35.5115 68.91 45.4516 61.98 47.8116 55.52C50.1716 49.02 45.5216 44.1099 35.6716 42.6899L28.1216 41.5801C24.2316 41.0301 22.7016 39.5204 23.5816 37.1104C24.4316 34.7804 28.2315 32.2502 33.5915 32.1602H42.4715C47.6515 32.1602 52.9916 29.0602 54.3816 25.2402L54.6316 24.5601C54.7216 24.3101 54.5216 24.1104 54.1916 24.1104V24.1001Z" fill="#111111"/>
<path d="M131.562 24.1001H111.012C110.702 24.1001 110.502 24.43 110.652 24.71L112.932 28.9199H112.972C113.972 30.9399 116.532 32.29 120.002 32.29H124.182C129.962 32.29 132.512 34.4104 131.172 38.1104C129.892 41.6504 125.482 43.9302 119.962 43.9302H99.1816C98.8316 43.9302 98.4816 44.1401 98.3816 44.3901L89.6216 68.5303C89.5316 68.7903 89.7316 68.9902 90.0816 68.9902H94.4116C99.7916 68.9902 105.352 65.7603 106.792 61.7803L110.322 52.0503H114.042L117.752 64.9102C118.472 67.3902 121.342 68.9902 125.072 68.9902H133.922C134.142 68.9902 134.372 68.91 134.532 68.77C134.692 68.63 134.772 68.4603 134.722 68.3203L129.152 50.7002L129.612 50.5801C138.372 48.2401 143.912 44.02 146.082 38.04C149.062 29.83 143.092 24.0903 131.562 24.0903V24.1001Z" fill="#111111"/>
</svg>
