<svg width="221" height="91" viewBox="0 0 221 91" fill="none" xmlns="http://www.w3.org/2000/svg">
<path d="M199.422 45.79L218.292 15.59H161.582L168.002 24.04L177.562 37.3L187.762 23.43H200.342L182.722 47.22L220.252 90.53L199.422 45.79Z" fill="white"/>
<path d="M156.432 44.74L137.552 74.93H194.272L187.842 66.49L178.282 53.22L167.982 67.14L155.652 67.13L173.132 43.31L135.592 0L156.432 44.74Z" fill="#A0CC3A"/>
<path d="M81.2715 38.67L73.5115 59.99C72.1115 63.85 66.7015 66.98 61.4715 66.98H57.2615C56.9215 66.98 56.7216 66.78 56.8116 66.53L64.5715 45.21C65.9715 41.35 71.3715 38.22 76.6115 38.22H80.8215C81.1615 38.22 81.3615 38.42 81.2715 38.67ZM104.722 23.43H63.5616C58.3216 23.43 52.9215 26.57 51.5215 30.42L51.0215 31.79C50.9315 32.04 51.1315 32.24 51.4715 32.24H92.6315C97.8715 32.24 103.272 29.1 104.672 25.25L105.172 23.88C105.262 23.63 105.062 23.43 104.722 23.43Z" fill="white"/>
<path d="M52.6916 23.43H33.8316C22.6216 23.54 11.7317 29.41 9.05167 36.79C6.80167 42.96 11.0016 47.63 20.0116 48.97L27.4916 50.05C31.3516 50.62 33.1616 52.32 32.3416 54.58C31.3716 57.23 27.6616 59.05 22.9916 59.25C22.9716 59.25 22.9616 59.25 22.9416 59.25L22.3916 59.22H20.7116H20.7016H11.8516C6.81159 59.22 1.62164 62.24 0.271636 65.95L0.0216361 66.65C-0.0683639 66.89 0.131568 67.08 0.451568 67.08L17.5116 67.1H17.6617H19.2016H19.3117C19.3117 67.1 19.3917 67.12 19.4317 67.12C19.6517 67.12 19.8716 67.1 20.0916 67.09H20.9117C20.9717 67.1 21.0416 67.12 21.1216 67.12C34.5316 67.01 44.2016 60.28 46.4916 53.99C48.7916 47.67 44.2617 42.89 34.6817 41.51L27.3416 40.43C23.5616 39.89 22.0717 38.43 22.9317 36.08C23.7617 33.81 27.4517 31.35 32.6617 31.26H41.3017C46.3417 31.26 51.5316 28.24 52.8816 24.53L53.1216 23.87C53.2116 23.63 53.0116 23.44 52.6916 23.44V23.43Z" fill="white"/>
<path d="M127.941 23.44H107.951C107.651 23.44 107.452 23.76 107.602 24.03L109.812 28.13H109.852C110.822 30.09 113.312 31.4 116.682 31.4H120.752C126.382 31.4 128.852 33.46 127.552 37.06C126.302 40.5 122.022 42.72 116.642 42.72H96.4316C96.0916 42.72 95.7416 42.92 95.6516 43.17L87.1315 66.65C87.0415 66.9 87.2415 67.1 87.5815 67.1H91.7916C97.0316 67.1 102.431 63.95 103.831 60.09L107.262 50.62H110.882L114.492 63.13C115.192 65.54 117.982 67.1 121.612 67.1H130.222C130.431 67.1 130.661 67.02 130.821 66.89C130.981 66.76 131.052 66.59 131.012 66.45L125.591 49.32L126.032 49.2C134.552 46.93 139.942 42.83 142.052 37C144.952 29.01 139.142 23.44 127.932 23.44H127.941Z" fill="white"/>
</svg>
