<svg width="98" height="99" viewBox="0 0 98 99" fill="none" xmlns="http://www.w3.org/2000/svg">
<path d="M97.9308 50.1698C97.8808 53.3498 97.4708 56.49 96.8008 59.6C95.6708 64.84 93.7008 69.76 90.9308 74.35C89.1908 77.23 87.1507 79.89 84.8707 82.37C82.1107 85.38 78.9908 87.9498 75.6008 90.1898C72.9508 91.9398 70.1308 93.4099 67.1808 94.5699C62.6308 96.3699 57.9107 97.52 53.0207 97.86C49.5207 98.1 46.0308 98.08 42.5407 97.62C40.4107 97.34 38.2908 96.9598 36.2308 96.4098C33.9708 95.8098 31.7408 95.0399 29.5908 94.0799C26.9008 92.8799 24.3107 91.53 21.8707 89.87C20.0407 88.62 18.2708 87.2899 16.6008 85.8299C13.1908 82.8499 10.2808 79.4298 7.82078 75.6398C5.18078 71.5698 3.1807 67.1999 1.8707 62.5199C0.830703 58.7999 0.200747 55.0298 0.0407474 51.1598C-0.119253 47.1098 0.190821 43.11 0.990821 39.13C1.92082 34.47 3.53082 30.07 5.74082 25.88C7.11082 23.28 8.70076 20.7999 10.5508 18.5299C12.8208 15.7499 15.2608 13.1298 18.1108 10.9098C20.2808 9.20978 22.5107 7.60987 24.9007 6.25987C27.1107 5.01987 29.4108 3.93991 31.8008 3.04991C35.3608 1.72991 39.0207 0.839953 42.7707 0.339953C43.9507 0.179953 45.1308 0.0399628 46.3308 0.0999628C46.3308 0.159963 46.3308 0.219894 46.3308 0.279894C46.2208 0.309894 46.1107 0.359982 46.0007 0.369982C44.2207 0.569982 42.4307 0.679855 40.6607 0.989855C37.7007 1.49986 34.7908 2.26995 31.9808 3.33995C27.9908 4.84995 24.2307 6.78991 20.7807 9.29991C18.1407 11.2099 15.7008 13.3498 13.4608 15.7298C11.4208 17.8898 9.59071 20.2098 8.00071 22.6998C5.62071 26.4198 3.7708 30.4198 2.4708 34.6498C1.4408 37.9998 0.740708 41.4198 0.500708 44.9198C0.340708 47.1998 0.250762 49.4799 0.430762 51.7699C0.580762 53.7199 0.710777 55.67 1.07078 57.6C1.95078 62.3 3.4007 66.7999 5.6207 71.0399C6.6807 73.0699 7.81071 75.0398 9.13071 76.9098C11.5707 80.3798 14.4007 83.4898 17.6407 86.2298C21.5407 89.5198 25.8508 92.1299 30.5508 94.0799C35.9008 96.2999 41.4907 97.4598 47.2607 97.6798C50.3207 97.7998 53.3607 97.58 56.3907 97.13C61.7407 96.34 66.8008 94.65 71.5808 92.13C77.3308 89.1 82.3208 85.0799 86.4508 80.0499C89.6608 76.1399 92.2107 71.83 94.1207 67.12C96.4407 61.36 97.5407 55.3798 97.6507 49.1898C97.7007 46.1798 97.3408 43.1998 96.8408 40.2298C96.2308 36.5998 95.1108 33.1299 93.6908 29.7499C92.3408 26.5199 90.5807 23.49 88.5407 20.63C87.0007 18.46 85.2407 16.4799 83.3807 14.5699C80.8407 11.9599 77.9908 9.75991 74.9508 7.79991C72.9208 6.48991 70.7708 5.37978 68.5407 4.40978C66.2708 3.40978 63.9508 2.56979 61.5708 1.91979C58.1908 0.999787 54.7308 0.529924 51.2308 0.309924C51.2308 0.229924 51.2308 0.139924 51.2308 0.0599238C52.4708 -0.0400762 53.6907 0.149904 54.9107 0.289904C58.4207 0.689904 61.8408 1.51979 65.1808 2.66979C68.2708 3.72979 71.2207 5.11993 74.0207 6.81993C78.8707 9.74993 83.1407 13.3599 86.7507 17.7399C88.1007 19.3799 89.3408 21.0998 90.4708 22.8998C92.8208 26.5998 94.5807 30.5699 95.8807 34.7499C96.7507 37.5599 97.2907 40.45 97.6307 43.37C97.9007 45.62 97.9608 47.8898 97.9308 50.1598V50.1698Z" fill="#424242"/>
<path d="M51.2308 0.0798221C51.2308 0.159822 51.2308 0.249822 51.2308 0.329822C49.6008 0.279822 47.9608 0.189773 46.3308 0.279773C46.3308 0.219773 46.3308 0.159842 46.3308 0.0998416C47.9608 0.0398416 49.6008 -0.0801779 51.2308 0.0798221Z" fill="#424242"/>
<path d="M77.9308 77.5698C77.8708 77.5698 77.8107 77.5698 77.7507 77.5798C77.8107 77.5798 77.8708 77.5798 77.9308 77.5698C78.0308 77.5698 78.1408 77.5699 78.2408 77.5899C78.1408 77.5699 78.0308 77.5598 77.9308 77.5698Z" fill="#424242"/>
<path d="M49.2208 11.4997C28.1808 11.3997 11.7207 28.2696 11.5407 48.6496C11.3607 69.5096 28.2107 86.6297 49.2807 86.4497C69.8007 86.2797 86.3107 69.6898 86.4207 49.0798C86.4607 28.2198 69.7408 11.5997 49.2208 11.4997ZM48.9708 85.9296C28.6608 85.9296 11.7508 69.4097 11.9908 48.4797C12.2208 28.3297 28.4408 12.0196 48.8108 11.9096C69.5508 11.7996 86.2507 28.6298 86.0107 49.3698C85.7807 69.5398 69.3708 85.9296 48.9808 85.9296H48.9708Z" fill="#424242"/>
<path d="M53.4708 3.03988C53.0908 3.03988 53.1507 3.30986 53.1207 3.51986C52.9607 4.76986 52.8108 6.01986 52.6508 7.26986C52.5608 7.95986 52.3607 8.04982 51.5007 7.97982C50.8607 7.92982 51.1508 7.46979 51.1608 7.19979C51.2108 5.98979 51.3007 4.7799 51.3707 3.5599C51.3907 3.2799 51.5207 2.93976 51.0007 2.91976C50.5207 2.89976 50.4208 3.10988 50.4108 3.53988C50.3708 4.81988 50.2408 6.09973 50.2108 7.38973C50.1908 8.32973 49.5108 7.86981 49.1008 7.96981C48.5608 8.09981 48.7008 7.65974 48.6908 7.39974C48.6608 6.64974 48.6508 5.90975 48.6608 5.15975C48.6608 4.82975 48.6208 4.62975 48.2108 4.65975C47.8308 4.67975 47.6608 4.7998 47.7008 5.2098C47.7408 5.5998 47.7008 5.99974 47.7008 6.39974C47.7608 8.07974 47.7608 8.06997 46.1108 8.12997C45.7308 8.14997 45.5608 8.07976 45.5508 7.66976C45.5308 7.29976 45.4507 6.9299 45.3807 6.5599C45.2207 5.6799 44.6309 5.16997 43.7409 5.12997C42.9509 5.08997 42.2208 5.31974 41.5208 5.64974C41.3608 5.72974 41.0507 5.78993 41.2607 6.08993C41.4008 6.28993 41.5108 6.57977 41.8508 6.42977C41.9808 6.37977 42.1008 6.30985 42.2308 6.25985C43.7208 5.64985 44.2508 5.93984 44.5308 7.49984C44.5508 7.61984 44.5808 7.72993 44.6108 7.83993C44.6908 8.17993 44.5808 8.34974 44.2108 8.39974C43.2808 8.51974 42.3708 8.6999 41.4408 8.8099C40.3008 8.9399 40.3008 8.91993 39.9008 7.83993C39.4308 6.56993 38.2808 6.08993 36.9508 6.58993C35.8008 7.01993 35.3808 8.02986 35.8308 9.26986C35.8808 9.41986 35.9109 9.59982 35.9909 9.72982C36.2909 10.2098 36.1108 10.4099 35.6108 10.5699C33.6008 11.2199 33.4308 11.1598 32.6808 9.2098C32.5308 8.8198 32.3707 8.79975 32.0107 8.90975C31.5807 9.03975 31.6608 9.24988 31.7708 9.53988C31.8608 9.77988 31.9408 10.0198 32.0308 10.2598C32.4808 11.4598 33.5408 12.0198 34.7708 11.6798C35.2708 11.5398 35.7509 11.3698 36.2409 11.2198C37.9609 10.7198 39.6208 9.97978 41.3908 9.68978C44.8908 9.10978 48.4108 8.65973 51.9808 8.88973C52.8708 8.94973 53.5008 8.34982 53.6108 7.47982C53.7708 6.20982 53.8808 4.92975 54.0808 3.65975C54.1708 3.06975 53.8808 3.0699 53.4708 3.0599V3.03988ZM37.3508 9.96981C37.1008 9.96981 36.5508 8.85993 36.5508 8.33993C36.5508 7.73993 37.1408 7.18978 37.8008 7.18978C38.5408 7.18978 39.3608 8.20996 39.3608 9.11996C39.3608 9.32996 37.8608 9.96981 37.3508 9.96981Z" fill="#424242"/>
<path d="M87.2009 23.4096C86.9109 22.5696 86.0008 22.0897 85.0008 22.1997C84.2508 22.2797 83.6608 22.7098 83.0208 23.0398C82.8708 23.1198 82.6908 23.3498 82.5708 23.0798C82.3308 22.5598 81.8108 22.2397 81.5508 21.7197C83.3408 21.4097 84.3008 20.7897 84.3108 19.9597C84.3108 19.1697 83.3708 18.0298 82.5408 17.8098C81.5008 17.5398 80.5809 18.2198 79.8409 19.8298C79.4609 19.4598 79.1708 19.0298 78.7608 18.7998C78.3108 18.5498 78.4809 18.4397 78.7309 18.2197C79.3909 17.6597 80.0508 17.1098 80.6908 16.5298C80.8508 16.3798 81.2708 16.2996 80.9408 15.8996C80.6208 15.5096 80.3809 15.6496 80.0809 15.9096C79.3809 16.5296 78.6509 17.0997 77.9809 17.7397C77.3209 18.3797 76.6308 18.7998 75.6708 18.5298C75.2808 18.4198 75.2108 18.7898 75.1308 19.0298C75.0208 19.3798 75.3408 19.3298 75.5108 19.3698C76.0608 19.4898 76.6308 19.5498 77.1608 19.3198C77.5208 19.1698 77.7708 19.2497 78.0408 19.4897C79.4808 20.7797 80.7308 22.2498 81.8908 23.7998C82.0208 23.9798 82.0908 24.1596 82.0408 24.3896C81.7308 25.9496 83.5308 26.9398 85.0208 26.3098C85.4508 26.1298 85.8608 25.8996 86.2608 25.6596C87.1508 25.1396 87.5109 24.2697 87.2209 23.4197L87.2009 23.4096ZM80.7908 20.0398C80.8608 19.7598 80.9808 19.5098 81.1408 19.2898C81.3908 18.9398 81.6708 18.5796 82.1408 18.6596C82.6808 18.7596 83.0309 19.1496 83.2209 19.6496C83.3509 19.9896 83.2408 20.2797 82.8908 20.4697C82.5508 20.6597 81.9608 20.8198 81.4208 20.8198C80.6508 20.8198 80.6108 20.7598 80.7908 20.0398ZM84.8208 25.4497C84.3408 25.7197 83.7908 25.7699 83.3108 25.3799C82.8308 24.9899 82.8209 24.2498 83.3509 23.8698C83.8009 23.5498 84.3008 23.2598 84.8108 23.0798C85.5808 22.8098 86.3309 23.2996 86.3409 24.1496C86.2709 24.9396 85.4308 25.0997 84.8208 25.4497Z" fill="#424242"/>
<path d="M23.7907 15.8298C22.8807 14.8298 21.9307 13.8599 21.0407 12.8499C20.7207 12.4899 20.5108 12.6199 20.2308 12.8499C19.8608 13.1399 20.2008 13.2897 20.3508 13.4497C21.2108 14.3997 22.0807 15.3498 22.9507 16.2798C23.1507 16.4998 23.3707 16.7098 23.1607 16.9998C22.7607 17.5498 22.1707 17.5997 21.6407 17.1497C21.5107 17.0397 21.3907 16.9398 21.2707 16.8298C20.5107 16.1198 19.6207 15.9099 18.6907 16.3699C17.6907 16.8599 17.0407 17.6498 17.0607 18.8499C17.0607 19.0599 17.0607 19.2797 17.0007 19.4697C16.7707 20.1497 17.0407 20.6298 17.5507 21.0698C17.7207 21.2098 18.2108 21.3397 17.8508 21.6597C17.5608 21.9097 17.4108 22.6199 16.7208 22.1199C16.1308 21.6899 15.5007 21.2297 14.7007 21.2397C13.7907 21.2897 13.1407 21.7997 12.5607 22.4297C12.4407 22.5597 12.0807 22.7297 12.4107 22.9797C12.6507 23.1697 12.8708 23.3698 13.2408 23.0198C14.4808 21.8398 14.9207 21.8596 16.3207 22.8896C16.6007 23.0996 16.5307 23.2397 16.3707 23.4397C16.0407 23.8397 15.7207 24.2399 15.3907 24.6299C15.1907 24.8599 15.2108 24.9797 15.4708 25.1697C16.0708 25.6197 16.2207 24.9997 16.4307 24.7397C18.4907 22.0897 21.0208 19.9298 23.6108 17.8398C24.3108 17.2798 24.4107 16.4998 23.8107 15.8398L23.7907 15.8298ZM18.7607 20.7498C18.3907 20.6798 17.9807 20.3897 17.9007 19.9497C17.8407 19.6597 18.0307 19.4197 18.3807 19.3997C18.6807 19.3797 19.4708 19.8797 19.4908 20.1697C19.3308 20.4297 19.0507 20.8098 18.7707 20.7598L18.7607 20.7498ZM21.3408 18.5398C21.2008 18.6598 21.0407 18.7697 20.9307 18.9097C20.5307 19.3897 20.1407 19.5697 19.6507 18.9897C19.3507 18.6297 18.9107 18.5298 18.4407 18.5598C18.0407 18.5898 18.0007 18.4099 18.1507 18.0999C18.4407 17.4999 18.9008 17.1098 19.5808 17.0398C20.4308 17.0798 20.8507 17.7697 21.4307 18.2097C21.5607 18.3097 21.4608 18.4598 21.3408 18.5598V18.5398Z" fill="#424242"/>
<path d="M77.5307 13.0497C76.9907 12.6397 76.3608 12.4896 75.7008 12.4196C75.5408 12.3996 75.1908 12.4496 75.3508 12.1896C75.5908 11.8196 75.5007 11.6997 75.1607 11.5197C74.7307 11.2897 74.6308 11.6598 74.4508 11.8598C73.6908 12.7398 72.9508 13.6397 72.1808 14.5097C71.6008 15.1697 70.6508 15.1397 69.9408 14.4897C69.3408 13.9397 69.3607 13.4496 70.0207 12.6896C70.5507 12.0696 71.0808 11.4498 71.5908 10.8198C71.7108 10.6698 72.0207 10.4897 71.6507 10.2697C71.4007 10.1197 71.1807 9.90973 70.8907 10.2797C70.2507 11.0997 69.5407 11.8796 68.8907 12.6996C68.4407 13.2596 68.4408 13.9798 68.8208 14.5898C69.4708 15.6298 71.0108 16.1598 72.0808 15.5898C72.6208 15.2998 72.9507 15.4096 73.3707 15.6996C73.8107 16.0096 74.2708 16.2798 74.7208 16.5798C75.0408 16.7998 75.3907 16.8896 75.7807 16.8896C76.1907 16.8696 76.5708 16.7396 76.8508 16.4396C77.2508 16.0196 77.6508 15.5898 77.9408 15.0798C78.3808 14.2998 78.2407 13.5997 77.5307 13.0497ZM76.0708 15.9496C75.6608 16.2796 75.2908 15.8696 74.9408 15.6596C74.7208 15.5296 74.5107 15.3897 74.2907 15.2397C73.9707 15.0297 73.3908 14.8897 73.4408 14.5397C73.5008 14.0997 73.9308 13.7096 74.3208 13.4196C74.8908 12.9896 76.5207 13.2197 77.0207 13.7597C77.1607 13.9197 77.2407 14.1096 77.2507 14.4096C77.0707 15.0196 76.6008 15.5196 76.0808 15.9396L76.0708 15.9496Z" fill="#424242"/>
<path d="M62.8807 6.66969C62.7707 6.49969 62.6308 6.32973 62.4708 6.20973C61.2608 5.30973 59.4608 5.84978 58.9408 7.25978C58.8408 7.51978 58.7207 7.77982 58.6707 8.04982C58.5107 8.97982 57.8307 8.45971 57.4207 8.43971C56.9307 8.40971 57.0507 7.94988 57.1307 7.60988C57.4107 6.37988 57.6908 5.1597 57.9808 3.9297C58.0308 3.6997 58.1407 3.4397 57.7507 3.4297C57.4807 3.4297 57.1607 3.18972 57.0507 3.69972C56.7707 5.04972 56.4207 6.37974 56.1507 7.71974C55.9707 8.60974 56.3807 9.14984 57.2707 9.31984C57.9107 9.43984 58.5508 9.5497 59.1908 9.6797C59.8708 9.8197 60.5508 9.97988 61.1108 10.1099C61.8508 10.0899 62.3807 9.84982 62.6207 9.29982C62.9807 8.45982 63.5107 7.60968 62.8907 6.65968L62.8807 6.66969ZM61.7308 8.96974C61.6108 9.19974 61.3907 9.27976 61.1307 9.23976C60.9507 9.20976 60.7208 9.21989 60.5908 9.11989C60.2608 8.85989 59.3607 9.36974 59.5407 8.46974C59.8407 6.96974 60.4807 6.42972 61.4307 6.69972C61.8807 6.82972 62.1408 7.11966 62.1908 7.63966C62.0808 8.06966 61.9608 8.53974 61.7208 8.96974H61.7308Z" fill="#424242"/>
<path d="M39.6307 88.2598C39.3007 86.8498 37.8008 86.0097 36.4308 86.4797C35.6808 86.7397 35.1807 87.2797 34.8807 87.9797C34.3507 89.2197 34.6707 90.3098 35.6407 91.2598C35.2307 91.4198 34.7308 91.2798 34.7408 91.7998C34.7608 92.2998 35.1808 92.2497 35.5308 92.2397C35.8808 92.2297 36.0708 92.4497 36.2908 92.6697C36.9408 93.3197 37.7208 93.5098 38.6008 93.2998C38.9208 93.2298 39.1008 93.0297 39.0208 92.6997C38.9508 92.4097 38.7108 92.3697 38.4608 92.4597C37.6408 92.7797 37.1708 92.2997 36.6808 91.7297C38.9508 91.3897 40.0607 90.0598 39.6307 88.2498V88.2598ZM37.0508 90.7498C36.1908 90.7498 35.5908 90.0699 35.6108 89.1299C35.6408 88.0799 36.4008 87.2398 37.2808 87.2598C38.1208 87.2898 38.7508 87.9997 38.7308 88.8997C38.7108 89.9497 37.9608 90.7598 37.0408 90.7498H37.0508Z" fill="#424242"/>
<path d="M30.5608 13.0097C30.2408 12.5197 29.9108 12.0397 29.5908 11.5597C28.9208 10.5797 27.7107 10.2496 26.6307 10.7296C25.5007 11.2296 25.1108 12.5598 25.7908 13.5998C26.7508 15.0698 27.3608 15.2098 28.9008 14.3498C29.2008 14.1798 29.5108 14.0297 29.9008 13.8197C29.9608 14.3597 29.8008 14.6896 29.4308 14.9196C29.1108 15.1196 28.7908 15.2996 28.4708 15.4896C28.2808 15.5996 28.0008 15.6496 28.2208 15.9896C28.3908 16.2396 28.5107 16.4596 28.8707 16.2396C29.3007 15.9696 29.7908 15.7896 30.1808 15.4496C30.9508 14.7896 31.1008 13.8497 30.5508 13.0097H30.5608ZM29.1508 13.2396C28.7208 13.4696 28.3008 13.7196 27.8608 13.9296C27.5608 14.0796 27.2508 14.0497 27.0508 13.7497C26.7808 13.3497 26.4207 12.9996 26.3807 12.4596C26.3807 11.9996 26.6208 11.6797 27.0408 11.4997C27.5508 11.2697 28.0608 11.2896 28.4608 11.6996C28.7808 12.0296 29.0208 12.4397 29.2908 12.8097C29.4408 13.0197 29.3307 13.1396 29.1407 13.2396H29.1508Z" fill="#424242"/>
<path d="M80.5107 79.5298C80.3807 79.1998 80.1908 78.8999 79.9608 78.6299C79.9208 78.5899 79.8908 78.5398 79.8508 78.4998C79.8208 78.4698 79.8008 78.4497 79.7708 78.4197C79.7308 78.3797 79.6908 78.3398 79.6508 78.2998C79.4208 78.0898 79.1608 77.9098 78.9008 77.7898C78.8508 77.7598 78.7908 77.7397 78.7408 77.7197C78.6108 77.6697 78.4808 77.6299 78.3508 77.5999C78.3208 77.5999 78.2907 77.5898 78.2607 77.5798C78.1607 77.5598 78.0508 77.5498 77.9508 77.5598C77.8908 77.5598 77.8308 77.5598 77.7708 77.5698C77.7108 77.5698 77.6508 77.5799 77.6008 77.5899C77.2608 77.6499 76.9408 77.7898 76.6608 78.0298C76.2908 78.3498 75.9308 78.6798 75.5408 78.9898C75.0508 79.3698 74.9908 79.7097 75.4508 80.1997C76.2408 81.0297 76.9608 81.9098 77.7208 82.7698C78.2608 83.3898 78.3808 83.3899 79.0208 82.8399C79.2808 82.6099 79.5508 82.3897 79.8108 82.1597C80.7008 81.3597 80.9308 80.5298 80.5308 79.5398L80.5107 79.5298ZM79.1207 81.5999C78.4307 82.1899 78.4407 82.1998 77.8707 81.5498C77.3907 81.0098 76.9308 80.4597 76.4408 79.9397C76.2108 79.6997 76.1908 79.5398 76.4808 79.3298C76.5308 79.2898 76.5908 79.2497 76.6408 79.1997C76.6608 79.1797 76.6808 79.1697 76.7008 79.1497C76.7708 79.0897 76.8408 79.0197 76.9208 78.9497C76.9408 78.9297 76.9608 78.9097 76.9908 78.8897C77.0008 78.8797 77.0208 78.8599 77.0308 78.8499C77.0708 78.8199 77.1008 78.7898 77.1408 78.7598C77.1708 78.7398 77.2008 78.7197 77.2308 78.6997C77.2408 78.6997 77.2608 78.6797 77.2708 78.6697C77.2908 78.6697 77.3008 78.6497 77.3208 78.6397C77.3508 78.6197 77.3808 78.5999 77.4208 78.5899C77.4408 78.5799 77.4708 78.5698 77.4908 78.5598C77.5008 78.5598 77.5208 78.5498 77.5308 78.5498C77.6408 78.5098 77.7507 78.4998 77.8807 78.4998H77.9108C77.9108 78.4998 77.9608 78.4998 77.9808 78.4998C78.0008 78.4998 78.0308 78.4998 78.0508 78.4998C78.0808 78.4998 78.1007 78.4998 78.1307 78.5098C78.1607 78.5198 78.1808 78.5198 78.2108 78.5298C78.2308 78.5298 78.2508 78.5398 78.2708 78.5498C78.2908 78.5498 78.3108 78.5598 78.3308 78.5698C78.3508 78.5698 78.3708 78.5899 78.3908 78.5999C78.4308 78.6199 78.4808 78.6397 78.5208 78.6597C78.5508 78.6697 78.5708 78.6897 78.6008 78.6997C78.6308 78.7197 78.6708 78.7398 78.7008 78.7598C78.7008 78.7598 78.7208 78.7598 78.7208 78.7798C78.7608 78.7998 78.7908 78.8299 78.8308 78.8599C78.8508 78.8799 78.8708 78.8997 78.9008 78.9097C78.9408 78.9497 78.9908 78.9798 79.0308 79.0198C79.0508 79.0398 79.0708 79.0598 79.0908 79.0798C79.1208 79.1098 79.1608 79.1497 79.1908 79.1797C79.2108 79.2097 79.2407 79.2298 79.2607 79.2598C79.2707 79.2698 79.2808 79.2798 79.2908 79.2998C79.2908 79.3098 79.3108 79.3199 79.3208 79.3399C79.3708 79.3999 79.4208 79.4698 79.4608 79.5398C79.4808 79.5598 79.4907 79.5899 79.5007 79.6099C79.5207 79.6399 79.5408 79.6697 79.5508 79.7097C79.5608 79.7297 79.5708 79.7498 79.5808 79.7698C79.6108 79.8298 79.6408 79.8897 79.6608 79.9497C79.9308 80.6497 79.6407 81.1499 79.1207 81.5999Z" fill="#424242"/>
<path d="M75.4508 85.4998C75.1808 85.7998 74.8508 85.6198 74.5408 85.5098C73.4308 85.1198 72.3108 84.7198 71.0508 84.2698C71.4008 85.0998 71.8508 85.6698 72.2208 86.2998C72.4108 86.6298 72.9008 87.0499 72.4208 87.3799C71.8908 87.7399 71.7408 87.0698 71.5408 86.7698C70.9308 85.8598 70.3708 84.9198 69.7908 83.9898C69.6408 83.7398 69.4008 83.4897 69.6408 83.1697C69.9108 82.7997 70.2308 83.0099 70.5208 83.1099C71.6508 83.5099 72.7908 83.9199 73.9208 84.3299C73.9608 84.2799 74.0008 84.2297 74.0408 84.1797C73.6208 83.4897 73.1908 82.7999 72.7708 82.0999C72.5908 81.8099 72.2808 81.4697 72.7108 81.2097C73.1108 80.9697 73.2708 81.3797 73.4408 81.6497C74.0608 82.6397 74.6808 83.6299 75.2908 84.6199C75.4508 84.8899 75.7408 85.1698 75.4508 85.4998Z" fill="#424242"/>
<path d="M24.8209 80.7999C24.3509 81.3799 23.8608 81.9399 23.3808 82.5099C23.1008 82.8499 22.8108 83.1799 22.5308 83.5299C22.3508 83.7599 22.1609 83.9599 21.8309 83.8399C21.4909 83.7099 21.5308 83.4 21.5308 83.13C21.5508 82.22 21.5908 81.3098 21.6208 80.4098C21.6208 80.0698 21.6208 79.7298 21.6208 79.1698C20.9308 79.9798 20.3809 80.6299 19.8309 81.2899C19.6309 81.5399 19.3909 81.7999 19.0809 81.5499C18.7709 81.2999 18.9808 81.0099 19.1908 80.7599C20.0008 79.7999 20.8108 78.84 21.6208 77.88C21.7908 77.68 21.9608 77.4699 22.2608 77.5699C22.5908 77.6799 22.6009 77.9699 22.6009 78.2599C22.6009 79.5399 22.6009 80.81 22.6009 82.1C22.9909 81.84 23.2309 81.3598 23.5909 80.9898C23.8009 80.7798 23.9608 80.5099 24.1808 80.2999C24.4208 80.0699 24.6108 79.5298 25.0508 79.9198C25.4208 80.2498 25.0208 80.5499 24.8108 80.7999H24.8209Z" fill="#424242"/>
<path d="M87.9008 72.9598C87.4208 74.0198 86.5808 74.5399 85.6908 74.6299C84.2708 74.6299 83.2607 73.9199 82.8807 72.8199C82.5307 71.7799 82.9108 70.4898 83.8108 69.7998C84.0808 69.5898 84.4108 69.3198 84.7208 69.7098C85.0308 70.0998 84.6608 70.2598 84.4108 70.4798C83.7308 71.0698 83.4808 71.8398 83.7808 72.5398C84.0708 73.2098 84.6008 73.6097 85.3408 73.6597C86.0908 73.7197 86.7608 73.2899 87.0908 72.6099C87.2708 72.2399 87.0908 72.0699 86.8208 71.8699C86.5308 71.6599 86.3908 71.7498 86.2108 72.0198C86.0508 72.2698 85.8208 72.5599 85.4708 72.3099C85.1108 72.0499 85.2808 71.7598 85.4808 71.4698C86.2708 70.3298 86.2607 70.3199 87.3907 71.0899C88.2307 71.6599 88.3207 72.0098 87.8907 72.9598H87.9008Z" fill="#424242"/>
<path d="M68.5007 8.69968C68.1807 9.31968 67.8607 9.93977 67.5207 10.5498C67.1607 11.1998 66.6708 11.6598 65.6908 11.6198C65.2008 11.5198 64.5408 11.3697 63.9908 10.9497C63.4708 10.5497 63.4008 9.99967 63.6608 9.43967C64.2308 8.16967 64.8508 6.90962 65.4208 5.63962C65.6208 5.19962 65.8708 5.29965 66.2008 5.41965C66.7008 5.59965 66.3708 5.86979 66.2808 6.06979C65.7708 7.18979 65.2408 8.29965 64.7208 9.41965C64.5608 9.75965 64.3408 10.0998 64.8308 10.3698C65.7408 10.8798 66.2208 10.8998 66.5408 10.3598C66.9508 9.67983 67.3508 8.99977 67.6908 8.28977C67.8908 7.86977 68.1308 7.89978 68.4708 8.04978C68.9508 8.24978 68.6307 8.48969 68.5107 8.70969L68.5007 8.69968Z" fill="#424242"/>
<path d="M11.6508 30.4297C10.9908 30.3197 10.3308 29.9698 9.62077 29.7298C8.80077 29.4598 8.00085 29.1599 7.20085 28.8299C7.00085 28.7499 6.56077 28.8098 6.75077 28.3198C6.90077 27.9398 7.09088 27.8398 7.49088 27.9998C8.75089 28.4998 10.0208 28.9497 11.2908 29.4197C12.0208 29.6897 12.9908 28.9897 12.9508 28.2097C12.9408 27.8997 12.7109 27.7897 12.4609 27.6797C11.7309 27.3597 11.0108 27.0497 10.2908 26.7197C10.1008 26.6397 9.77077 26.5998 10.0008 26.2498C10.1408 26.0398 10.2109 25.6899 10.6109 25.8699C11.5009 26.2799 12.4008 26.6599 13.2808 27.0899C13.5908 27.2399 13.8308 27.5197 13.9108 27.8897C14.1208 28.9297 12.7908 30.4897 11.6408 30.4197L11.6508 30.4297Z" fill="#424242"/>
<path d="M52.4107 92.9497C52.4107 93.2897 52.1807 93.3797 51.9007 93.3897C51.1807 93.4097 50.4508 93.4197 49.7308 93.4397C49.2908 93.4497 49.0808 93.2599 49.0908 92.8099C49.1008 92.1299 49.0908 91.4598 49.0908 90.7798H49.0107C49.0107 90.1698 49.0307 89.5598 49.0107 88.9598C48.9907 88.4898 49.2007 88.2498 49.6607 88.2398C50.3607 88.2298 51.0607 88.2098 51.7607 88.2198C52.0407 88.2198 52.3508 88.2697 52.3408 88.6697C52.3308 89.0597 52.0208 89.0899 51.7408 89.0999C51.3908 89.1199 51.0408 89.0999 50.6908 89.0999C49.9908 89.0999 49.7608 89.4399 49.9708 90.1099C50.0508 90.3699 50.2307 90.3299 50.4107 90.3399C50.8107 90.3399 51.2008 90.3399 51.6008 90.3499C51.8608 90.3499 52.0608 90.4598 52.0708 90.7598C52.0708 91.0398 51.9007 91.1797 51.6307 91.1997C51.3507 91.2097 51.0707 91.2098 50.7907 91.2098C50.0107 91.2098 49.7807 91.5298 50.0007 92.2898C50.0807 92.5798 50.2808 92.5599 50.4908 92.5599C50.9608 92.5599 51.4307 92.5598 51.8907 92.5498C52.1707 92.5498 52.4107 92.6198 52.4207 92.9598L52.4107 92.9497Z" fill="#424242"/>
<path d="M94.7708 53.0799C94.5708 53.3199 94.2909 53.5298 93.9909 53.2498C93.7209 52.9998 93.8708 52.7398 94.0708 52.5098C94.4708 52.0498 94.5808 51.5197 94.4308 50.9397C94.3708 50.6797 94.2108 50.4597 93.9108 50.4397C93.6208 50.4197 93.4208 50.5799 93.3208 50.8499C93.2108 51.1299 93.1008 51.4198 93.0108 51.6998C92.6908 52.7498 92.1608 53.1598 91.2808 53.0298C90.4708 52.9098 90.0708 52.3298 90.0508 51.2598C90.0408 50.6498 90.2208 50.1097 90.6208 49.6497C90.7908 49.4597 91.0408 49.2898 91.3008 49.4998C91.5408 49.6898 91.4908 49.9297 91.3208 50.1797C91.0508 50.5697 90.8608 50.9998 90.9208 51.4898C90.9608 51.8198 91.0808 52.0799 91.4508 52.1299C91.7908 52.1799 91.9808 51.9797 92.0808 51.6897C92.2208 51.3197 92.3108 50.9299 92.4608 50.5599C92.7008 49.9699 93.0408 49.4898 93.7708 49.4898C94.5108 49.4898 95.0109 49.8699 95.2409 50.5599C95.5509 51.4699 95.3708 52.3098 94.7708 53.0498V53.0799Z" fill="#424242"/>
<path d="M58.1608 92.4998C57.4908 93.0598 56.1908 93.1397 55.4408 92.6997C55.1708 92.5397 54.9707 92.3498 55.1307 92.0298C55.2807 91.7298 55.5408 91.7897 55.7908 91.8997C56.3008 92.1197 56.8208 92.1997 57.3508 91.9597C57.6208 91.8397 57.8408 91.6899 57.8308 91.3499C57.8208 90.9599 57.5308 90.8398 57.2308 90.7698C56.9808 90.7098 56.7208 90.7097 56.4708 90.6897C55.3008 90.6297 54.6908 90.1498 54.6608 89.2598C54.6308 88.4298 55.4008 87.7397 56.4508 87.6497C56.5408 87.6497 56.6408 87.6496 56.7308 87.6396C57.0908 87.6396 57.4307 87.7099 57.7507 87.8599C58.0307 87.9899 58.2408 88.1798 58.1108 88.5098C57.9908 88.8198 57.7208 88.7997 57.4608 88.6997C57.0108 88.5297 56.5708 88.4499 56.1008 88.6199C55.7808 88.7299 55.5708 88.9198 55.5908 89.2798C55.6108 89.6198 55.8608 89.7498 56.1608 89.7898C56.6008 89.8398 57.0408 89.8597 57.4808 89.9197C58.0808 89.9997 58.5208 90.2697 58.7008 90.8997C58.8908 91.5697 58.6708 92.0998 58.1708 92.5198L58.1608 92.4998Z" fill="#424242"/>
<path d="M46.4408 88.7698C46.3208 89.6898 46.2508 90.6298 46.0708 91.5398C45.8308 92.7098 44.8807 93.2799 43.6507 93.0799C42.6207 92.9199 42.0008 92.0599 42.0908 90.6199C42.1608 90.0399 42.2607 89.2099 42.3807 88.3799C42.4307 88.0499 42.4808 87.6798 42.9608 87.7698C43.4308 87.8598 43.3407 88.2098 43.2907 88.5398C43.1907 89.2798 43.1007 90.0198 43.0107 90.7598C42.9107 91.5598 43.2608 92.0998 43.9608 92.2198C44.6008 92.3298 45.1607 91.8799 45.2807 91.0999C45.4107 90.2899 45.5008 89.4797 45.6008 88.6697C45.6408 88.3497 45.7607 88.1097 46.1207 88.1597C46.4407 88.2097 46.4808 88.4798 46.4508 88.7598L46.4408 88.7698Z" fill="#424242"/>
<path d="M18.6108 74.1298C18.1608 74.2398 17.7207 74.3998 17.2807 74.5498C16.2807 74.8798 15.2907 75.2098 14.3007 75.5498C14.0807 75.6198 13.8407 75.7297 13.9007 76.0397C13.9507 76.2797 14.1507 76.3498 14.1807 76.3498C14.7307 76.3198 15.1007 75.9296 15.3807 76.1496C15.8807 76.5596 16.3107 77.0598 16.6907 77.5898C16.9207 77.8998 16.5407 78.1797 16.4307 78.4697C16.3307 78.7397 16.2807 78.9896 16.5607 79.1396C16.8507 79.2996 17.0607 79.1098 17.1807 78.8698C17.8607 77.5198 18.5407 76.1698 19.1907 74.7998C19.4107 74.3298 19.1307 74.0098 18.6207 74.1298H18.6108ZM17.6207 75.9997C17.5007 76.2497 17.5007 76.6996 17.1707 76.6896C16.8607 76.6896 16.7107 76.2697 16.5007 76.0297C16.3207 75.8297 16.4007 75.7098 16.6407 75.6298C17.0307 75.4998 17.4207 75.3697 17.8907 75.2097C17.9307 75.5897 17.7307 75.7697 17.6307 75.9897L17.6207 75.9997Z" fill="#424242"/>
<path d="M9.57084 54.9597C8.07084 54.6197 6.55078 54.3298 5.01078 54.0098C4.84078 54.0198 4.61082 54.0098 4.55082 54.2798C4.49082 54.5698 4.66079 54.6998 4.90079 54.7898C5.22079 54.9098 5.70084 54.7897 5.82084 55.1797C6.00084 55.7497 6.1108 56.3597 6.1608 56.9597C6.2008 57.3897 5.71086 57.4397 5.47086 57.6697C5.29086 57.8397 5.13081 58.0298 5.29081 58.2798C5.46081 58.5298 5.71086 58.5499 5.97086 58.3799C7.23086 57.5399 8.50088 56.7098 9.74088 55.8398C10.1509 55.5498 10.0708 55.0697 9.57084 54.9597ZM7.76078 56.1199C7.53078 56.2499 7.31084 56.6297 7.07084 56.4597C6.80084 56.2697 6.86081 55.8298 6.79081 55.4998C6.74081 55.2698 6.91087 55.2298 7.10087 55.2698C7.52087 55.3598 7.95081 55.4598 8.54081 55.5898C8.18081 55.8398 7.98079 55.9999 7.77079 56.1299L7.76078 56.1199Z" fill="#424242"/>
<path d="M69.0808 88.4096C68.0508 87.3996 67.0208 86.3798 65.9908 85.3698C65.8108 85.1998 65.6307 85.0597 65.3707 85.1697C65.1007 85.2797 65.0808 85.5197 65.0808 85.7497C65.0808 86.4697 65.0808 87.1897 65.0808 87.9197H65.1008C65.1008 88.6697 65.1008 89.4096 65.1008 90.1596C65.1008 90.4396 65.1308 90.7197 65.4608 90.7197C65.8308 90.7197 65.8807 90.4399 65.8807 90.1299C65.8807 89.8799 65.8308 89.5196 65.9708 89.3896C66.4608 88.9396 67.1208 88.7998 67.7208 88.5698C68.1108 88.4198 68.2607 88.8498 68.5107 89.0298C68.7407 89.1998 68.9708 89.4399 69.2308 89.1299C69.4608 88.8599 69.3008 88.6096 69.0808 88.3996V88.4096ZM66.3907 88.1797C65.9607 88.3597 65.8607 88.2598 65.8807 87.8398C65.9007 87.4698 65.8807 87.0997 65.8807 86.6697C66.2607 86.7397 66.3908 87.0097 66.5908 87.1897C67.2908 87.8297 67.2707 87.7997 66.3907 88.1797Z" fill="#424242"/>
<path d="M13.1708 65.8499C12.9808 65.8499 12.8009 65.8499 12.6109 65.8499V65.8896C11.3609 65.9796 10.1009 66.0697 8.85086 66.1597C8.53086 66.1797 8.1208 66.1399 8.1608 66.6299C8.2008 67.0599 8.57076 66.9797 8.87076 66.9797C9.14076 66.9797 9.49079 66.8299 9.65079 67.0999C9.97079 67.6399 10.2608 68.2098 10.4608 68.7998C10.5708 69.1298 10.1509 69.3299 9.97086 69.5999C9.82086 69.8199 9.79087 70.0497 9.98087 70.2397C10.1909 70.4497 10.4309 70.3697 10.5909 70.1797C11.5909 69.0097 12.5908 67.8497 13.5608 66.6497C13.8908 66.2397 13.6908 65.8899 13.1608 65.8599L13.1708 65.8499ZM11.2608 68.0898C11.1808 68.0598 11.1408 68.0598 11.1408 68.0498C10.9208 67.7098 10.4808 67.2097 10.6608 66.9797C10.9908 66.5597 11.6408 66.8697 12.2508 66.6697C11.9908 67.3297 11.5308 67.6398 11.2708 68.0898H11.2608Z" fill="#424242"/>
<path d="M91.9508 65.2097C91.8308 65.5097 91.5908 65.5597 91.3208 65.4497C90.0408 64.9597 88.7608 64.4597 87.4708 63.9597C87.1508 63.8297 87.0708 63.5798 87.1908 63.2798C87.4408 62.5998 87.7008 61.9298 87.9608 61.2498C88.0708 60.9698 88.2508 60.7299 88.5908 60.8799C88.9008 61.0099 88.8507 61.2898 88.7707 61.5398C88.6807 61.8298 88.5608 62.1097 88.4508 62.3897C88.1208 63.2597 88.1408 63.2798 88.9908 63.5498C89.2508 63.6298 89.3608 63.5799 89.4508 63.3299C89.5908 62.9299 89.7508 62.5497 89.9208 62.1597C90.0208 61.9497 90.2008 61.8497 90.4408 61.9497C90.6308 62.0297 90.7108 62.1897 90.7008 62.4697C90.5908 62.7497 90.4808 63.1097 90.3208 63.4397C90.1508 63.8097 90.2007 64.0497 90.6207 64.1797C90.9807 64.2897 91.3208 64.4299 91.6708 64.5799C91.9508 64.6999 92.0708 64.9097 91.9508 65.1997V65.2097Z" fill="#424242"/>
<path d="M11.6908 62.7898C11.3808 62.8998 11.2109 62.6997 11.1109 62.4397C10.9509 61.9997 10.8008 61.5598 10.6508 61.1198C10.5908 60.9298 10.5308 60.7598 10.2708 60.8098C9.54077 60.8398 9.31081 61.1898 9.57081 61.8798C9.67081 62.1398 9.77082 62.4097 9.83082 62.6797C9.88082 62.8997 9.8008 63.1097 9.5608 63.1797C9.3308 63.2497 9.13079 63.1597 9.04079 62.9397C8.90079 62.5997 8.74079 62.2496 8.67079 61.8896C8.58079 61.4496 8.36077 61.4398 8.02077 61.5798C7.72077 61.6998 7.41084 61.8096 7.10084 61.9096C6.81084 61.9896 6.48083 62.0797 6.34083 61.6797C6.21083 61.2997 6.45077 61.1297 6.77077 61.0197C8.00077 60.5997 9.23084 60.1697 10.4708 59.7397C10.8508 59.6097 11.1009 59.7198 11.2409 60.0998C11.4809 60.7798 11.7308 61.4596 11.9508 62.1496C12.0308 62.3996 12.0408 62.6798 11.7108 62.7898H11.6908Z" fill="#424242"/>
<path d="M94.2309 58.0098C94.1409 58.3998 93.8608 58.4399 93.5208 58.3599C92.5208 58.1299 91.5108 57.9297 90.5208 57.6597C90.0608 57.5397 89.8708 57.6599 89.8208 58.1099C89.8008 58.2899 89.7408 58.4797 89.6908 58.6497C89.6108 58.9097 89.4308 59.0298 89.1608 58.9698C88.9008 58.9098 88.8608 58.7099 88.8808 58.2999C89.0908 57.4099 89.3409 56.3398 89.6009 55.2698C89.6709 54.9998 89.8708 54.8898 90.1308 54.9498C90.3808 55.0098 90.4208 55.2198 90.4208 55.4398C90.4208 55.4598 90.4208 55.4898 90.4208 55.5098C90.3908 55.8498 90.0808 56.2398 90.3108 56.5098C90.5808 56.8298 91.0809 56.7799 91.4909 56.8699C92.2409 57.0499 92.9909 57.2197 93.7409 57.3897C94.0709 57.4597 94.3409 57.5898 94.2409 57.9898L94.2309 58.0098Z" fill="#424242"/>
<path d="M30.4107 83.8498C30.2207 84.1798 29.9507 84.0496 29.6807 83.9196C28.7807 83.4696 28.7807 83.4698 28.2807 84.3298C27.8507 85.0498 27.4208 85.7697 26.9908 86.4897C26.8708 86.6897 26.7507 86.8996 26.5607 86.9096C26.0307 86.9296 25.8607 86.5198 26.1307 86.0498C26.5707 85.2798 27.0307 84.5297 27.5007 83.7697C27.9907 82.9697 27.9907 82.9797 27.2507 82.4597C27.0107 82.2897 26.6607 82.1297 26.8807 81.7597C27.1207 81.3497 27.4408 81.5697 27.7208 81.7397C28.5208 82.2197 29.3108 82.7096 30.1108 83.1896C30.3708 83.3496 30.5907 83.5398 30.4107 83.8598V83.8498Z" fill="#424242"/>
<path d="M9.38076 51.7598C9.19076 52.0498 8.93083 51.9399 8.70083 51.8199C8.58083 51.7599 8.46085 51.6699 8.35085 51.5899C7.28085 50.8699 6.22082 50.1598 4.82082 50.4698C4.56082 50.5298 4.27076 50.4399 4.25076 50.1099C4.23076 49.7599 4.48079 49.5699 4.79079 49.6199C6.30079 49.8599 7.30079 49.0099 8.28079 48.0899C8.41079 47.9699 8.57076 47.8399 8.75076 47.7899C9.09076 47.6899 9.27085 47.8998 9.35085 48.1998C9.33085 48.4498 9.16087 48.5698 8.99087 48.7098C8.59087 49.0298 8.2008 49.3598 7.8008 49.6898C7.5308 49.9098 7.53086 50.0698 7.86086 50.2498C8.31086 50.4998 8.7408 50.7799 9.1708 51.0599C9.4408 51.2299 9.59077 51.4598 9.39077 51.7598H9.38076Z" fill="#424242"/>
<path d="M26.1508 15.7998C26.0908 16.0798 25.8509 16.1197 25.7009 16.2497C25.5509 16.3797 25.3908 16.3296 25.2708 16.1796C24.1308 14.7996 22.9909 13.4097 21.8509 12.0297C21.6009 11.7197 21.8908 11.6397 22.0508 11.4997C22.2808 11.3097 22.4508 11.2598 22.6808 11.5498C23.4108 12.4798 24.1808 13.3898 24.9408 14.2998C25.2708 14.6998 25.6008 15.0897 25.9208 15.4797C26.0108 15.5897 26.0808 15.6997 26.1508 15.7897V15.7998Z" fill="#424242"/>
<path d="M15.3308 26.2499C15.1408 26.4199 15.1508 26.9398 14.6008 26.6498C12.9708 25.7998 11.3308 24.9698 9.69076 24.1398C9.48076 24.0298 9.31081 23.9198 9.49081 23.6698C9.64081 23.4698 9.72069 23.15 10.1207 23.36C11.7707 24.22 13.4308 25.0598 15.0908 25.8998C15.2108 25.9598 15.3508 26.0199 15.3208 26.2499H15.3308Z" fill="#424242"/>
<path d="M90.2808 68.6798C90.2208 69.0298 89.9708 69.2099 89.6408 69.0399C88.3708 68.4099 87.1208 67.7399 85.8708 67.0799C85.6308 66.9499 85.5609 66.7198 85.7009 66.4798C85.8509 66.2198 86.0609 66.1499 86.3509 66.2999C87.5409 66.9299 88.7408 67.5397 89.9408 68.1597C90.1308 68.2597 90.2908 68.3998 90.2908 68.6798H90.2808Z" fill="#424242"/>
<path d="M33.3409 85.1497C33.3009 85.2697 33.2709 85.3998 33.2109 85.5298C32.6909 86.6698 32.1708 87.8097 31.6508 88.9497C31.5108 89.2497 31.3409 89.5099 30.9709 89.3399C30.6009 89.1699 30.6708 88.8598 30.8008 88.5598C31.3408 87.3698 31.8708 86.1898 32.4108 85.0098C32.5208 84.7698 32.6808 84.5697 33.0008 84.6597C33.2408 84.7297 33.3308 84.8997 33.3308 85.1497H33.3409Z" fill="#424242"/>
<path d="M37.1707 5.36992C37.1707 5.69992 36.9008 5.75983 36.5908 5.77983C36.3608 5.74983 36.2008 5.57987 36.2308 5.31987C36.2608 5.05987 36.4708 4.92974 36.7308 4.93974C37.0008 4.93974 37.1807 5.08992 37.1707 5.36992Z" fill="#424242"/>
<path d="M15.3108 29.6198C15.2408 29.8998 15.0607 30.0497 14.7607 30.0197C14.5407 29.9997 14.3308 29.9296 14.3408 29.6596C14.3608 29.3796 14.5308 29.1796 14.8408 29.1996C15.1008 29.1996 15.2708 29.3398 15.3108 29.6198Z" fill="#424242"/>
<path d="M66.1207 12.9897C66.0507 13.2497 65.9008 13.4397 65.6008 13.4397C65.3308 13.4397 65.1407 13.2898 65.1407 13.0198C65.1407 12.7098 65.3507 12.5598 65.6407 12.5598C65.8907 12.5598 66.0807 12.6897 66.1207 12.9897Z" fill="#424242"/>
<path d="M15.9508 28.5198C15.9508 28.5198 15.9508 28.5598 15.9508 28.5798C15.9508 28.6198 15.9308 28.6497 15.9208 28.6797C15.9108 28.7097 15.8907 28.7398 15.8807 28.7598C15.8807 28.7698 15.8608 28.7898 15.8508 28.7998C15.8508 28.7998 15.8408 28.8198 15.8308 28.8198C15.8208 28.8298 15.8008 28.8399 15.7908 28.8499C15.7808 28.8499 15.7607 28.8699 15.7507 28.8799C15.7407 28.8799 15.7208 28.8897 15.7108 28.8997C15.7108 28.8997 15.6908 28.8997 15.6808 28.8997C15.6708 28.8997 15.6507 28.8997 15.6407 28.9097C15.6407 28.9097 15.6307 28.9097 15.6207 28.9097C15.6107 28.9097 15.5908 28.9097 15.5808 28.9097C15.5608 28.9097 15.5508 28.9097 15.5308 28.9097C15.5308 28.9097 15.5107 28.9097 15.5007 28.9097C15.4807 28.9097 15.4608 28.9097 15.4408 28.9097C15.2408 28.9097 15.0408 28.7998 15.0408 28.5298C15.0408 28.1998 15.2408 28.0898 15.5308 28.0798C15.5608 28.0798 15.5907 28.0798 15.6207 28.0798C15.6307 28.0798 15.6508 28.0798 15.6608 28.0798C15.6808 28.0798 15.6908 28.0798 15.7008 28.0798C15.7208 28.0798 15.7308 28.0798 15.7408 28.0898C15.7908 28.1098 15.8407 28.1397 15.8707 28.1897C15.8907 28.2097 15.9008 28.2298 15.9108 28.2498C15.9308 28.2898 15.9408 28.3299 15.9508 28.3699C15.9508 28.3899 15.9508 28.3997 15.9508 28.4197C15.9508 28.4397 15.9508 28.4497 15.9508 28.4697V28.5198Z" fill="#424242"/>
<path d="M62.5307 4.69971C62.5307 4.97971 62.3107 5.09986 62.0607 5.10986C61.8107 5.10986 61.5808 4.98972 61.5908 4.70972C61.5908 4.41972 61.8308 4.27977 62.0808 4.25977C62.3908 4.25977 62.5407 4.43971 62.5307 4.69971Z" fill="#424242"/>
<path d="M47.2508 3.48963C47.2208 3.79963 47.0209 3.91957 46.7409 3.91957C46.5209 3.91957 46.3208 3.83971 46.3108 3.56971C46.2908 3.23971 46.5108 3.10974 46.7808 3.09974C47.0208 3.08974 47.2308 3.19963 47.2608 3.48963H47.2508Z" fill="#424242"/>
<path d="M64.8608 12.4797C64.8708 12.8097 64.6008 12.8797 64.3508 12.9397C64.1208 12.9097 63.9208 12.8198 63.9208 12.5598C63.9208 12.2398 64.1608 12.1199 64.4308 12.1099C64.6608 12.1099 64.8508 12.2497 64.8608 12.4797Z" fill="#424242"/>
<path d="M48.6407 3.37982C48.5907 3.62982 48.4708 3.8298 48.2008 3.8598C47.9408 3.8898 47.7208 3.7797 47.6908 3.4997C47.6608 3.2297 47.8408 3.06974 48.1108 3.03974C48.3808 2.99974 48.5507 3.13982 48.6407 3.37982Z" fill="#424242"/>
<path d="M78.2507 11.5999C78.2507 11.9199 78.0308 12.0298 77.7408 12.0398C77.4808 12.0398 77.3308 11.9197 77.3308 11.6697C77.3308 11.3597 77.5508 11.2197 77.8308 11.2297C78.0508 11.2297 78.2507 11.3499 78.2507 11.5999Z" fill="#424242"/>
<path d="M77.8608 78.4897C77.8608 78.4897 77.9208 78.4897 77.9608 78.4897C77.9408 78.4897 77.9107 78.4897 77.8907 78.4897H77.8608C77.7308 78.4897 77.6207 78.5098 77.5107 78.5398C77.6207 78.4998 77.7308 78.4897 77.8608 78.4897Z" fill="#424242"/>
<path d="M65.8907 86.6697C66.2707 86.7397 66.4008 87.0097 66.6008 87.1897C67.3008 87.8297 67.2807 87.7997 66.4007 88.1797C65.9707 88.3597 65.8707 88.2598 65.8907 87.8398C65.9107 87.4698 65.8907 87.0997 65.8907 86.6697Z" fill="#424242"/>
<path d="M63.2208 40.0097C63.1808 41.2697 62.6109 42.4398 62.1109 43.5898C61.3609 45.3298 60.6908 47.1096 59.5508 48.6496C58.4308 50.1696 56.9908 51.2296 55.2208 51.8996C53.2408 52.6596 51.1908 52.5397 49.1508 52.5397C48.1408 52.5397 47.1408 52.5197 46.1408 52.5397C45.5408 52.5597 45.3808 52.3597 45.6008 51.7997C46.3908 49.7497 47.1508 47.6996 47.9308 45.6496C49.3108 42.0196 50.7308 38.4096 51.8808 34.6996C52.6008 32.4096 53.1108 30.0696 53.0508 27.6396C52.9808 24.9796 52.0408 22.5898 50.7208 20.3398C50.3208 19.6598 49.8408 19.0298 49.4008 18.3798C49.2108 18.0898 49.1007 17.8397 49.3707 17.4997C50.3507 16.2597 51.3209 15.0097 52.2409 13.7297C52.6509 13.1597 52.9208 13.3497 53.1908 13.7697C54.3908 15.6297 55.4608 17.5597 56.0108 19.7397C56.7408 22.6497 56.4508 25.5098 55.7708 28.3798C55.0908 31.2198 53.9009 33.8796 52.9909 36.6396C52.1009 39.3296 51.2108 42.0197 50.3208 44.7097C50.1408 45.2597 49.9209 45.7998 49.7409 46.3598C49.6109 46.7598 49.7208 46.9797 50.2008 46.9697C52.1408 46.9497 54.0808 46.9696 56.0208 46.9296C57.0708 46.9096 57.9408 46.4097 58.6908 45.7097C58.9308 45.4797 59.1708 45.2298 59.0008 44.8598C58.8108 44.4698 58.4408 44.4797 58.0908 44.5297C56.8808 44.6797 55.6508 44.7497 54.5208 44.2197C53.1508 43.5797 52.6208 42.1396 52.9608 40.3996C53.5208 37.4096 55.3308 35.3998 57.9708 34.1098C58.7808 33.7098 60.0209 33.6198 60.9909 34.6098C62.4609 36.1098 63.2808 37.8997 63.2208 39.9997V40.0097Z" fill="#424242"/>
<path d="M60.9408 60.3798C57.2208 60.3498 53.5108 60.3698 49.7908 60.3698C46.0708 60.3698 42.3608 60.3498 38.6408 60.3698C38.0008 60.3698 37.9508 60.1996 38.1608 59.6596C39.4908 56.3396 40.8108 53.0097 42.1308 49.6897C43.5508 46.1097 44.9309 42.5096 46.3509 38.9296C47.8009 35.2596 47.7908 31.6197 46.5608 27.9397C46.1608 26.7497 45.5009 25.6597 44.5909 24.7497C44.3509 24.5097 44.2209 24.3197 44.4909 23.9897C45.4409 22.7897 46.3808 21.5798 47.2708 20.3398C47.6408 19.8198 47.8808 19.9498 48.1708 20.3398C49.4308 22.0798 50.1208 24.0498 50.6608 26.1098C51.4508 29.1498 50.7708 32.0098 49.8208 34.8698C49.0308 37.2298 48.0708 39.5198 47.1308 41.8198C46.2108 44.0798 45.3609 46.3696 44.4809 48.6496C43.8709 50.2096 43.2508 51.7698 42.6408 53.3298C42.5208 53.6298 42.3908 53.9297 42.3108 54.2497C42.2208 54.6097 42.2608 54.9098 42.7708 54.8398C42.9808 54.8098 43.1908 54.8398 43.4008 54.8398C49.2008 54.8398 54.9908 54.8398 60.7908 54.8398C61.7408 54.8398 61.7608 54.8397 61.7608 55.7597C61.7708 57.0197 61.7308 58.2798 61.7708 59.5397C61.7908 60.1898 61.5808 60.3798 60.9408 60.3698V60.3798Z" fill="#424242"/>
<path d="M61.7808 67.5698C61.7808 67.9898 61.6609 68.1099 61.2209 68.1099C56.9009 68.0899 52.5808 68.0999 48.2608 68.0999C43.9908 68.0999 39.7109 68.0999 35.4409 68.1099C34.9209 68.1099 34.6908 68.0297 34.9308 67.4397C35.5308 66.0297 36.0908 64.5997 36.6708 63.1797C36.8308 62.7897 37.0708 62.6396 37.5108 62.6396C45.3808 62.6496 53.2508 62.6496 61.1208 62.6396C61.6508 62.6396 61.7908 62.7898 61.7808 63.3198C61.7408 64.7398 61.7608 66.1598 61.7808 67.5698Z" fill="#424242"/>
<path d="M60.0808 74.0899C59.5108 74.0799 58.9708 74.4099 58.3708 74.1299C57.1008 73.5599 56.0009 73.9698 55.1109 74.9498C53.9109 76.2898 53.9208 77.7299 54.9208 79.3099C55.6308 80.4399 57.1609 80.7598 58.6109 80.1898C58.7909 80.1198 58.9508 80.0497 59.1408 80.1597C59.5008 80.3797 59.9108 80.2699 60.3008 80.3299C60.7108 80.3899 60.8408 80.2199 60.8308 79.8299C60.8108 78.9899 60.8308 78.1499 60.8308 77.3099C60.8308 76.4899 60.8008 75.6699 60.8408 74.8599C60.8709 74.2799 60.6708 74.0999 60.0908 74.0899H60.0808ZM57.5108 79.1099C56.4708 79.0899 55.8008 78.3498 55.8108 77.2298C55.8208 76.0898 56.5209 75.2499 57.4809 75.3299C58.6509 75.4199 59.2609 75.7998 59.2309 77.2198C59.2109 78.4898 58.6308 79.1299 57.5208 79.1099H57.5108Z" fill="#424242"/>
<path d="M48.3208 74.0897C47.7408 74.0397 47.1809 74.4496 46.6109 74.1496C44.9209 73.2496 42.8108 74.6497 42.4308 76.4997C42.1508 77.8697 42.6108 79.0298 43.6508 79.8698C44.5408 80.5898 45.6208 80.8296 46.7208 80.2196C46.8808 80.1296 47.0408 80.0896 47.1808 80.1796C47.6008 80.4396 48.0508 80.2797 48.4808 80.3297C48.8808 80.3697 49.0208 80.2097 49.0108 79.8197C49.0008 79.1997 49.0108 78.5896 49.0108 77.9696C49.0108 77.7196 49.0108 77.4796 49.0108 77.2296C49.0108 77.0096 49.0108 76.7797 49.0108 76.5597C49.0108 75.9697 49.0008 75.3797 49.0308 74.7897C49.0608 74.2597 48.8508 74.1398 48.3508 74.0998L48.3208 74.0897ZM45.6708 79.0897C44.6508 79.0897 43.9708 78.3697 43.9708 77.2997C43.9708 76.0597 44.6009 75.2997 45.6109 75.2997C46.6709 75.2997 47.3908 76.0398 47.3908 77.1098C47.3908 78.4098 46.8008 79.0897 45.6708 79.0897Z" fill="#424242"/>
<path d="M42.4808 71.2999C41.6808 72.7199 40.8807 74.1298 40.0607 75.5398C39.7007 76.1698 39.6108 76.8498 39.6008 77.5398C39.6008 78.2898 39.5808 79.0398 39.6108 79.7798C39.6308 80.2098 39.5007 80.3799 39.0507 80.3099C38.8507 80.2799 38.6307 80.2899 38.4207 80.3099C38.0607 80.3399 37.9107 80.1699 37.9207 79.8199C37.9207 79.2799 37.9207 78.7498 37.9207 77.9598C38.3407 76.5698 37.3707 75.3599 36.6207 74.0799C36.0907 73.1799 35.5707 72.2699 35.0707 71.3499C34.8907 71.0199 34.9107 70.8098 35.4107 70.7898C36.5607 70.7498 36.6007 70.7698 37.1307 71.7798C37.5107 72.5198 37.9307 73.2498 38.3807 73.9598C38.6807 74.4398 38.9508 74.4097 39.2308 73.8997C39.7208 73.0297 40.2007 72.1498 40.6807 71.2698C40.8907 70.8898 42.2307 70.5599 42.5707 70.8199C42.8207 71.0099 42.5608 71.1498 42.4808 71.2798V71.2999Z" fill="#424242"/>
<path d="M53.5709 74.9397C53.6009 75.2497 53.5908 75.5898 53.1208 75.5298C52.6008 75.4698 52.5008 75.7397 52.5008 76.1797C52.5108 77.3497 52.4708 78.5197 52.5108 79.6797C52.5308 80.3297 52.1809 80.3298 51.7209 80.3098C51.2809 80.2898 50.8008 80.3897 50.8808 79.6597C50.9408 79.0797 50.8908 78.4897 50.8908 77.9097H50.8708C50.8708 77.3697 50.8908 76.8398 50.8708 76.2998C50.8608 75.9798 50.9809 75.6197 50.4609 75.4797C50.1709 75.3997 50.2108 74.2397 50.5108 74.1497C50.9408 74.0197 50.8708 73.7197 50.8908 73.4397C50.9108 72.9097 50.8708 72.3698 51.0508 71.8498C51.3608 70.9898 52.4208 70.4698 53.2708 70.7898C53.6308 70.9198 53.5508 71.2298 53.5608 71.4998C53.5608 71.8098 53.5608 72.1197 53.1308 72.1697C52.1808 72.2797 52.5908 73.0298 52.5008 73.5398C52.4108 74.0598 52.7308 74.1497 53.1708 74.1597C53.7508 74.1797 53.5308 74.6497 53.5608 74.9597L53.5709 74.9397Z" fill="#424242"/>
<path d="M62.4909 30.3497C61.5509 30.9397 60.6508 31.5996 59.7308 32.2296C59.5108 32.3796 59.3108 32.5296 59.1008 32.1996C58.4908 31.2696 57.8709 30.3496 57.2409 29.4396C57.0009 29.0896 56.9907 28.8397 57.3807 28.5897C58.3207 27.9897 59.1808 27.2797 60.1708 26.7697C60.2508 26.7297 60.3209 26.6695 60.3609 26.6395C60.5809 26.5995 60.6208 26.7397 60.7008 26.8597C61.3408 27.7997 61.9807 28.7396 62.6307 29.6696C62.8407 29.9696 62.8308 30.1398 62.4808 30.3698L62.4909 30.3497Z" fill="#424242"/>
</svg>
